<?xml version="1.0" encoding="UTF-8" standalone="no"?>
<svg
   xmlns:dc="http://purl.org/dc/elements/1.1/"
   xmlns:cc="http://creativecommons.org/ns#"
   xmlns:rdf="http://www.w3.org/1999/02/22-rdf-syntax-ns#"
   xmlns:svg="http://www.w3.org/2000/svg"
   xmlns="http://www.w3.org/2000/svg"
   xmlns:sodipodi="http://sodipodi.sourceforge.net/DTD/sodipodi-0.dtd"
   xmlns:inkscape="http://www.inkscape.org/namespaces/inkscape"
   sodipodi:docname="experiment.svg"
   inkscape:version="1.0 (4035a4fb49, 2020-05-01)"
   id="svg864"
   version="1.1"
   viewBox="0 0 11.885492 11.14137"
   height="11.14137mm"
   width="11.885492mm">
  <defs
     id="defs858" />
  <sodipodi:namedview
     inkscape:window-maximized="0"
     inkscape:window-y="0"
     inkscape:window-x="150"
     inkscape:window-height="860"
     inkscape:window-width="1274"
     fit-margin-bottom="0"
     fit-margin-right="0"
     fit-margin-left="0"
     fit-margin-top="0"
     showgrid="false"
     inkscape:document-rotation="0"
     inkscape:current-layer="layer1"
     inkscape:document-units="mm"
     inkscape:cy="18.285716"
     inkscape:cx="31.649239"
     inkscape:zoom="7.9195959"
     inkscape:pageshadow="2"
     inkscape:pageopacity="0.0"
     borderopacity="1.0"
     bordercolor="#666666"
     pagecolor="#ffffff"
     id="base" />
  <metadata
     id="metadata861">
    <rdf:RDF>
      <cc:Work
         rdf:about="">
        <dc:format>image/svg+xml</dc:format>
        <dc:type
           rdf:resource="http://purl.org/dc/dcmitype/StillImage" />
        <dc:title></dc:title>
      </cc:Work>
    </rdf:RDF>
  </metadata>
  <g
     transform="translate(-83.721771,-126.02925)"
     id="layer1"
     inkscape:groupmode="layer"
     inkscape:label="Layer 1">
    <path
       id="path1914"
       d="m 84.490577,128.62346 1.870888,-1.80407 1.747565,-0.046 1.994209,0.11282 3.207234,0.73499 1.703843,0.53454 0.06682,0.73499 -0.133636,0.73499 -1.603616,0.0668 -0.770017,0.0471 -0.299061,0.68791 -0.67609,1.50972 -0.234783,1.21665 -4.247113,-0.48912 -1.930434,0.31197 -1.130117,-2.0815 0.133633,-1.77066 z"
       style="fill:#f2f2f2;fill-opacity:1;stroke:none;stroke-width:0.264583px;stroke-linecap:butt;stroke-linejoin:miter;stroke-opacity:1" />
    <path
       id="path1912"
       d="m 85.186384,132.97675 h 0.708705 l 5.220795,0.0236 0.248047,0.15355 v 0.31892 l -0.212611,0.41341 v 0.63783 l 0.177175,0.98038 0.248047,0.75595 -0.460658,0.5079 -0.324855,-0.46066 -0.868132,-0.6142 -0.933128,-0.24805 -0.4016,-0.73233 -0.637834,-0.0118 -0.307107,0.34254 -0.661458,0.4961 -0.519716,-0.14175 -0.448847,0.60241 -0.259861,0.51971 -0.626022,0.0827 -0.259858,-0.44884 0.354354,-1.05125 0.07087,-0.92131 -0.153551,-0.50791 -0.165364,-0.36616 z"
       style="fill:#bb9167;fill-opacity:1;stroke:none;stroke-width:0.264583px;stroke-linecap:butt;stroke-linejoin:miter;stroke-opacity:1" />
    <g
       transform="matrix(1,0,0,0.99750084,18.254357,0.96502699)"
       aria-label="⚗️"
       id="g1438"
       style="font-style:normal;font-weight:normal;font-size:10.5833px;line-height:1.25;font-family:sans-serif;fill:#00cea6;fill-opacity:1;stroke:none;stroke-width:0.264583;stroke-opacity:1">
      <path
         sodipodi:nodetypes="ccccscccccccccccscscscscsscscscscsccccscssssscscscscc"
         d="m 250.50586,487.98438 c -0.0129,0.005 -0.028,0.005 -0.041,0.01 -0.006,0.0606 -0.0126,0.12115 -0.0195,0.18164 0.008,0.0213 0.0161,0.0408 0.0234,0.0625 0.0117,-0.0853 0.0224,-0.17199 0.0371,-0.2539 z m 1.14844,2.77343 c 0,1.5755 0.27995,3.07943 0.83984,4.51172 0.71638,1.54325 1.4071,2.86975 2.49219,3.90625 0.0128,0.0155 -0.0338,-0.0661 -0.0156,-0.0586 0.9434,1.00759 1.93377,1.49835 1.93377,1.49835 l 15.16404,-0.0316 c 1.1653,-0.59544 1.75075,-1.53332 2.26005,-2.17385 0.7457,-1.04996 1.21569,-1.83316 1.73982,-3.14073 0.55989,-1.43229 0.83984,-2.93622 0.83984,-4.51172 z m 9.12109,1.38867 c 0.19529,0 0.35808,0.0716 0.48828,0.21485 0.14321,0.13035 0.21485,0.29288 0.21485,0.48828 0,0.19525 -0.0716,0.36457 -0.21485,0.50781 -0.13021,0.1304 -0.29295,0.19531 -0.48828,0.19531 -0.19532,0 -0.36461,-0.0649 -0.50781,-0.19531 -0.13021,-0.14309 -0.19531,-0.31241 -0.19531,-0.50781 0,-0.19536 0.0651,-0.35789 0.19531,-0.48828 0.14323,-0.14325 0.31252,-0.21485 0.50781,-0.21485 z m -2.10937,2.8125 c 0.39062,0 0.72264,0.13652 0.99609,0.41016 0.27345,0.27345 0.41016,0.60548 0.41016,0.99609 0,0.39062 -0.13671,0.72246 -0.41016,0.9961 -0.27344,0.27333 -0.60547,0.41015 -0.99609,0.41015 -0.39063,0 -0.72265,-0.13651 -0.9961,-0.41015 -0.27345,-0.27345 -0.41015,-0.60548 -0.41015,-0.9961 0,-0.39061 0.1367,-0.72245 0.41015,-0.99609 0.27344,-0.27333 0.60547,-0.41016 0.9961,-0.41016 z m 18.54101,1.25 c -0.002,0.005 -0.004,0.009 -0.006,0.0137 v 0.002 c 0.002,0.002 0.004,0.006 0.006,0.008 -5e-5,-0.008 8e-5,-0.0156 0,-0.0234 z m -16.43164,1.5625 c 0.18229,0 0.34508,0.0716 0.48828,0.21485 0.14321,0.1432 0.21485,0.30611 0.21485,0.48828 0,0.18255 -0.0716,0.34504 -0.21485,0.48828 -0.14321,0.14324 -0.30599,0.21484 -0.48828,0.21484 -0.19532,0 -0.36461,-0.0649 -0.50781,-0.19531 -0.13021,-0.14347 -0.19531,-0.31241 -0.19531,-0.50781 0,-0.19536 0.0651,-0.35789 0.19531,-0.48828 0.14323,-0.14325 0.31252,-0.21485 0.50781,-0.21485 z m 12.38086,1.81446 c -0.004,0.008 -0.003,0.002 -0.008,0.0117 -0.002,0.004 -0.001,0.004 0,0 0.002,-0.009 0.006,-0.003 0.008,-0.0117 z"
         transform="scale(0.26458333)"
         style="fill:#00cea6;fill-opacity:1;stroke:none;stroke-width:0.999999;stroke-opacity:1"
         id="path1436" />
    </g>
    <path
       id="path1927"
       d="m 86.569078,133.83239 h 3.219429 l -0.385326,0.30782 -0.909505,0.2008 -0.968566,-0.0414 -0.626023,-0.1004 -0.336634,-0.23623 z"
       style="fill:#f2f2f2;fill-opacity:1;stroke:none;stroke-width:0.264583px;stroke-linecap:butt;stroke-linejoin:miter;stroke-opacity:1" />
    <path
       sodipodi:nodetypes="ccc"
       id="path1918"
       d="m 87.113162,133.79157 2.146506,-0.0101 c -1.012372,0.31883 -1.468681,0.3183 -2.146506,0.0101 z"
       style="fill:#00cea6;fill-opacity:1;stroke:none;stroke-width:0.300742px;stroke-linecap:butt;stroke-linejoin:miter;stroke-opacity:1" />
    <g
       style="font-style:normal;font-weight:normal;font-size:10.5833px;line-height:1.25;font-family:sans-serif;fill:#000000;fill-opacity:1;stroke:none;stroke-width:0.264583"
       id="text1429"
       aria-label="⚗️">
      <path
         sodipodi:nodetypes="cccccccscssscsccsscsccccssccscssccssccccccccccccscscscsscscsccccscssccscccccscscsssccscccscccccccscsssscccccccsscscccssscsscssscccscscccsssccccsccssscscccsccssccccccsscsccccsscssccccccc"
         id="path1431"
         style="stroke-width:0.264583"
         d="m 88.17621,126.02925 c 0.175699,0 0.349676,0.0138 0.521931,0.0413 0.175699,0.0241 0.347953,0.0569 0.516762,0.0982 0.172255,0.0379 0.342786,0.0809 0.511595,0.12919 0.168809,0.0448 0.337619,0.0879 0.506428,0.12919 l 4.366645,1.0697 c 0.148138,0.0379 0.282496,0.0982 0.403074,0.18086 0.124023,0.0792 0.230821,0.1757 0.320393,0.28939 0.08957,0.11369 0.158474,0.24115 0.206705,0.3824 0.05168,0.13781 0.07752,0.2825 0.07752,0.43409 0,0.18603 -0.03445,0.36001 -0.103353,0.52193 -0.0689,0.16191 -0.163641,0.30316 -0.284219,0.42374 -0.120578,0.12058 -0.261827,0.21532 -0.423746,0.28422 -0.158473,0.0689 -0.330727,0.10335 -0.516762,0.10335 -0.103353,0 -0.21015,-0.0138 -0.320393,-0.0413 l -1.384924,-0.33589 c 0.04134,0.24805 0.06201,0.49781 0.06201,0.7493 0,0.45475 -0.06546,0.894 -0.196369,1.31775 -0.130913,0.42374 -0.325561,0.82337 -0.583942,1.19889 0.02411,0.0827 0.03617,0.17053 0.03617,0.26355 0,0.17569 -0.04651,0.33933 -0.139526,0.49092 -0.08957,0.14814 -0.211872,0.26183 -0.366901,0.34106 l 0.480589,1.91719 c 0.01033,0.0379 0.01722,0.074 0.02067,0.10852 0.0035,0.0379 0.0052,0.0758 0.0052,0.11369 0,0.12747 -0.02412,0.24804 -0.07235,0.36173 -0.04823,0.11369 -0.115412,0.21188 -0.201537,0.29456 -0.08268,0.0861 -0.180867,0.15331 -0.294555,0.20154 -0.110243,0.0482 -0.229098,0.0723 -0.356566,0.0723 -0.106798,0 -0.210151,-0.0172 -0.310058,-0.0517 -0.09646,-0.0345 -0.184312,-0.0827 -0.263549,-0.1447 -0.07924,-0.062 -0.148138,-0.13607 -0.206705,-0.2222 -0.05857,-0.0861 -0.09991,-0.18087 -0.124023,-0.28422 l -0.12919,-0.5271 c -0.141249,0.0792 -0.292833,0.11885 -0.454752,0.11885 -0.110243,0 -0.213595,-0.0172 -0.310057,-0.0517 -0.09646,-0.0345 -0.184312,-0.0844 -0.263549,-0.14986 -0.07579,-0.062 -0.142971,-0.13607 -0.201538,-0.22221 -0.05512,-0.0861 -0.09646,-0.18087 -0.124023,-0.28422 l -0.10852,-0.41858 c -0.04823,0.003 -0.09819,0.007 -0.149861,0.0103 h -0.149861 -0.144694 c -0.04479,-0.003 -0.0913,-0.007 -0.139526,-0.0103 l -0.10852,0.41858 c -0.02756,0.10335 -0.07062,0.19809 -0.12919,0.28422 -0.05512,0.0861 -0.122299,0.1602 -0.201538,0.22221 -0.07579,0.0655 -0.163642,0.11542 -0.263549,0.14986 -0.09646,0.0345 -0.198092,0.0517 -0.30489,0.0517 -0.161919,0 -0.313502,-0.0396 -0.454751,-0.11885 -0.02067,0.0896 -0.04134,0.17742 -0.06201,0.26355 -0.02067,0.0861 -0.04307,0.17398 -0.06718,0.26355 -0.03101,0.10335 -0.07407,0.19809 -0.12919,0.28422 -0.05512,0.0861 -0.122299,0.16019 -0.201538,0.2222 -0.07579,0.062 -0.161919,0.11023 -0.258381,0.1447 -0.09646,0.0345 -0.199815,0.0517 -0.310058,0.0517 -0.130913,0 -0.253214,-0.0241 -0.366901,-0.0723 -0.110243,-0.0483 -0.208428,-0.11545 -0.294555,-0.20154 -0.08268,-0.0827 -0.148139,-0.18087 -0.19637,-0.29456 -0.04823,-0.11024 -0.07235,-0.23082 -0.07235,-0.36173 0,-0.0379 0.0017,-0.0758 0.0052,-0.11369 0.0035,-0.0345 0.01036,-0.0706 0.02067,-0.10852 l 0.480589,-1.91719 c -0.155029,-0.0792 -0.279052,-0.19292 -0.372069,-0.34106 -0.08957,-0.15159 -0.134359,-0.31523 -0.134359,-0.49092 0,-0.093 0.01206,-0.18087 0.03617,-0.26355 -0.258381,-0.37552 -0.453029,-0.77515 -0.583942,-1.19889 -0.130913,-0.42375 -0.19637,-0.863 -0.19637,-1.31775 0,-0.40997 0.05168,-0.80443 0.155029,-1.18338 0.106797,-0.38241 0.256658,-0.73897 0.449583,-1.0697 0.19637,-0.33073 0.428913,-0.63046 0.69763,-0.89917 0.272162,-0.27216 0.571884,-0.5047 0.899167,-0.69763 0.330728,-0.19293 0.685572,-0.34279 1.064531,-0.44958 0.382405,-0.1068 0.778589,-0.1602 1.188554,-0.1602 z m -0.06718,0.74414 c -0.323838,0 -0.639063,0.0448 -0.945675,0.13436 -0.306613,0.0896 -0.596,0.21703 -0.868162,0.3824 -0.268717,0.16192 -0.51504,0.35485 -0.73897,0.57878 -0.223931,0.22393 -0.418578,0.47197 -0.583942,0.74413 -0.161919,0.26872 -0.287665,0.55639 -0.377237,0.863 -0.08957,0.30661 -0.134358,0.62184 -0.134358,0.94567 0,0.43064 0.06201,0.83888 0.186034,1.22473 0.124023,0.38585 0.316948,0.75103 0.578775,1.09554 0.03445,-0.0138 0.0689,-0.0224 0.103352,-0.0258 0.03789,-0.007 0.07579,-0.0103 0.113688,-0.0103 0.04134,0 0.08096,0.002 0.118855,0.005 5.570702,0.0312 0,0 5.570702,0.0312 0.248046,-0.32384 0.435803,-0.68041 0.563271,-1.0697 0.130913,-0.38929 0.19637,-0.7872 0.19637,-1.19372 0,-0.31351 -0.03962,-0.62012 -0.118855,-0.91984 -0.07924,-0.30317 -0.192925,-0.59083 -0.341064,-0.86299 0.316948,0.0689 0.630451,0.14297 0.940508,0.2222 0.313503,0.0792 0.627005,0.15848 0.940508,0.23771 0.144694,0.0379 0.287665,0.0758 0.428913,0.11369 0.141249,0.0379 0.28422,0.0689 0.428914,0.093 0.01723,0.003 0.03445,0.007 0.05168,0.0103 h 0.05684 c 0.07579,0 0.148138,-0.0138 0.21704,-0.0413 0.07235,-0.031 0.136081,-0.0723 0.191202,-0.12402 0.05512,-0.0517 0.09818,-0.11196 0.129191,-0.18087 0.03101,-0.0689 0.04651,-0.14297 0.04651,-0.2222 0,-0.14125 -0.03962,-0.26528 -0.118855,-0.37207 -0.07924,-0.1068 -0.187757,-0.17743 -0.32556,-0.21188 l -4.382148,-1.07486 c -0.161919,-0.0413 -0.322115,-0.0827 -0.480589,-0.12403 -0.158474,-0.0448 -0.316948,-0.0844 -0.475422,-0.11885 -0.158474,-0.0379 -0.31867,-0.0689 -0.480589,-0.093 -0.158474,-0.0241 -0.322116,-0.0362 -0.490925,-0.0362 z m 2.681999,9.53427 c 0.02411,0.0792 0.07751,0.11886 0.160196,0.11886 0.04823,0 0.09302,-0.0172 0.134358,-0.0517 0.04479,-0.031 0.06718,-0.0741 0.06718,-0.12919 0,-0.0207 -0.0017,-0.0362 -0.0052,-0.0465 -0.110243,-0.46164 -0.225653,-0.91811 -0.346231,-1.36942 -0.117133,-0.45475 -0.230821,-0.91295 -0.341064,-1.37459 h 0.506428 c 0.05512,0 0.09991,-0.0172 0.134358,-0.0517 0.03445,-0.0345 0.05168,-0.0793 0.05168,-0.13435 0,-0.0483 -0.0155,-0.0896 -0.04651,-0.12403 -0.03101,-0.0379 -0.07235,-0.0568 -0.124023,-0.0568 h -5.627546 c -0.04134,0 -0.07579,0.0189 -0.103352,0.0568 -0.02756,0.0345 -0.04134,0.0706 -0.04134,0.10852 0,0.0586 0.0155,0.10683 0.04651,0.1447 0.03101,0.0379 0.07579,0.0568 0.134359,0.0568 h 0.506427 c -0.110243,0.46164 -0.222208,0.91984 -0.335896,1.37459 -0.110243,0.45131 -0.225653,0.90778 -0.346231,1.36942 -0.0069,0.0207 -0.01033,0.0396 -0.01033,0.0568 0,0.0517 0.02067,0.0913 0.06201,0.11886 0.04134,0.031 0.08613,0.0465 0.134358,0.0465 0.08613,0 0.142971,-0.0448 0.170532,-0.13436 0.01723,-0.0483 0.02928,-0.0965 0.03617,-0.14469 0.01033,-0.0483 0.02067,-0.0965 0.03101,-0.1447 l 0.08268,-0.31006 c 0.02756,-0.10335 0.05512,-0.20842 0.08268,-0.31522 0.08268,-0.32039 0.163641,-0.63906 0.242878,-0.95601 0.07924,-0.31695 0.156752,-0.63734 0.232543,-0.96118 h 3.798206 c 0.0689,0.3135 0.141249,0.62184 0.21704,0.92501 0.07924,0.30317 0.158474,0.60978 0.237711,0.91983 0.01723,0.0689 0.03617,0.14814 0.05684,0.23771 0.02067,0.0896 0.04134,0.18087 0.06201,0.27389 0.02411,0.0965 0.04651,0.18775 0.06718,0.27388 0.02411,0.0861 0.04823,0.1602 0.07235,0.22221 z m -2.41845,-2.10839 c 0.113688,0 0.232544,-0.009 0.356567,-0.0258 0.124023,-0.0207 0.248046,-0.0482 0.372069,-0.0827 0.124023,-0.0345 0.244601,-0.0724 0.361734,-0.11369 0.117133,-0.0448 0.225653,-0.093 0.32556,-0.14469 h -3.219431 c 0.103352,0.0517 0.215317,0.0999 0.335895,0.14469 0.120578,0.0448 0.242879,0.0844 0.366902,0.11886 0.127468,0.031 0.253214,0.0568 0.377237,0.0775 0.127468,0.0172 0.249768,0.0258 0.366901,0.0258 z m -1.493444,1.11621 c 0.04134,0 0.07924,-0.0121 0.113688,-0.0362 0.03445,-0.0275 0.05685,-0.062 0.06718,-0.10335 l 0.175699,-0.71313 c -0.05857,-0.0172 -0.118856,-0.0327 -0.180867,-0.0465 -0.05857,-0.0172 -0.117133,-0.0361 -0.175699,-0.0568 -0.01033,0.0413 -0.02584,0.0982 -0.04651,0.17054 -0.02067,0.0724 -0.04134,0.14641 -0.06201,0.2222 -0.02067,0.0758 -0.03962,0.14814 -0.05684,0.21704 -0.01378,0.0689 -0.02067,0.12231 -0.02067,0.1602 0,0.0517 0.01723,0.0965 0.05168,0.13436 0.03789,0.0345 0.08268,0.0517 0.134358,0.0517 z m 2.599316,0 c 0.05167,0 0.09474,-0.0172 0.129191,-0.0517 0.03789,-0.0379 0.05684,-0.0827 0.05684,-0.13436 0,-0.0379 -0.0086,-0.0913 -0.02584,-0.1602 -0.01378,-0.0689 -0.03101,-0.14125 -0.05168,-0.21704 -0.02067,-0.0758 -0.04134,-0.14985 -0.06201,-0.2222 -0.02067,-0.0724 -0.03618,-0.12919 -0.04651,-0.17054 -0.05857,0.0207 -0.118856,0.0396 -0.180867,0.0568 -0.05857,0.0172 -0.117133,0.0327 -0.175699,0.0465 l 0.175699,0.71313 c 0.01033,0.0413 0.03273,0.0758 0.06718,0.10335 0.03445,0.0241 0.07235,0.0362 0.113687,0.0362 z" />
    </g>
    <path
       sodipodi:nodetypes="ccccc"
       id="path1916"
       d="m 85.793518,128.3896 0.567947,0.53454 1.837477,-1.1359 -1.269528,-0.46772 z"
       style="fill:#ffffff;fill-opacity:1;stroke:none;stroke-width:0.264583px;stroke-linecap:butt;stroke-linejoin:miter;stroke-opacity:1" />
  </g>
</svg>
