<?xml version="1.0" encoding="UTF-8" standalone="no"?>
<svg
   xmlns:dc="http://purl.org/dc/elements/1.1/"
   xmlns:cc="http://creativecommons.org/ns#"
   xmlns:rdf="http://www.w3.org/1999/02/22-rdf-syntax-ns#"
   xmlns:svg="http://www.w3.org/2000/svg"
   xmlns="http://www.w3.org/2000/svg"
   xmlns:sodipodi="http://sodipodi.sourceforge.net/DTD/sodipodi-0.dtd"
   xmlns:inkscape="http://www.inkscape.org/namespaces/inkscape"
   sodipodi:docname="write.svg"
   inkscape:version="1.0 (4035a4fb49, 2020-05-01)"
   id="svg1935"
   version="1.1"
   viewBox="0 0 11.513476 11.88554"
   height="11.88554mm"
   width="11.513476mm">
  <defs
     id="defs1929" />
  <sodipodi:namedview
     inkscape:window-maximized="0"
     inkscape:window-y="0"
     inkscape:window-x="150"
     inkscape:window-height="860"
     inkscape:window-width="1274"
     fit-margin-bottom="0"
     fit-margin-right="0"
     fit-margin-left="0"
     fit-margin-top="0"
     showgrid="false"
     inkscape:document-rotation="0"
     inkscape:current-layer="layer1"
     inkscape:document-units="mm"
     inkscape:cy="62.74721"
     inkscape:cx="61.211346"
     inkscape:zoom="3.959798"
     inkscape:pageshadow="2"
     inkscape:pageopacity="0.0"
     borderopacity="1.0"
     bordercolor="#666666"
     pagecolor="#ffffff"
     id="base" />
  <metadata
     id="metadata1932">
    <rdf:RDF>
      <cc:Work
         rdf:about="">
        <dc:format>image/svg+xml</dc:format>
        <dc:type
           rdf:resource="http://purl.org/dc/dcmitype/StillImage" />
        <dc:title></dc:title>
      </cc:Work>
    </rdf:RDF>
  </metadata>
  <g
     transform="translate(-81.453871,-129.43695)"
     id="layer1"
     inkscape:groupmode="layer"
     inkscape:label="Layer 1">
    <path
       id="path2511"
       d="m 82.198,130.18109 h 6.681742 l 1.488276,1.48311 v 8.91415 H 82.198 Z"
       style="fill:#ffffff;fill-opacity:1;stroke:none;stroke-width:0.264583px;stroke-linecap:butt;stroke-linejoin:miter;stroke-opacity:1" />
    <path
       sodipodi:nodetypes="ccccc"
       id="path2508"
       d="m 91.112166,131.50917 1.111031,0.89917 0.744138,-0.58911 -0.72594,-0.75694 z"
       style="fill:#ee9889;fill-opacity:1;stroke:none;stroke-width:0.264583px;stroke-linecap:butt;stroke-linejoin:miter;stroke-opacity:1" />
    <path
       id="path2506"
       d="m 90.740089,132.40839 -5.989281,5.57065 -0.558104,1.11621 h 0.976683 v 0 l 1.638136,-0.74414 4.666369,-5.20892 z"
       style="fill:#ffc83d;fill-opacity:1;stroke:none;stroke-width:0.264583px;stroke-linecap:butt;stroke-linejoin:miter;stroke-opacity:1" />
    <path
       d="m 92.967336,131.81923 q 0,0.13952 -0.03617,0.25321 -0.03617,0.10852 -0.09818,0.20671 -0.05684,0.093 -0.139526,0.18086 -0.07751,0.0827 -0.170532,0.1757 l -1.410762,1.41076 v 7.27602 h -9.658295 v -11.88554 h 7.735938 l 1.922357,1.92236 v 0.14986 q 0.103352,-0.10852 0.201537,-0.21187 0.103353,-0.10336 0.217041,-0.18604 0.113687,-0.0878 0.242878,-0.13952 0.129191,-0.0517 0.294555,-0.0517 0.186034,0 0.346231,0.0724 0.165364,0.0723 0.284219,0.19637 0.124023,0.11885 0.19637,0.28422 0.07235,0.16019 0.07235,0.34623 z m -2.599316,8.75912 v -5.78774 l -0.961179,0.96118 h 0.21704 v 0.37207 h -0.589109 l -0.744138,0.74414 h 0.589109 v 0.3669 h -0.956011 l -0.744138,0.74414 h 2.072218 v 0.37207 h -2.444287 q -0.05684,0.0568 -0.155029,0.16536 -0.09819,0.10335 -0.206705,0.21704 -0.10852,0.10852 -0.211873,0.20154 -0.09819,0.0879 -0.155029,0.11885 l -2.485628,1.24023 0.418578,-0.82682 h -1.074867 v -0.37206 h 1.255734 l 0.372069,-0.74414 h -1.627803 v -0.37207 h 1.813837 q 0.06201,-0.11886 0.134359,-0.21187 0.07235,-0.0982 0.149861,-0.18604 0.08268,-0.0879 0.170531,-0.17053 0.08785,-0.0827 0.180867,-0.1757 h -2.449455 v -0.3669 h 2.821524 l 0.738971,-0.74414 h -3.560495 v -0.37207 h 3.932564 l 0.744138,-0.74414 h -4.676702 v -0.37207 h 5.048772 l 0.744138,-0.73897 h -5.79291 v -0.37207 h 5.942771 v 0.21704 l 1.488277,-1.48827 v -0.58911 h -1.488277 v -1.48311 h -6.681741 v 10.39726 z m -5.198633,-1.4831 q 0.05684,-0.031 0.165364,-0.0775 0.10852,-0.0465 0.222208,-0.0982 0.113688,-0.0568 0.211873,-0.10852 0.09819,-0.0517 0.139526,-0.0878 0.248046,-0.21704 0.490924,-0.46509 0.242879,-0.25321 0.475422,-0.49092 l 4.599188,-4.62503 -0.733803,-0.7338 -5.322656,5.32265 q -0.0155,0.0155 -0.05684,0.0517 -0.03617,0.0362 -0.07751,0.0775 -0.04134,0.0362 -0.07751,0.0724 -0.03101,0.031 -0.03617,0.0465 l -0.372069,0.74414 z m 4.454494,-6.68691 v 0.37207 h -6.686909 v -0.37207 z m -3.343454,-1.11621 v 0.37207 h -3.343455 v -0.37207 z m 5.942771,1.11621 q 0.149861,-0.0982 0.258381,-0.25322 0.113688,-0.16019 0.113688,-0.34623 0,-0.0982 -0.04134,-0.1912 -0.03617,-0.093 -0.10852,-0.16536 -0.06718,-0.0724 -0.160197,-0.11369 -0.08785,-0.0413 -0.186034,-0.0413 -0.180867,0 -0.346231,0.10852 -0.165365,0.10852 -0.268717,0.25838 z"
       style="font-style:normal;font-weight:normal;font-size:10.5833px;line-height:1.25;font-family:sans-serif;fill:#000000;fill-opacity:1;stroke:none;stroke-width:0.264583"
       id="path2503" />
  </g>
</svg>
