<?xml version="1.0" encoding="UTF-8" standalone="no"?>
<svg
   xmlns:dc="http://purl.org/dc/elements/1.1/"
   xmlns:cc="http://creativecommons.org/ns#"
   xmlns:rdf="http://www.w3.org/1999/02/22-rdf-syntax-ns#"
   xmlns:svg="http://www.w3.org/2000/svg"
   xmlns="http://www.w3.org/2000/svg"
   xmlns:sodipodi="http://sodipodi.sourceforge.net/DTD/sodipodi-0.dtd"
   xmlns:inkscape="http://www.inkscape.org/namespaces/inkscape"
   stroke-miterlimit="10"
   font-weight="normal"
   font-style="normal"
   font-size="12"
   version="1.1"
   id="svg874"
   sodipodi:docname="alien_monster.svg"
   width="245.25"
   height="264.9375"
   style="font-style:normal;font-weight:normal;font-size:12px;font-family:Dialog;color-interpolation:auto;fill:#000000;fill-opacity:1;stroke:#000000;stroke-width:1;stroke-linecap:square;stroke-linejoin:miter;stroke-miterlimit:10;stroke-dasharray:none;stroke-dashoffset:0;stroke-opacity:1;color-rendering:auto;image-rendering:auto;shape-rendering:auto;text-rendering:auto"
   inkscape:version="0.92.4 (5da689c313, 2019-01-14)">
  <metadata
     id="metadata878">
    <rdf:RDF>
      <cc:Work
         rdf:about="">
        <dc:format>image/svg+xml</dc:format>
        <dc:type
           rdf:resource="http://purl.org/dc/dcmitype/StillImage" />
        <dc:title />
      </cc:Work>
    </rdf:RDF>
  </metadata>
  <sodipodi:namedview
     pagecolor="#ffffff"
     bordercolor="#666666"
     borderopacity="1"
     objecttolerance="10"
     gridtolerance="10"
     guidetolerance="10"
     inkscape:pageopacity="0"
     inkscape:pageshadow="2"
     inkscape:window-width="1920"
     inkscape:window-height="986"
     id="namedview876"
     showgrid="false"
     fit-margin-top="0"
     fit-margin-left="0"
     fit-margin-right="0"
     fit-margin-bottom="0"
     inkscape:zoom="2.36"
     inkscape:cx="47.692798"
     inkscape:cy="111.4947"
     inkscape:window-x="-11"
     inkscape:window-y="-11"
     inkscape:window-maximized="1"
     inkscape:current-layer="svg874" />
  <!--Unicode Character 'ALIEN MONSTER' (U+1F47E)-->
  <defs
     id="genericDefs" />
  <g
     id="g872"
     transform="translate(-21.375,-140.625)"
     style="fill:#ffffff">
    <g
       id="g870"
       style="fill:#ffffff">
      <path
         d="m 266.625,329.9062 q 0,36.5626 -45.5625,58.2188 -36.5625,17.4375 -77.9063,17.4375 -40.6406,0 -77.0624,-17.7187 -44.7188,-21.7969 -44.7188,-57.9376 0,-38.25 55.125,-64.4062 -33.0469,-57.375 -33.0469,-73.6875 0,-5.7656 4.0781,-9.9844 4.0782,-4.2187 9.7032,-4.2187 10.2656,0 22.0781,36.8437 7.3125,22.9219 11.9531,47.5313 24.75,-7.875 52.3125,-7.875 25.1719,0 54,7.1718 0.9844,-2.8124 8.7188,-29.9531 L 220.5,181.6875 q 6.3281,-22.3594 7.3125,-24.6094 6.6094,-16.4531 16.0313,-16.4531 5.7656,0 9.9843,4.8516 4.2188,4.8515 4.2188,10.7578 0,7.4531 -47.3907,109.2656 22.0782,8.8594 37.5469,24.75 18.4219,18.8438 18.4219,39.6562 z m -14.9062,0 q 0,-31.2187 -39.9376,-48.7968 -31.3593,-13.7813 -67.3593,-13.7813 -35.8594,0 -67.7813,13.5 -41.0625,17.4375 -41.0625,48.2344 0,31.3594 40.5,48.7969 31.5,13.5 67.9219,13.5 35.0156,0 66.9375,-13.7813 Q 251.7188,360 251.7188,329.9062 Z m -15.0469,0.7032 q 0,10.125 -8.1563,18.0703 -8.1562,7.9453 -18.2812,7.9453 -10.4063,0 -18,-8.0156 -7.5938,-8.0156 -7.5938,-18.4219 0,-11.6719 7.6641,-19.0547 7.6641,-7.3828 19.3359,-7.3828 9.5625,0 17.2969,8.6484 7.7344,8.6485 7.7344,18.211 z m -67.0781,-19.6875 q 0,10.8281 -7.7344,18 -7.7344,7.1719 -18.7032,7.1719 -10.5468,0 -18.4921,-7.5235 -7.9453,-7.5234 -7.9453,-18.0703 0,-10.125 8.0156,-18.2812 8.0156,-8.1563 18.1406,-8.1563 10.4062,0 18.5625,8.2266 8.1563,8.2265 8.1563,18.6328 z m 7.7343,57.2343 q 0,4.3594 -4.2187,4.3594 -0.9844,0 -2.5313,-0.8437 -12.2343,-6.6094 -27.4219,-6.6094 -15.0468,0 -28.6874,6.75 -1.4063,0.7031 -2.3907,0.7031 -4.2187,0 -4.2187,-4.3594 0,-1.6874 1.9687,-3.375 5.4844,-4.6406 15.75,-7.875 9.8438,-3.0937 17.5781,-3.0937 7.5938,0 17.1563,3.0937 10.5469,3.375 15.3281,8.0157 1.6875,1.6875 1.6875,3.2343 z m -72.4219,-37.9687 q 0,9.7031 -8.3671,18.0703 -8.3672,8.3672 -18.0703,8.3672 -10.2657,0 -18.3516,-8.0859 -8.086,-8.086 -8.086,-18.3516 0,-9.5625 7.7344,-18 7.7344,-8.4375 17.1563,-8.4375 11.3906,0 19.6875,7.5938 8.2968,7.5937 8.2968,18.8437 z m 124.7344,0 q 0,-7.4531 -5.9062,-13.0078 -5.9063,-5.5547 -13.5,-5.5547 -7.7344,0 -13.1485,5.4141 -5.414,5.414 -5.414,13.1484 0,7.0313 5.7656,12.7969 5.7656,5.7656 12.7969,5.7656 7.5937,0 13.5,-5.4844 5.9062,-5.4844 5.9062,-13.0781 z M 162.5625,310.5 q 0,-7.3125 -6.1875,-13.2891 -6.1875,-5.9765 -13.5,-5.9765 -7.1719,0 -12.6562,6.0468 -5.4844,6.0469 -5.4844,13.2188 0,7.7344 5.3437,13.1484 5.3438,5.4141 13.0781,5.4141 7.4532,0 13.4297,-5.625 5.9766,-5.625 5.9766,-12.9375 z m -65.5313,20.5312 q 0,-7.875 -5.5546,-13.6406 -5.5547,-5.7656 -13.2891,-5.7656 -7.875,0 -13.0078,5.5547 -5.1328,5.5547 -5.1328,13.4297 0,7.4531 5.625,12.7968 5.625,5.3438 13.2187,5.3438 6.8906,0 12.5156,-5.4141 5.625,-5.414 5.625,-12.3047 z M 213.75,327.9375 q 0,9 -8.5781,9 -8.7188,0 -8.7188,-8.4375 0,-8.8594 9.1407,-8.8594 8.1562,0 8.1562,8.2969 z m -66.9375,-19.8281 q 0,9.1406 -8.7187,9.1406 -3.375,0 -6.1172,-3.2344 -2.7422,-3.2344 -2.7422,-6.6094 0,-3.2343 2.7422,-5.7656 2.7422,-2.5312 6.1172,-2.5312 8.7187,0 8.7187,9 z m -65.25,18.8437 q 0,3.6563 -2.4609,6.8203 -2.461,3.1641 -6.1172,3.1641 -2.9532,0 -5.625,-2.8828 -2.6719,-2.8828 -2.6719,-5.8359 0,-8.5782 8.7187,-8.5782 8.1563,0 8.1563,7.3125 z"
         id="path868"
         inkscape:connector-curvature="0"
         style="stroke:none;fill:#ffffff" />
    </g>
  </g>
</svg>
