<?xml version="1.0" encoding="UTF-8" standalone="no"?>
<svg
   xmlns:dc="http://purl.org/dc/elements/1.1/"
   xmlns:cc="http://creativecommons.org/ns#"
   xmlns:rdf="http://www.w3.org/1999/02/22-rdf-syntax-ns#"
   xmlns:svg="http://www.w3.org/2000/svg"
   xmlns="http://www.w3.org/2000/svg"
   xmlns:sodipodi="http://sodipodi.sourceforge.net/DTD/sodipodi-0.dtd"
   xmlns:inkscape="http://www.inkscape.org/namespaces/inkscape"
   stroke-miterlimit="10"
   font-weight="normal"
   font-style="normal"
   font-size="12"
   version="1.1"
   id="svg848"
   sodipodi:docname="broom.svg"
   width="239.0625"
   height="230.9063"
   style="font-style:normal;font-weight:normal;font-size:12px;font-family:Dialog;color-interpolation:auto;fill:#000000;fill-opacity:1;stroke:#000000;stroke-width:1;stroke-linecap:square;stroke-linejoin:miter;stroke-miterlimit:10;stroke-dasharray:none;stroke-dashoffset:0;stroke-opacity:1;color-rendering:auto;image-rendering:auto;shape-rendering:auto;text-rendering:auto"
   inkscape:version="0.92.4 (5da689c313, 2019-01-14)">
  <metadata
     id="metadata852">
    <rdf:RDF>
      <cc:Work
         rdf:about="">
        <dc:format>image/svg+xml</dc:format>
        <dc:type
           rdf:resource="http://purl.org/dc/dcmitype/StillImage" />
        <dc:title />
      </cc:Work>
    </rdf:RDF>
  </metadata>
  <sodipodi:namedview
     pagecolor="#ffffff"
     bordercolor="#666666"
     borderopacity="1"
     objecttolerance="10"
     gridtolerance="10"
     guidetolerance="10"
     inkscape:pageopacity="0"
     inkscape:pageshadow="2"
     inkscape:window-width="1920"
     inkscape:window-height="986"
     id="namedview850"
     showgrid="false"
     fit-margin-top="0"
     fit-margin-left="0"
     fit-margin-right="0"
     fit-margin-bottom="0"
     inkscape:zoom="1.3488062"
     inkscape:cx="-8.5605113"
     inkscape:cy="37.18149"
     inkscape:window-x="-11"
     inkscape:window-y="-11"
     inkscape:window-maximized="1"
     inkscape:current-layer="svg848" />
  <!--Unicode Character 'BROOM' (U+1F9F9)-->
  <defs
     id="genericDefs" />
  <g
     id="g846"
     transform="translate(-11.25,-164.5312)"
     style="fill:#ffffff">
    <g
       id="g844"
       style="fill:#ffffff">
      <path
         d="m 250.3125,190.6875 q 0,9.2813 -15.6094,25.3125 -11.5312,10.8281 -23.2031,21.7969 -16.5938,16.5937 -44.7188,43.3125 -9.5624,9.1406 -9.5624,9.1406 0,-0.4219 2.1093,4.9219 4.0781,10.4062 4.0781,20.25 0,42.0469 -76.3593,80.0156 L 11.25,320.625 V 306.4219 Q 26.8594,298.4062 41.7656,285.4688 54.7031,274.0781 67.5,262.8281 82.4062,252 99.4219,252 q 9.1406,0 17.8593,3.0938 8.2969,2.9531 7.875,2.9531 0.1407,0 9.7032,-9.8438 l 45.7031,-47.5312 q 11.1094,-12.0938 32.4844,-31.9219 5.7656,-4.2188 11.6719,-4.2188 7.875,0 16.7343,9.1407 8.8594,9.1406 8.8594,17.0156 z m -13.5,-1.2656 q 0,-3.7969 -3.5156,-7.5938 -3.5157,-3.7969 -7.3125,-3.7969 -3.5156,0 -6.8906,2.8126 -2.3907,2.3906 -7.0313,7.1718 L 195.6094,204.75 q -21.9375,22.3594 -48.7969,50.9062 l 12.7969,12.375 50.4844,-48.0937 q 8.0156,-7.5937 23.4843,-23.2031 3.2344,-3.375 3.2344,-7.3125 z m -87.3281,123.1875 q 0,-3.5156 -1.5469,-11.1094 -1.5469,-8.2969 -3.0937,-10.2656 -9.9844,-13.0782 -20.6719,-20.8125 -8.0157,-5.7657 -22.9219,-5.7657 -9.9844,0 -21.375,6.1876 l 14.0625,14.625 q 6.8906,-3.5157 17.5781,-3.5157 2.6719,0 3.6563,0.7031 -5.3438,1.8282 -16.5938,7.3126 l 13.6407,13.7812 12.0937,-8.7188 q -0.5625,2.9532 -3.2344,6.6094 -3.7969,5.4844 -4.2187,6.1875 l 26.2968,26.2969 q 6.3282,-10.125 6.3282,-21.5156 z m -43.0313,-4.7813 -13.3593,-13.2187 q -2.6719,1.9687 -4.9219,5.0625 l 12.7969,12.375 q 1.9687,-1.2657 5.4843,-4.2188 z M 87.75,288.7031 73.9688,275.4844 q -3.6563,2.6718 -5.3438,4.5 l 13.6406,13.3594 q 3.375,-2.5313 5.4844,-4.6407 z m 50.7656,51.3281 -27.1406,-26.7187 -4.9219,4.5 27.5625,27.7031 q 1.6875,-1.6875 4.5,-5.4844 z m -9.5625,9.9844 -28.4062,-28.4062 q -11.9531,7.1718 -24.6094,7.0312 6.8906,-3.6562 19.125,-12.5156 L 83.1094,304.5938 q -4.0782,3.375 -13.5,7.4531 -9.8438,4.3593 -14.4844,4.3593 -0.7031,0 -0.7031,0 l -0.1407,-0.2812 q 14.0626,-8.1562 22.5,-18.2812 L 63.5625,284.625 q -18.4219,18.7031 -39.375,31.5 7.3125,6.1875 15.3281,15.0469 11.5313,12.6562 13.7813,14.4843 8.1562,6.75 18.2812,6.75 11.1094,0 24.0469,-7.875 -0.7031,4.3594 -9.5625,11.1094 -7.4531,5.625 -13.0781,7.875 l 14.2031,15.4688 q 27.4219,-14.2032 41.7656,-28.9688 z"
         id="path842"
         inkscape:connector-curvature="0"
         style="stroke:none;fill:#ffffff" />
    </g>
  </g>
</svg>
