<?xml version="1.0" encoding="UTF-8" standalone="no"?>
<svg
   xmlns:dc="http://purl.org/dc/elements/1.1/"
   xmlns:cc="http://creativecommons.org/ns#"
   xmlns:rdf="http://www.w3.org/1999/02/22-rdf-syntax-ns#"
   xmlns:svg="http://www.w3.org/2000/svg"
   xmlns="http://www.w3.org/2000/svg"
   xmlns:sodipodi="http://sodipodi.sourceforge.net/DTD/sodipodi-0.dtd"
   xmlns:inkscape="http://www.inkscape.org/namespaces/inkscape"
   sodipodi:docname="external_link.svg"
   inkscape:version="1.0 (4035a4fb49, 2020-05-01)"
   id="svg8"
   version="1.1"
   viewBox="0 0 184.94374 184.94374"
   height="184.94374mm"
   width="184.94374mm">
  <defs
     id="defs2" />
  <sodipodi:namedview
     inkscape:document-rotation="0"
     inkscape:window-maximized="1"
     inkscape:window-y="-8"
     inkscape:window-x="-8"
     inkscape:window-height="837"
     inkscape:window-width="1440"
     fit-margin-bottom="0"
     fit-margin-right="0"
     fit-margin-left="0"
     fit-margin-top="0"
     showgrid="false"
     inkscape:current-layer="svg8"
     inkscape:document-units="mm"
     inkscape:cy="320.36301"
     inkscape:cx="497.90124"
     inkscape:zoom="0.68200886"
     inkscape:pageshadow="2"
     inkscape:pageopacity="0.0"
     borderopacity="1.0"
     bordercolor="#666666"
     pagecolor="#ffffff"
     id="base" />
  <metadata
     id="metadata5">
    <rdf:RDF>
      <cc:Work
         rdf:about="">
        <dc:format>image/svg+xml</dc:format>
        <dc:type
           rdf:resource="http://purl.org/dc/dcmitype/StillImage" />
        <dc:title></dc:title>
      </cc:Work>
    </rdf:RDF>
  </metadata>
  <path
     sodipodi:nodetypes="ccssscccccccccccccccccccccccccccc"
     d="M 92.379889,0 C 41.345008,0.05076322 -2.8045819e-5,41.436967 0,92.471874 c -2.9104024e-6,51.070806 41.401068,92.471876 92.471874,92.471876 51.070806,0 92.471876,-41.40107 92.471876,-92.471876 C 184.94375,41.401068 143.54268,-2.9104165e-6 92.471874,0 Z m 6.83886,41.599527 h 42.171581 c 3.60551,-5.3e-4 6.52883,2.921748 6.52932,6.527252 V 81.755733 H 134.86308 V 62.574473 L 81.403816,110.90434 70.675272,101.20519 122.16774,54.654028 H 99.218749 Z m 35.644331,20.974946 c 0,0 -8.0499,-4.240792 0,0 z M 43.968376,44.772976 H 90.488015 V 57.827994 H 50.496141 V 126.25741 H 132.74797 V 91.281249 h 13.0545 v 41.503931 c -5.3e-4,3.60469 -2.92256,6.52675 -6.52725,6.52725 H 43.968376 c -3.604694,-5.3e-4 -6.526752,-2.92256 -6.527251,-6.52725 V 51.300744 c 2.13e-4,-3.604897 2.922353,-6.527271 6.527251,-6.527768 z"
     inkscape:label="black"
     style="display:inline;fill:#000000;fill-opacity:1;stroke:none;stroke-width:13.565;stroke-linejoin:round;stroke-miterlimit:4;stroke-dasharray:none;stroke-opacity:1"
     id="path823" />
</svg>
