<?xml version="1.0" encoding="UTF-8" standalone="no"?>
<svg
   xmlns:dc="http://purl.org/dc/elements/1.1/"
   xmlns:cc="http://creativecommons.org/ns#"
   xmlns:rdf="http://www.w3.org/1999/02/22-rdf-syntax-ns#"
   xmlns:svg="http://www.w3.org/2000/svg"
   xmlns="http://www.w3.org/2000/svg"
   xmlns:sodipodi="http://sodipodi.sourceforge.net/DTD/sodipodi-0.dtd"
   xmlns:inkscape="http://www.inkscape.org/namespaces/inkscape"
   stroke-miterlimit="10"
   font-weight="normal"
   font-style="normal"
   font-size="12"
   version="1.1"
   id="svg1443"
   sodipodi:docname="film_projector.svg"
   width="251.01559"
   height="196.0313"
   style="font-style:normal;font-weight:normal;font-size:12px;font-family:Dialog;color-interpolation:auto;fill:#000000;fill-opacity:1;stroke:#000000;stroke-width:1;stroke-linecap:square;stroke-linejoin:miter;stroke-miterlimit:10;stroke-dasharray:none;stroke-dashoffset:0;stroke-opacity:1;color-rendering:auto;image-rendering:auto;shape-rendering:auto;text-rendering:auto"
   inkscape:version="0.92.4 (5da689c313, 2019-01-14)">
  <metadata
     id="metadata1447">
    <rdf:RDF>
      <cc:Work
         rdf:about="">
        <dc:format>image/svg+xml</dc:format>
        <dc:type
           rdf:resource="http://purl.org/dc/dcmitype/StillImage" />
        <dc:title />
      </cc:Work>
    </rdf:RDF>
  </metadata>
  <sodipodi:namedview
     pagecolor="#ffffff"
     bordercolor="#666666"
     borderopacity="1"
     objecttolerance="10"
     gridtolerance="10"
     guidetolerance="10"
     inkscape:pageopacity="0"
     inkscape:pageshadow="2"
     inkscape:window-width="1920"
     inkscape:window-height="986"
     id="namedview1445"
     showgrid="false"
     fit-margin-top="0"
     fit-margin-left="0"
     fit-margin-right="0"
     fit-margin-bottom="0"
     inkscape:zoom="2.36"
     inkscape:cx="34.401768"
     inkscape:cy="101.05355"
     inkscape:window-x="-11"
     inkscape:window-y="-11"
     inkscape:window-maximized="1"
     inkscape:current-layer="svg1443" />
  <!--Unicode Character 'FILM PROJECTOR' (U+1F4FD)-->
  <defs
     id="genericDefs" />
  <g
     id="g1441"
     transform="translate(-18.1406,-174.9375)"
     style="fill:#ffffff">
    <g
       id="g1439"
       style="fill:#ffffff">
      <path
         d="m 269.1562,235.2656 q 0,25.1719 -17.5781,42.75 -17.5781,17.5782 -42.75,17.5782 -9.2812,0 -18,-2.6719 v 17.2969 h 4.6407 v -8.5782 h 18.7031 v 47.5313 h -18.7031 v -7.3125 h -4.6407 V 353.25 h -19.6875 v 17.7188 H 76.2188 V 353.25 H 64.125 v -49.3594 q -19.6875,-1.9687 -32.8359,-16.5937 -13.1485,-14.625 -13.1485,-34.4531 0,-21.375 14.9766,-36.2813 14.9766,-14.9063 36.3516,-14.9063 15.0468,0 27.4218,7.8047 12.375,7.8047 18.8438,21.3047 h 32.9062 q 1.6875,-23.7656 19.0547,-39.7968 17.3672,-16.0313 41.1328,-16.0313 25.1719,0 42.75,17.5781 17.5781,17.5782 17.5781,42.75 z m -18,-22.6406 q -2.3906,-8.5781 -13.1484,-16.8047 -10.7578,-8.2265 -19.6172,-8.2265 0,0 -3.2344,0.4218 -0.5624,6.8906 -0.5624,17.4375 v 3.9375 q 0,5.2032 4.6406,9.4219 4.6406,4.2187 9.9844,4.2187 2.25,0 21.9374,-10.4062 z m 7.7344,24.1875 q 0,-7.0313 -2.3906,-10.6875 -6.1875,1.5469 -12.375,2.9531 -5.4844,1.9688 -10.2656,6.3281 -5.625,5.2032 -5.625,8.5782 0,7.3125 5.9062,14.3437 5.625,5.625 11.3906,11.25 6.1876,-3.5156 9.9844,-14.625 3.375,-9.5625 3.375,-18.1406 z m -54.8437,-27 q 0,-0.9844 -1.9688,-21.375 -2.3906,-0.5625 -5.0625,-0.5625 -9.9844,0 -20.4609,8.2969 -10.4766,8.2969 -13.2891,18 22.3594,9.7031 26.7188,9.7031 5.0625,0 9.5625,-4.5 4.5,-4.5 4.5,-9.5625 z m 13.9219,25.3125 q 0,-7.7344 -7.7344,-7.7344 -2.3906,0 -4.2188,0.9844 l -2.8125,-2.6719 -2.3906,2.3907 2.6719,2.9531 q -1.125,1.2656 -1.125,4.0781 0,8.0156 7.7344,8.0156 7.875,0 7.875,-8.0156 z m -22.6407,7.1719 -4.5,-1.125 v 11.3906 z M 233.2969,279 222.8906,261.7031 q -5.3437,-8.8593 -12.5156,-8.8593 -8.4375,0 -12.5156,7.0312 l -7.0313,12.0938 v 8.5781 q 7.7344,4.3593 21.0938,4.3593 15.3281,0 21.375,-5.9062 z m -48.9375,-47.8125 -23.9063,-3.6563 -0.4219,3.6563 z m -80.0156,-0.4219 Q 100.8281,223.5938 93.1641,218.5312 85.5,213.4688 77.625,213.4688 h -2.8125 q -0.4219,5.625 -0.4219,11.6718 v 5.625 z m -38.9532,0 q 0,-5.0625 -0.7031,-17.2968 -25.875,0 -32.2031,21.9374 17.8594,7.875 21.0937,7.875 6.75,0 10.5469,-7.4531 v -5.0625 z m -12.0937,32.3438 q 0,-12.0938 -7.0313,-13.0782 l -16.4531,-2.25 q -0.5625,1.4063 -0.5625,7.4532 0,7.3125 3.2344,15.1875 3.6562,8.8593 9.1406,12.0937 3.7969,-4.5 7.5938,-8.8594 4.0781,-5.625 4.0781,-10.5468 z m 10.8281,31.3594 v -23.9063 q -2.6719,1.6875 -3.9375,4.0781 L 51.75,289.5469 q 3.9375,3.9375 12.375,4.9219 z"
         id="path1437"
         inkscape:connector-curvature="0"
         style="stroke:none;fill:#ffffff" />
    </g>
  </g>
</svg>
