<?xml version="1.0" encoding="UTF-8" standalone="no"?>
<svg
   xmlns:dc="http://purl.org/dc/elements/1.1/"
   xmlns:cc="http://creativecommons.org/ns#"
   xmlns:rdf="http://www.w3.org/1999/02/22-rdf-syntax-ns#"
   xmlns:svg="http://www.w3.org/2000/svg"
   xmlns="http://www.w3.org/2000/svg"
   xmlns:sodipodi="http://sodipodi.sourceforge.net/DTD/sodipodi-0.dtd"
   xmlns:inkscape="http://www.inkscape.org/namespaces/inkscape"
   stroke-miterlimit="10"
   font-weight="normal"
   font-style="normal"
   font-size="12"
   version="1.1"
   id="svg9"
   sodipodi:docname="snow_capped_mountain.svg"
   width="483.89828"
   height="239.78976"
   style="font-style:normal;font-weight:normal;font-size:12px;font-family:Dialog;color-interpolation:auto;fill:#000000;fill-opacity:1;stroke:#000000;stroke-width:1;stroke-linecap:square;stroke-linejoin:miter;stroke-miterlimit:10;stroke-dasharray:none;stroke-dashoffset:0;stroke-opacity:1;color-rendering:auto;image-rendering:auto;shape-rendering:auto;text-rendering:auto"
   inkscape:version="0.92.4 (5da689c313, 2019-01-14)">
  <metadata
     id="metadata13">
    <rdf:RDF>
      <cc:Work
         rdf:about="">
        <dc:format>image/svg+xml</dc:format>
        <dc:type
           rdf:resource="http://purl.org/dc/dcmitype/StillImage" />
        <dc:title></dc:title>
      </cc:Work>
    </rdf:RDF>
  </metadata>
  <sodipodi:namedview
     pagecolor="#ffffff"
     bordercolor="#666666"
     borderopacity="1"
     objecttolerance="10"
     gridtolerance="10"
     guidetolerance="10"
     inkscape:pageopacity="0"
     inkscape:pageshadow="2"
     inkscape:window-width="1920"
     inkscape:window-height="986"
     id="namedview11"
     showgrid="false"
     fit-margin-top="0"
     fit-margin-left="0"
     fit-margin-right="0"
     fit-margin-bottom="0"
     inkscape:zoom="2.36"
     inkscape:cx="219.91525"
     inkscape:cy="117.04931"
     inkscape:window-x="-11"
     inkscape:window-y="-11"
     inkscape:window-maximized="1"
     inkscape:current-layer="svg9" />
  <!--Unicode Character 'SNOW CAPPED MOUNTAIN' (U+1F3D4)-->
  <defs
     id="genericDefs" />
  <g
     id="g822"
     transform="translate(145.76271,23.30508)">
    <g
       style="fill:#ffffff"
       transform="translate(-44.915254,-216.24258)"
       id="g7">
      <g
         style="fill:#ffffff"
         id="g5">
        <path
           style="fill:#ffffff;stroke:none"
           inkscape:connector-curvature="0"
           id="path3"
           d="M 288,427.2188 H 0 v -133.875 q 13.3594,0 21.2344,-6.4688 3.5156,-2.9531 9.1406,-11.6719 4.0781,-6.3281 8.1562,-6.3281 4.3594,0 13.2891,2.25 8.9297,2.25 13.9922,2.25 9.1406,0 24.4687,-20.8125 9.1407,-12.9375 27.4219,-38.6719 15.1875,-20.9531 23.4844,-20.9531 3.2344,0 10.8281,4.9219 7.5938,4.9218 11.5313,5.2031 5.9062,0.5625 16.0312,-1.6875 11.1094,-2.25 15.75,-2.25 10.2657,0 29.1094,24.3281 11.25,15.1875 34.0313,45.4219 18.9843,24.4688 29.5312,24.4688 z M 178.3125,203.9062 q -12.5156,2.3907 -19.6875,0 -1.9688,-0.7031 -7.5938,-4.5 -5.2031,-3.375 -6.3281,-3.375 -4.9219,0 -4.9219,4.2188 0,9 11.8126,9 10.125,0 26.7187,-5.3438 z m 69.75,59.3438 q 0,-2.5312 -0.9844,-5.625 -5.3437,-6.75 -19.2656,-25.3125 -11.5313,-15.75 -23.4844,-25.875 -0.4219,7.875 -11.8125,9 -1.4062,0.1406 -4.0781,0.1406 -3.375,0 -9.9844,-1.6172 -6.6093,-1.6171 -9.9843,-1.6171 -3.7969,0 -11.1797,1.3359 -7.3829,1.3359 -11.0391,1.3359 -2.8125,0 -5.7656,-0.4218 -6.3282,-0.9844 -6.3282,-8.0157 0,-3.7969 1.9688,-8.4375 -9.7031,6.8906 -22.2188,26.4375 -9,14.0625 -26.8593,37.6875 15.75,-16.4531 28.2656,-16.3125 7.875,0.1407 12.375,8.5781 1.8281,5.2032 5.7656,15.75 3.2344,8.4376 8.4375,8.5782 9.1406,0.2812 10.8282,-8.5782 0.9843,-5.4843 3.0937,-16.5937 4.0781,-9 18.5625,-9 5.2031,0 17.4375,7.3125 12.2344,7.3125 16.7344,7.1719 2.9531,-0.1407 2.9531,-3.5157 0,-2.25 -1.125,-6.6093 -1.125,-4.3594 -1.125,-6.6094 0,-4.9219 4.7812,-4.9219 4.5,0 14.2735,15.8203 9.7734,15.8203 14.9765,15.8203 4.7813,0 4.7813,-5.9062 z M 66.0938,275.9062 q -5.3438,0 -14.2032,-2.3203 -8.8594,-2.3203 -13.2187,-2.3203 -0.7031,6.8906 7.1719,7.875 6.8906,0.8438 20.25,-3.2344 z" />
      </g>
    </g>
    <path
       sodipodi:nodetypes="cccccccccccc"
       inkscape:connector-curvature="0"
       id="path816"
       d="m -44.915254,77.10122 -13.135594,27.09533 -33.050851,20.76271 -41.101691,36.86441 -11.86441,36.01695 -1.69491,17.37288 459.32203,1.27119 h 24.57627 L 274.57627,130.46774 257.62712,93.60333 243.08475,77.10122 Z"
       style="fill:#ffffff;fill-opacity:1;stroke:none;stroke-width:1px;stroke-linecap:butt;stroke-linejoin:miter;stroke-opacity:1" />
  </g>
</svg>
