<?xml version="1.0" encoding="UTF-8" standalone="no"?>
<svg
   xmlns:dc="http://purl.org/dc/elements/1.1/"
   xmlns:cc="http://creativecommons.org/ns#"
   xmlns:rdf="http://www.w3.org/1999/02/22-rdf-syntax-ns#"
   xmlns:svg="http://www.w3.org/2000/svg"
   xmlns="http://www.w3.org/2000/svg"
   xmlns:sodipodi="http://sodipodi.sourceforge.net/DTD/sodipodi-0.dtd"
   xmlns:inkscape="http://www.inkscape.org/namespaces/inkscape"
   stroke-miterlimit="10"
   font-weight="normal"
   font-style="normal"
   font-size="12"
   id="svg2"
   version="1.1"
   inkscape:version="0.92.4 (5da689c313, 2019-01-14)"
   sodipodi:docname="video_game.svg"
   width="84.72361"
   height="52.726475"
   style="font-style:normal;font-weight:normal;font-size:12px;font-family:Dialog;color-interpolation:auto;fill:#000000;fill-opacity:1;stroke:#000000;stroke-width:1;stroke-linecap:square;stroke-linejoin:miter;stroke-miterlimit:10;stroke-dasharray:none;stroke-dashoffset:0;stroke-opacity:1;color-rendering:auto;image-rendering:auto;shape-rendering:auto;text-rendering:auto">
  <metadata
     id="metadata13">
    <rdf:RDF>
      <cc:Work
         rdf:about="">
        <dc:format>image/svg+xml</dc:format>
        <dc:type
           rdf:resource="http://purl.org/dc/dcmitype/StillImage" />
        <dc:title />
      </cc:Work>
    </rdf:RDF>
  </metadata>
  <sodipodi:namedview
     pagecolor="#ffffff"
     bordercolor="#666666"
     borderopacity="1"
     objecttolerance="10"
     gridtolerance="10"
     guidetolerance="10"
     inkscape:pageopacity="0"
     inkscape:pageshadow="2"
     inkscape:window-width="1920"
     inkscape:window-height="986"
     id="namedview11"
     showgrid="false"
     fit-margin-top="0"
     fit-margin-left="0"
     fit-margin-right="0"
     fit-margin-bottom="0"
     inkscape:zoom="4.16"
     inkscape:cx="2.1707222"
     inkscape:cy="25.366645"
     inkscape:window-x="-11"
     inkscape:window-y="-11"
     inkscape:window-maximized="1"
     inkscape:current-layer="svg2" />
  <!--Unicode Character 'VIDEO GAME' (U+1F3AE)-->
  <defs
     id="genericDefs" />
  <g
     id="g5"
     transform="matrix(0.30582684,0,0,0.30582684,-3.5265505,-60.639713)"
     style="fill:#ffffff">
    <g
       id="g7"
       style="fill:#ffffff">
      <path
         d="m 288.5625,327.0938 q 0,15.1874 -2.3906,22.9218 -0.2813,0.8438 -3.7969,6.3282 -4.0781,6.3281 -4.9219,7.3124 -3.0937,4.0782 -6.3984,5.5547 -3.3047,1.4766 -12.0235,1.4766 l -4.0781,0 q -10.6875,0 -23.2031,-16.8047 -12.5156,-16.8047 -15.3281,-16.8047 -0.9844,0 -9,4.9219 -8.4375,5.0625 -12.375,5.7656 -2.5313,0.4219 -9.7031,0.4219 l -3.375,0 q -3.6563,0 -13.7813,-5.5547 -10.125,-5.5547 -18.1406,-5.5547 -7.4531,0 -17.4375,5.4844 -9.9844,5.4844 -14.3438,5.4844 -1.2656,0 -3.6562,0 -2.25,0.1406 -3.5156,0.1406 -9.4219,0 -18.2813,-5.5547 -8.8594,-5.5547 -9.1406,-5.5547 -4.5,0 -15.8907,17.4375 -10.4062,15.8906 -26.5781,15.8906 -9.7031,0 -11.9531,-1.125 -0.9844,-0.4218 -3.2344,-2.8124 Q 16.0312,356.3438 13.5,348.75 q -1.9688,-6.0469 -1.9688,-21.6562 0,-1.5469 0.3516,-4.5 0.3516,-2.9532 0.3516,-4.0782 2.6718,-49.3594 26.8594,-88.0312 0.5624,-0.8438 9.1406,-10.4063 4.2187,-5.625 14.625,-14.7656 3.2344,-1.8281 8.5781,-3.0937 4.5,-1.125 9,-2.1094 6.1875,-1.8282 9,-1.8282 9.2813,0 27.6328,2.25 18.3516,2.25 27.6328,2.25 2.25,0 6.8907,-0.1406 4.6406,0 6.8906,0 7.5937,0 22.5,-2.1094 14.9062,-2.1093 22.5,-2.1093 19.6875,0 33.75,6.8906 1.9687,0.9844 10.125,9.8437 4.9218,4.7813 13.6406,15.1876 0.7031,0.9843 7.0312,14.0624 20.5313,42.3282 20.5313,82.6876 z m -9.8437,-1.4063 q 0,-31.2187 -12.375,-63.4219 0,-0.1406 -9.5626,-17.4375 -1.9687,-4.5 -7.0312,-13.0781 -7.1719,-9.2812 -17.8594,-16.3125 -1.5468,-1.2656 -5.0625,-3.375 -8.2969,-3.7969 -18.5625,-3.7969 -11.1094,0 -37.125,2.9532 -9.2812,1.125 -14.0625,1.125 l -10.4062,0.1406 q -8.5781,0.1406 -24.75,-1.9688 -16.5938,-2.25 -24.6094,-2.25 -16.0313,0 -24.0469,3.7969 -11.8125,5.625 -22.5,19.6875 -0.1406,0.1406 -8.4375,15.3281 -3.2343,5.2031 -8.5781,16.1719 -9.5625,26.8594 -11.1094,49.3594 -0.1406,1.5468 -0.7031,6.6094 -0.5625,4.2187 -0.5625,6.75 0,33.6093 21.2344,33.6093 4.5,0 8.8594,-3.2343 2.25,-1.6876 14.7656,-18.2813 9.2812,-12.0937 18.7031,-12.0937 3.7969,0 9.5625,4.3593 6.75,4.9219 9.2812,5.7657 3.0938,0.9843 10.125,0.9843 6.3282,0 11.1094,-2.25 4.7813,-2.25 9.5625,-4.5 5.7657,-2.1093 15.1875,-2.1093 9.5625,0 15.6094,2.1093 5.0625,2.25 10.0547,4.5 4.9922,2.25 11.1797,2.25 8.1562,0 11.5312,-1.4062 1.8282,-0.7031 8.2969,-5.7657 5.3437,-3.9374 8.8594,-3.9374 7.5937,0 15.4687,8.0156 2.1094,2.25 11.3906,14.3437 2.25,3.2344 6.4688,8.0157 4.2188,3.2343 10.5469,3.2343 3.9375,0 6.539,-1.0547 2.6016,-1.0546 6.1172,-5.1328 3.5157,-4.0781 4.3594,-7.0312 2.5313,-8.4375 2.5313,-20.6719 z M 260.2969,259.875 q 0,4.9219 -3.586,8.2969 -3.5859,3.375 -8.6484,3.375 -11.6719,0 -11.6719,-11.6719 0,-11.6719 11.6719,-11.6719 5.0625,0 8.6484,3.375 3.586,3.375 3.586,8.2969 z m -19.4063,-18.1406 q 0,11.9531 -11.6718,11.9531 -4.9219,0 -8.5079,-3.5156 -3.5859,-3.5157 -3.5859,-8.4375 0,-4.7813 3.6562,-8.2969 3.6563,-3.5156 8.4376,-3.5156 11.6718,0 11.6718,11.8125 z m 0,36.4218 q 0,4.9219 -3.375,8.3672 -3.375,3.4454 -8.2968,3.4454 -4.9219,0 -8.5079,-3.4454 -3.5859,-3.4453 -3.5859,-8.3672 0,-4.7812 3.6562,-8.3671 3.6563,-3.586 8.4376,-3.586 11.6718,0 11.6718,11.9531 z M 222.0469,259.875 q 0,11.6719 -11.8125,11.6719 -4.9219,0 -8.4375,-3.375 -3.5157,-3.375 -3.5157,-8.2969 0,-4.9219 3.4454,-8.2969 3.4453,-3.375 8.5078,-3.375 11.8125,0 11.8125,11.6719 z m -35.8594,16.1719 q -11.8125,7.1719 -11.9531,7.1719 l -8.5782,0 0,-17.8594 8.5782,0 q 1.125,0 11.9531,7.1718 l 0,3.5157 z m 28.2656,28.8281 q 0,8.8594 -5.9765,14.6953 -5.9766,5.8359 -14.836,5.8359 -8.8594,0 -14.9062,-5.9765 -6.0469,-5.9766 -6.0469,-14.8359 0,-8.7188 6.1172,-14.5547 6.1172,-5.836 14.8359,-5.836 8.8594,0 14.836,5.9063 5.9765,5.9062 5.9765,14.7656 z m -53.0156,-9.1406 -23.0625,0 0,-14.2032 23.0625,0 0,14.2032 z m -27.1406,-12.5156 -8.4375,0 q 0.2812,0 -12.375,-7.1719 l 0,-3.5157 q 12.7968,-7.1718 12.7968,-7.1718 l 8.0157,0 0,17.8594 z M 95.4844,255.2344 q 0,10.8281 -7.1719,18.2812 -7.1719,7.4532 -18,7.4532 -10.4063,0 -17.7187,-7.6641 -7.3126,-7.6641 -7.3126,-18.0703 0,-10.5469 7.2422,-17.9297 7.2422,-7.3828 17.7891,-7.3828 10.6875,0 17.9297,7.3125 7.2422,7.3125 7.2422,18 z m 31.9218,49.6406 q 0,8.7188 -5.9765,14.625 -5.9766,5.9062 -14.6953,5.9062 -9,0 -15.0469,-5.9062 -6.0469,-5.9062 -6.0469,-14.9062 0,-8.8594 6.1172,-14.625 6.1172,-5.7657 14.9766,-5.7657 8.7187,0 14.6953,5.9766 5.9765,5.9765 5.9765,14.6953 z m 129.6563,-45 q 0,-8.8594 -9,-8.8594 -8.8594,0 -8.8594,8.8594 0,9 8.8594,9 9,0 9,-9 z m -18.8437,-18.1406 q 0,-9.1406 -9.1407,-9.1406 -8.7187,0 -8.7187,9.1406 0,9.2812 8.8594,9.2812 9,0 9,-9.2812 z m 0,36.4218 q 0,-9.2812 -9,-9.2812 -8.8594,0 -8.8594,9.2812 0,9.1407 8.7187,9.1407 9.1407,0 9.1407,-9.1407 z M 219.375,259.875 q 0,-8.8594 -9.1406,-8.8594 -9.2813,0 -9.2813,8.8594 0,9 9.2813,9 9.1406,0 9.1406,-9 z M 182.5312,274.5 q -8.8593,-6.4688 -9.7031,-6.4688 l -4.0781,0 0,12.0938 4.6406,0 q 0.8438,0 9.1406,-5.625 z m 17.1563,18.9844 0,-2.9532 q -1.8281,-2.25 -5.625,-2.25 -3.7969,0 -8.0156,1.8282 -5.2031,2.25 -5.2031,5.4844 0,2.5312 3.375,2.5312 0.7031,0 5.9062,-2.1094 3.6562,0.1406 9.5625,-2.5312 z m 9.8437,18.1406 q 0,1.4062 -0.5624,-2.8125 -8.0157,9.9844 -22.3594,10.125 6.3281,2.1094 8.1562,2.1094 8.1563,0 11.8125,-4.2188 2.9531,-3.375 2.9531,-5.2031 z m -51.1874,-18.1406 0,-8.8594 -16.5938,0 0,8.8594 16.5938,0 z m -26.7188,-13.3594 0,-12.0938 -4.5,0 L 117,274.5 q 9.5625,5.625 9.7031,5.625 l 4.9219,0 z m -42.4688,-18.4219 0,-12.6562 -12.5156,0 0,-11.9531 -12.9375,0 0,12.0937 -11.6719,0 0,12.6563 11.6719,0 0,12.375 13.0781,0 0,-12.5157 12.375,0 z m 22.9219,30.5157 q 0,-3.9376 -6.4687,-3.9376 -3.7969,0 -7.7344,2.1094 -4.6406,2.3906 -4.6406,5.9063 0,0.9843 1.125,1.8281 l 3.9375,0 q 0.7031,0 2.25,-0.9844 1.5469,-0.9844 1.9687,-1.125 2.9532,-0.2812 5.7656,-0.5625 3.7969,-0.4219 3.7969,-3.2343 z m 9.8438,19.6874 0,-3.0937 q -7.3125,10.2656 -20.25,10.2656 -1.2657,0 -2.5313,-0.1406 6.1875,2.1094 8.0156,2.1094 8.2969,0 11.9532,-4.2188 2.8125,-3.2343 2.8125,-4.9219 z M 256.2188,259.875 q 0,2.3906 -2.0391,5.0625 -2.0391,2.6719 -4.4297,2.6719 -1.5469,0 -1.5469,-1.4063 l 0.8438,0 q 2.3906,0 4.289,-3.2343 1.8985,-3.2344 1.6172,-5.7657 1.2657,2.25 1.2657,2.6719 z m -19.2657,-17.4375 q 0,2.3906 -1.9687,4.5703 -1.9688,2.1797 -4.3594,2.1797 0.7031,0 -1.4062,-0.7031 0.2812,0 0.7031,0.1406 2.25,0 4.3593,-3.5156 2.1094,-3.5156 1.8282,-5.7656 0.8437,1.6874 0.8437,3.0937 z m 0,36.2813 q 0,2.1093 -1.9687,4.4296 -1.9688,2.3204 -4.0782,2.3204 0.8438,0 -1.6874,-0.5626 0.2812,0 0.7031,0.1407 2.25,0 4.3593,-3.586 2.1094,-3.5859 1.8282,-5.8359 0.8437,1.6875 0.8437,3.0938 z m -18.8437,-18.2813 q 0,2.1094 -2.0391,4.6406 -2.0391,2.5313 -4.0078,2.5313 -1.5469,0 -1.5469,-1.4063 2.3906,0 4.5,-2.9531 2.1094,-2.9531 2.25,-5.4844 0.8438,1.5469 0.8438,2.6719 z"
         id="path9"
         inkscape:connector-curvature="0"
         style="stroke:none;fill:#ffffff" />
    </g>
  </g>
</svg>
