<?xml version="1.0" encoding="UTF-8" standalone="no"?>
<svg
   xmlns:dc="http://purl.org/dc/elements/1.1/"
   xmlns:cc="http://creativecommons.org/ns#"
   xmlns:rdf="http://www.w3.org/1999/02/22-rdf-syntax-ns#"
   xmlns:svg="http://www.w3.org/2000/svg"
   xmlns="http://www.w3.org/2000/svg"
   xmlns:sodipodi="http://sodipodi.sourceforge.net/DTD/sodipodi-0.dtd"
   xmlns:inkscape="http://www.inkscape.org/namespaces/inkscape"
   stroke-miterlimit="10"
   font-weight="normal"
   font-style="normal"
   font-size="12"
   id="svg4143"
   version="1.1"
   inkscape:version="0.91 r13725"
   sodipodi:docname="books.svg"
   width="89.502693"
   height="90.161476"
   style="font-style:normal;font-weight:normal;font-size:12px;font-family:Dialog;color-interpolation:auto;fill:#000000;fill-opacity:1;stroke:#000000;stroke-width:1;stroke-linecap:square;stroke-linejoin:miter;stroke-miterlimit:10;stroke-dasharray:none;stroke-dashoffset:0;stroke-opacity:1;color-rendering:auto;image-rendering:auto;shape-rendering:auto;text-rendering:auto">
  <metadata
     id="metadata4154">
    <rdf:RDF>
      <cc:Work
         rdf:about="">
        <dc:format>image/svg+xml</dc:format>
        <dc:type
           rdf:resource="http://purl.org/dc/dcmitype/StillImage" />
        <dc:title></dc:title>
      </cc:Work>
    </rdf:RDF>
  </metadata>
  <sodipodi:namedview
     pagecolor="#ffffff"
     bordercolor="#666666"
     borderopacity="1"
     objecttolerance="10"
     gridtolerance="10"
     guidetolerance="10"
     inkscape:pageopacity="0"
     inkscape:pageshadow="2"
     inkscape:window-width="1440"
     inkscape:window-height="837"
     id="namedview4152"
     showgrid="false"
     fit-margin-top="0"
     fit-margin-left="0"
     fit-margin-right="0"
     fit-margin-bottom="0"
     inkscape:zoom="2.36"
     inkscape:cx="44.95609"
     inkscape:cy="45.189323"
     inkscape:window-x="-8"
     inkscape:window-y="-8"
     inkscape:window-maximized="1"
     inkscape:current-layer="svg4143" />
  <!--Unicode Character 'BOOKS' (U+1F4DA)-->
  <defs
     id="genericDefs" />
  <g
     id="g4146"
     transform="matrix(0.33462855,0,0,0.33462855,-3.1057545,-50.304074)">
    <g
       id="g4148">
      <path
         d="m 276.75,270 q 0,15.75 -6.4688,31.2188 l -24.1874,0 7.875,8.0156 q 2.6718,2.8125 4.6406,13.9218 1.4062,9 1.4062,15.4688 0,8.5781 -1.9687,17.1562 l 3.2343,3.375 q 2.6719,2.8126 4.5,13.9219 1.5469,9.1407 1.5469,15.4688 0,15.75 -6.4687,31.2187 l -170.7188,0 -73.5468,-91.8281 0,-8.5781 q 5.3437,-3.2344 5.3437,-20.8125 0,-2.6719 -0.1406,-4.7813 l -12.5157,-15.75 0,-8.4375 q 5.3438,-3.2343 5.3438,-20.9531 0,-15.0469 -5.3438,-21.0938 l 0,-8.5781 24.3282,0 -7.5938,-9.5625 0,-8.4375 q 5.3438,-3.2343 5.3438,-20.9531 0,-15.0469 -5.3438,-21.0938 l 0,-8.5781 155.9532,0 88.875,90.2813 Q 276.75,246.6562 276.75,270 Z m -21.7969,-29.1094 -77.7656,-79.1718 -133.1719,0 65.25,79.1718 145.6875,0 z M 265.5,269.8594 q 0,-11.25 -2.5312,-18.4219 l -150.4688,0 q 2.3906,6.0469 2.3906,18.1406 0,13.5 -2.3906,20.25 l 150.1875,0 Q 265.5,281.8125 265.5,269.8594 Z m -27.2812,39.6562 -8.1563,-8.2968 -130.5,0 -56.8125,-70.875 -15.4688,0 65.25,79.1718 145.6876,0 z M 103.3594,271.5469 q 0,-20.25 -4.2188,-25.3125 L 39.2344,173.5312 q 1.8281,6.4688 1.8281,13.7813 0,10.2656 -3.6563,18.4219 l 63.7032,79.1718 q 2.25,-2.3906 2.25,-13.3593 z m 145.4062,66.9375 q 0,-11.25 -2.5312,-18.4219 l -150.6094,0 q 2.5312,6.4687 2.5312,18.1406 0,13.0781 -2.5312,20.25 l 150.1875,0 q 2.9531,-9 2.9531,-19.9687 z m 7.3125,49.7812 q 0,-11.25 -2.5312,-18.4218 l -150.6094,0 q 2.5313,6.4687 2.5313,18.1406 0,13.2187 -2.5313,20.3906 l 150.1875,0 q 2.9531,-8.4375 2.9531,-20.1094 z M 86.625,340.1719 Q 86.625,320.3438 82.2656,315 L 22.5,242.1562 q 1.8281,6.4688 1.8281,13.7813 0,10.2656 -3.6562,18.4219 l 63.7031,79.1718 q 2.25,-2.3906 2.25,-13.3593 z m 7.3125,49.9219 q 0,-12.0938 -2.1094,-20.25 l -9,0 L 31.6406,306 q 0,10.2656 -3.6562,18.2812 l 63.7031,79.1719 q 2.25,-2.3906 2.25,-13.3593 z m 77.9063,-216.2813 q 0,8.1563 -8.1563,8.1563 -8.1563,0 -8.1563,-8.1563 0,-8.1563 8.1563,-8.1563 8.1563,0 8.1563,8.1563 z m 24.75,26.8594 q 0,8.1562 -8.1563,8.1562 -8.1563,0 -8.1563,-8.1562 0,-8.1563 8.1563,-8.1563 8.1563,0 8.1563,8.1563 z m 25.875,27.1406 q 0,8.1563 -8.1563,8.1563 -8.1563,0 -8.1563,-8.1563 0,-8.1563 8.1563,-8.1563 8.1563,0 8.1563,8.1563 z m -80.1563,-54 q 0,8.1563 -8.1563,8.1563 -8.1562,0 -8.1562,-8.1563 0,-8.1563 8.1562,-8.1563 8.1563,0 8.1563,8.1563 z m 24.75,26.8594 q 0,8.1562 -8.1563,8.1562 -8.1562,0 -8.1562,-8.1562 0,-8.1563 8.1562,-8.1563 8.1563,0 8.1563,8.1563 z m 25.875,27.1406 q 0,8.1563 -8.1563,8.1563 -8.1562,0 -8.1562,-8.1563 0,-8.1563 8.1562,-8.1563 8.1563,0 8.1563,8.1563 z m -80.1563,-54 q 0,8.1563 -8.1562,8.1563 -8.1562,0 -8.1562,-8.1563 0,-8.1563 8.1562,-8.1563 8.1562,0 8.1562,8.1563 z m 24.75,26.8594 q 0,8.1562 -8.1562,8.1562 -8.1562,0 -8.1562,-8.1562 0,-8.1563 8.1562,-8.1563 8.1562,0 8.1562,8.1563 z m 25.875,27.1406 q 0,8.1563 -8.1562,8.1563 -8.1562,0 -8.1562,-8.1563 0,-8.1563 8.1562,-8.1563 8.1562,0 8.1562,8.1563 z m -80.1562,-54 q 0,8.1563 -8.1562,8.1563 -8.1563,0 -8.1563,-8.1563 0,-8.1563 8.1563,-8.1563 8.1562,0 8.1562,8.1563 z M 108,200.6719 q 0,8.1562 -8.1562,8.1562 -8.1563,0 -8.1563,-8.1562 0,-8.1563 8.1563,-8.1563 8.1562,0 8.1562,8.1563 z m 25.875,27.1406 q 0,8.1563 -8.1562,8.1563 -8.1563,0 -8.1563,-8.1563 0,-8.1563 8.1563,-8.1563 8.1562,0 8.1562,8.1563 z"
         id="path4150"
         inkscape:connector-curvature="0"
         style="stroke:none" />
    </g>
  </g>
</svg>
