<svg xmlns="http://www.w3.org/2000/svg" class="fun-rotate" width="150" viewBox="0 0 207.82907 180.77462">
<defs>
  <path id="text-curve-x" d="M 162.50347,90.527504 A 56.311291,56.311291 0 0 1 106.19218,146.83879 56.311291,56.311291 0 0 1 49.880886,90.527504 56.311291,56.311291 0 0 1 106.19218,34.216213 56.311291,56.311291 0 0 1 162.50347,90.527504"/>
</defs>   
  <path fill="#f3699c" d="M 0,47.005947 H 207.82907 V 128.51593 H 0 Z M 194.30185,90.387306 A 90.387306,90.387306 0 0 1 103.91454,180.77461 90.387306,90.387306 0 0 1 13.527237,90.387306 90.387306,90.387306 0 0 1 103.91454,0 90.387306,90.387306 0 0 1 194.30185,90.387306" data-name="pink-glow"/>
  <path fill="#ffff7d" d="M 104.12129,13.055286 c -43.316343,3e-6 -78.431218,35.114877 -78.431219,78.431221 3e-6,43.316353 35.114876,78.431223 78.431219,78.431223 43.31634,0 78.43123,-35.11487 78.43123,-78.431223 0,-43.316348 -35.11489,-78.431222 -78.43123,-78.431221 z M 106.016,45.27927 a 45.582142,45.582142 0 0 1 0.18779,0 45.582142,45.582142 0 0 1 45.58219,45.582208 A 45.582142,45.582142 0 0 1 106.20379,136.44369 45.582142,45.582142 0 0 1 60.621576,90.861478 45.582142,45.582142 0 0 1 106.016,45.27927 Z" data-name="yellow"/>
  <path d="M 103.9145,9.747821 c -33.526205,10e-7 -62.329288,20.523828 -74.526263,49.66794 H 12.407395 v 4.638272 54.054527 h 15.614254 c 11.299159,30.97676 41.047698,53.14528 75.892851,53.14528 34.8426,1e-5 64.56609,-22.17047 75.86038,-53.14528 H 195.4189 V 59.415761 H 178.411 C 166.21946,30.27386 137.43803,9.747818 103.9145,9.747821 Z m 0,5.027952 c 30.73911,0 57.18064,18.32671 69.04639,44.639988 h -32.40836 c -8.54592,-10.043668 -21.25116,-16.434204 -35.43652,-16.434205 -14.190855,0 -26.927819,6.390986 -35.501449,16.434205 H 34.868109 C 46.733866,33.102484 73.175401,14.775775 103.9145,14.775773 Z m 1.20151,33.742484 c 10.76117,0 20.55452,4.13452 27.88646,10.897504 h -7.24155 v -1.518127 c -1.782,-1.176708 -3.67178,-2.205023 -5.65036,-3.06873 v 4.586857 h -5.46093 v -6.483839 c -1.83165,-0.480617 -3.71912,-0.827053 -5.65035,-1.028321 v 7.51216 h -5.88307 V 51.74394 c -1.92555,0.09567 -3.81041,0.336309 -5.647659,0.709 v 6.962821 h -5.755897 v -5.303974 c -1.967918,0.741865 -3.857222,1.643788 -5.650357,2.689872 v 2.614102 H 77.229554 C 84.562137,52.652777 94.354839,48.518255 105.11601,48.518257 Z M 33.404102,118.10856 h 34.741041 c 8.548404,11.08045 21.944791,18.24458 36.970867,18.24458 15.0207,0 28.38574,-7.16282 36.90593,-18.24458 h 32.40296 c -11.03678,28.16302 -38.43455,48.11733 -70.5104,48.11733 -32.075842,0 -59.473625,-19.95431 -70.510398,-48.11733 z m 41.990711,0 h 10.667484 v 3.66677 c 1.793135,1.04618 3.682439,1.94795 5.650357,2.68986 v -6.35663 h 5.755897 v 8.01549 c 1.837249,0.37274 3.722109,0.61062 5.647659,0.70629 v -8.72178 h 5.88307 v 8.56213 c 1.93119,-0.20131 3.81873,-0.54766 5.65035,-1.02833 v -7.5338 h 5.46093 v 5.63682 c 1.97858,-0.86381 3.86836,-1.89191 5.65036,-3.06872 v -2.5681 h 9.07629 c -7.49037,7.8255 -18.03279,12.70517 -29.7212,12.70517 -11.688092,0 -22.23016,-4.88003 -29.721197,-12.70517 z" data-name="black"/>
  <text style="word-spacing:5px;letter-spacing:-1px;font-weight:bold;font-size:14.779px;text-align:center;text-anchor:middle;text-transform: uppercase" y="151.07138" x="103.92536" data-name="lower-text">Hungary</text>
  <text y="0" x="66.695702" transform="rotate(90,106.14419,88.244399)" data-name="upper-text"><textPath href="#text-curve-x" style="word-spacing:5px;letter-spacing:-2px;font-weight:bold;font-size:14.779px;text-align:center;text-transform:uppercase;text-anchor:middle" startOffset="32%">GitHub rank*</textPath></text>
  <text x="102.99676" y="105.34519" data-name="main-text">
   <tspan id="rank" x="102.99676" y="105.34519" fill="#ffff7d" style="font-weight:bold;font-size:50.8px;text-align:center;text-anchor:middle;text-transform:uppercase;">--</tspan>
	 <tspan id="rankSubText" fill="#ffff7d">st</tspan>
  </text>
</svg>