<?xml version="1.0" encoding="UTF-8" standalone="no"?>
<svg
   xmlns:dc="http://purl.org/dc/elements/1.1/"
   xmlns:cc="http://creativecommons.org/ns#"
   xmlns:rdf="http://www.w3.org/1999/02/22-rdf-syntax-ns#"
   xmlns:svg="http://www.w3.org/2000/svg"
   xmlns="http://www.w3.org/2000/svg"
   xmlns:sodipodi="http://sodipodi.sourceforge.net/DTD/sodipodi-0.dtd"
   xmlns:inkscape="http://www.inkscape.org/namespaces/inkscape"
   stroke-miterlimit="10"
   font-weight="normal"
   font-style="normal"
   font-size="12"
   id="svg4648"
   version="1.1"
   inkscape:version="0.91 r13725"
   sodipodi:docname="guitar.svg"
   width="98.186356"
   height="98.237137"
   style="font-style:normal;font-weight:normal;font-size:12px;font-family:Dialog;color-interpolation:auto;fill:#000000;fill-opacity:1;stroke:#000000;stroke-width:1;stroke-linecap:square;stroke-linejoin:miter;stroke-miterlimit:10;stroke-dasharray:none;stroke-dashoffset:0;stroke-opacity:1;color-rendering:auto;image-rendering:auto;shape-rendering:auto;text-rendering:auto">
  <metadata
     id="metadata4659">
    <rdf:RDF>
      <cc:Work
         rdf:about="">
        <dc:format>image/svg+xml</dc:format>
        <dc:type
           rdf:resource="http://purl.org/dc/dcmitype/StillImage" />
        <dc:title></dc:title>
      </cc:Work>
    </rdf:RDF>
  </metadata>
  <sodipodi:namedview
     pagecolor="#ffffff"
     bordercolor="#666666"
     borderopacity="1"
     objecttolerance="10"
     gridtolerance="10"
     guidetolerance="10"
     inkscape:pageopacity="0"
     inkscape:pageshadow="2"
     inkscape:window-width="1440"
     inkscape:window-height="837"
     id="namedview4657"
     showgrid="false"
     fit-margin-top="0"
     fit-margin-left="0"
     fit-margin-right="0"
     fit-margin-bottom="0"
     inkscape:zoom="2.36"
     inkscape:cx="48.214562"
     inkscape:cy="49.715333"
     inkscape:window-x="-8"
     inkscape:window-y="-8"
     inkscape:window-maximized="1"
     inkscape:current-layer="svg4648" />
  <!--Unicode Character 'GUITAR' (U+1F3B8)-->
  <defs
     id="genericDefs" />
  <g
     id="g4651"
     transform="matrix(0.36120738,0,0,0.36120738,-4.1651545,-52.877365)">
    <g
       id="g4653">
      <path
         d="m 283.3594,164.6719 -9.8438,10.6875 q 0.8438,0.9844 1.8282,0.9844 1.125,0 1.9687,-0.8438 2.3906,2.3906 2.3906,3.5156 0,0.9844 -1.5469,2.7422 -1.5468,1.7578 -2.5312,1.7578 -1.9688,0 -2.3906,-2.8828 -0.4219,-2.8828 -1.8282,-2.8828 -0.4218,0 -5.7656,5.2031 0.1406,1.8281 2.9532,2.25 2.8124,0.4219 2.8124,2.5313 0,4.0781 -3.9374,4.0781 -2.3907,0 -2.3907,-3.0937 0,-1.5469 -0.9843,-2.5313 -2.25,2.25 -6.8907,6.75 1.8281,1.9687 2.5313,1.9687 0.4218,0 0.6328,-0.4218 0.2109,-0.4219 0.6328,-0.4219 1.2656,0 2.8125,3.0937 0,1.125 -1.6172,2.7422 -1.6172,1.6172 -2.7422,1.6172 -1.2656,0 -2.5312,-1.4062 l 0,-0.2813 q 0,-0.2812 0.1406,-0.7734 0.1406,-0.4922 0.1406,-0.7735 0,-0.5624 -1.9687,-2.3906 l -1.2656,2.5313 q -4.2188,-1.6875 -6.6094,-1.6875 -0.7032,0 -2.1094,0.6328 Q 243.8438,198 243.1406,198 243,198 232.1719,186.8906 q 0.9843,-3.0937 0.9843,-5.625 0,-3.2344 -1.5468,-5.0625 1.6875,-0.8437 2.6718,-1.8281 -0.9843,-1.8281 -3.164,-1.8281 -2.1797,0 -2.1797,-2.1094 0,-1.5469 2.9531,-4.6406 1.5469,1.5469 3.6563,2.3906 -0.4219,0.7031 -0.4219,1.5469 0,2.1094 2.3906,3.0937 l 6.4688,-5.9062 q -0.8438,-2.3907 -1.5469,-2.3907 -0.2813,0 -0.7734,0.211 -0.4922,0.2109 -0.7735,0.2109 -2.25,0 -2.25,-2.3906 0,-4.2187 4.6406,-4.2187 1.6876,0 1.6876,4.2187 l 0,0.2813 q 0.8437,1.2656 1.8281,1.6874 1.6875,-1.2656 6.0469,-5.625 -0.5626,-2.3906 -4.6407,-2.3906 -1.5469,0 -1.5469,-1.9687 0,-1.125 1.6172,-2.8828 1.6172,-1.7579 2.7422,-1.7579 0.8438,0 3.0938,2.3907 -0.8438,0.8437 -0.8438,1.9687 0,0.2813 1.9688,2.25 l 9.7031,-10.125 q 1.2656,2.8125 4.3594,8.4375 2.1093,3.2344 6.4687,5.625 7.0313,3.7969 7.5938,4.2188 z m -43.3125,35.2969 q -8.0157,8.5781 -59.2031,63.2812 -9.8438,9.9844 -28.6876,30.9375 -3.9374,4.7813 -3.9374,9 0,7.4531 7.3124,7.4531 2.6719,0 7.3829,-3.5156 4.7109,-3.5156 7.1015,-3.5156 2.5313,0 4.9219,3.5859 2.3906,3.5859 2.3906,6.2578 0,4.0781 -4.2187,12.5157 -3.5156,6.8906 -12.375,11.9531 -7.5938,4.0781 -15.3282,8.1562 -5.0624,3.375 -6.3281,9.4219 -0.5625,9.5625 -5.2031,27.8438 -0.9844,1.6874 -2.8125,4.9218 -9.9844,17.5782 -18.7031,23.4844 -9.9844,6.6094 -29.25,6.6094 -2.3906,0 -12.2344,-1.9688 -9.8438,-1.9687 -11.8125,-2.9531 0,0 -9.7031,-7.3125 -24.6094,-18.5625 -33.0469,-34.5938 -4.7813,-9 -4.7813,-35.1562 0,-15.75 15.4688,-28.9688 13.7812,-11.6718 30.375,-14.625 6.8906,-0.7031 13.7812,-1.4062 7.4532,-1.2656 11.9532,-6.75 2.3906,-2.8125 7.875,-15.3281 3.6562,-8.4375 12.6562,-12.7969 7.5938,-3.6562 12.7969,-3.6562 2.9531,0 9.4219,5.7656 0.2812,0.7031 0.2812,2.1094 0,2.3906 -3.3047,6.6093 -3.3047,4.2188 -3.3047,7.3125 0,1.4063 2.1094,5.9063 2.9532,0.9843 5.0625,0.9843 4.5,0 9.1407,-4.0781 19.2656,-16.7343 47.25,-43.3125 44.8593,-42.4687 46.5468,-44.0156 4.0782,3.5156 10.4063,9.8438 z m 20.25,-37.4063 q -1.6875,-1.6875 -3.375,-2.5313 -1.4063,1.2657 -1.4063,2.5313 0,1.9687 2.1094,1.9687 0.7031,0 2.6719,-1.9687 z M 270,172.8281 q 0,0 -1.8281,-3.5156 -2.5313,1.8281 -2.5313,2.9531 0,2.8125 1.9688,2.8125 2.3906,0 2.3906,-2.25 z m -7.875,8.1563 q -0.8438,-1.125 -2.9531,-2.8125 -1.5469,2.9531 -1.5469,2.6719 0,0.5624 0.4922,1.1953 0.4922,0.6328 0.4922,0.914 l 1.9687,0 q 0.7031,-0.5625 1.5469,-1.9687 z m -10.6875,-10.6875 q -0.9844,-0.8438 -3.2344,-2.25 -1.125,1.125 -1.125,1.9687 0,0.5625 0.4922,1.336 0.4922,0.7734 0.4922,1.0546 l 1.9687,0 q 1.4063,-1.2656 1.4063,-2.1093 z m 2.25,20.6719 q 0,-2.25 -2.3906,-2.25 -0.8438,0 -1.9688,1.125 l 0,2.3906 q 2.1094,0.9844 3.375,0.9844 0.9844,-0.9844 0.9844,-2.25 z m -12.7969,-11.1094 q 0,-0.5625 -0.2109,-1.6875 -0.2109,-1.125 -0.2109,-1.6875 l -3.0938,0 q 0,0.2812 -0.2109,0.8437 -0.211,0.5625 -0.211,0.8438 0,2.25 2.25,2.25 1.125,0 1.6875,-0.5625 z M 215.7188,216 213.75,213.8906 211.7812,216 q 0.7032,0.8438 2.5313,1.8281 0,-0.4219 1.4063,-1.8281 z m -15.4688,14.9062 -0.9844,-0.9843 -1.5468,0 q -0.7032,0.4219 -1.4063,1.5469 l 2.3906,2.3906 1.5469,-2.9532 z m -11.9531,12.375 q -0.7031,-0.7031 -1.9688,-1.5468 -1.9687,1.9687 -1.9687,2.1094 0.8437,0.7031 2.5312,1.4062 0.7032,-0.7031 1.4063,-1.9688 z m -11.3907,12.5157 q -0.8437,-0.7031 -2.3906,-2.1094 -0.4218,0.7031 -1.5468,1.9687 0.7031,0.7032 1.9687,1.5469 0.7031,-0.7031 1.9687,-1.4062 z m -10.125,18.4219 q -0.8437,-0.5626 -2.5312,-1.9688 -1.5469,1.5469 -1.5469,2.5312 1.4063,1.4063 2.1094,1.4063 l 1.9687,-1.9687 z M 157.5,265.3594 q -0.4219,-0.7032 -1.5469,-1.9688 -1.125,0.5625 -2.5312,1.9688 0.8437,0.9844 2.5312,1.9687 0.4219,-0.7031 1.5469,-1.9687 z m -8.4375,17.2968 q -0.4219,-0.5624 -0.9844,-1.9687 -2.1093,0.9844 -2.1093,1.9687 0.9843,0.9844 2.1093,0.9844 l 0.9844,-0.9844 z m -7.0313,7.0313 q -1.2656,-1.9687 -2.5312,-1.9687 l -1.5469,1.5468 2.1094,1.9688 q 0.7031,-0.4219 1.9687,-1.5469 z m -5.3437,5.7656 q -1.5469,-1.5469 -2.3906,-1.5469 -1.9688,0 -1.9688,1.5469 0.7031,0.7031 1.9688,1.5469 0.8437,-0.7031 2.3906,-1.5469 z m -6.1875,5.7657 q -0.8438,-0.9844 -2.5312,-1.9688 -0.7032,0.7031 -1.4063,1.9688 1.4063,1.4062 2.1094,1.4062 0.7031,-0.4219 1.8281,-1.4062 z m 37.5469,14.0624 0,-2.8124 q -9.4219,6.6093 -12.5157,6.6093 -3.9374,0 -8.7187,-3.6562 -6.1875,-4.6407 -5.3437,-11.3907 -8.7188,8.8594 -10.2657,8.8594 -2.1093,0 -8.4375,-5.9765 -6.3281,-5.9766 -6.3281,-7.9453 0,-1.125 9,-11.1094 -5.9063,0.1406 -10.125,-3.6563 -4.2187,-3.7969 -4.2187,-9.5625 0,-4.2187 5.7656,-12.5156 l -1.9688,0 q -6.6094,0 -12.9375,7.7344 -1.8281,4.3594 -6.0469,13.0781 -5.7656,10.5469 -10.2656,13.5 -7.0312,4.5 -11.5312,4.5 l -11.25,0 q -5.2032,0 -12.6563,3.6563 -29.25,14.3437 -29.25,42.3281 0,10.125 5.4844,20.9531 0.8437,1.8281 10.8281,12.5156 5.7656,6.4688 18.7032,18.2813 1.6874,1.5469 5.3437,4.0781 1.2656,0.7031 10.5469,3.0938 9.2812,2.3906 10.6875,2.3906 15.6093,0 24.8906,-6.3282 7.3125,-4.9218 13.3594,-15.6093 5.9062,-10.125 7.3125,-19.2657 0,-6.4687 2.5312,-18.9843 4.3594,-10.6875 18.2813,-15.1875 6.0469,-1.9688 11.9531,-6.6094 7.1719,-5.7656 7.1719,-10.9688 z m -37.9688,6.4688 q 0,1.6875 -4.7109,6.75 -4.711,5.0625 -6.3984,5.0625 -1.2657,0 -22.3594,-22.0781 -0.1406,-0.4219 -0.1406,-1.2656 0,-1.5469 4.6406,-6.0469 4.6406,-4.5 6.1875,-4.5 1.4062,0 12.0937,10.4765 10.6875,10.4766 10.6875,11.6016 z m -25.5937,25.7344 q 0,1.5468 -4.8516,6.6094 -4.8516,5.0624 -6.3984,5.0624 -1.5469,0 -5.3438,-3.9374 l -16.875,-17.2969 q -0.1406,-0.5625 -0.1406,-1.6875 0,-1.5469 4.5,-6.2578 4.5,-4.711 5.9062,-4.711 1.6876,0 12.4454,10.336 10.7578,10.3359 10.7578,11.8828 z M 88.5938,363.375 q 0,0.5625 -7.5938,7.5938 -0.7031,0.1406 -1.9688,0.1406 -2.3906,0 -11.6718,-9 -9.2813,-9 -9.2813,-11.25 0,-2.1094 3.4453,-5.6953 3.4454,-3.586 5.4141,-3.586 1.4063,0 2.9531,0.7735 1.5469,0.7734 8.9297,8.1562 7.3828,7.3828 8.5781,9.1406 1.1954,1.7578 1.1954,3.7266 z m 37.5468,-41.4844 -18.5625,-18.2812 q -1.8281,0.7031 -1.8281,1.9687 0,0.8438 8.7891,9.5625 8.789,8.7188 9.6328,8.7188 1.8281,0 1.9687,-1.9688 z m -5.3437,6.3282 0,-2.3907 q -4.5,-4.7812 -9,-9.4219 -7.3125,-7.5937 -8.7188,-7.5937 -1.2656,0 -2.1093,1.125 0.9843,2.25 8.9296,10.5469 7.9454,8.2968 9.3516,8.2968 0.4219,0 1.5469,-0.5624 z m -20.8125,20.25 0,-1.5469 q -18,-17.7188 -18,-17.7188 -1.125,0 -1.8282,0.9844 l 0,1.5469 q 16.4532,17.7187 18.2813,17.7187 0.9844,0 1.5469,-0.9843 z m -4.7813,5.3437 0,-1.9687 q -13.7812,-17.2969 -17.7187,-17.2969 -1.2656,0 -2.1094,0.9843 l 0,1.4063 q 17.2969,17.4375 18.2812,17.4375 0.4219,0 1.5469,-0.5625 z"
         id="path4655"
         inkscape:connector-curvature="0"
         style="stroke:none" />
    </g>
  </g>
</svg>
