<svg xmlns="http://www.w3.org/2000/svg" xmlns:xlink="http://www.w3.org/1999/xlink" version="1.1" x="0px" y="0px" viewBox="0 0 100 100" enable-background="new 0 0 100 100" xml:space="preserve"><g><path d="M98.542,2.178c-0.021-0.007-0.496-0.215-1.177-0.023c-0.328,0.093-0.959,0.409-0.959,0.409l-0.277-0.509   c0.355-0.217,0.469-0.688,0.256-1.07c-0.215-0.392-0.698-0.542-1.076-0.331l-0.433,0.241c-0.376,0.21-0.505,0.695-0.289,1.09   c0.213,0.382,0.677,0.532,1.049,0.344l0.274,0.502l-2.028,1.098l-0.291-0.532c0.354-0.216,0.47-0.687,0.257-1.07   c-0.215-0.394-0.696-0.541-1.073-0.333l-0.438,0.244c-0.374,0.208-0.503,0.694-0.284,1.088c0.212,0.383,0.677,0.532,1.049,0.346   l0.284,0.525l-2.299,1.244l-0.264-0.484c0.354-0.218,0.469-0.689,0.256-1.071c-0.218-0.393-0.699-0.541-1.071-0.332l-0.439,0.242   c-0.375,0.208-0.505,0.696-0.288,1.088c0.217,0.383,0.679,0.534,1.049,0.345l0.264,0.48L88.443,6.87c0,0-0.01,0.006-0.027,0.017   l-0.254-0.461c0.354-0.218,0.469-0.689,0.259-1.071c-0.218-0.393-0.7-0.542-1.075-0.333l-0.437,0.243   c-0.377,0.208-0.503,0.696-0.286,1.087c0.212,0.384,0.676,0.534,1.05,0.347l0.257,0.473c-0.489,0.287-1.286,0.745-2.183,1.235   l-0.345-0.636c0.354-0.217,0.469-0.689,0.258-1.071c-0.222-0.391-0.698-0.541-1.074-0.332l-0.438,0.242   c-0.375,0.208-0.504,0.697-0.287,1.088c0.213,0.384,0.677,0.533,1.049,0.345l0.345,0.63c-0.731,0.394-1.497,0.788-2.206,1.119   l-0.319-0.589c0.354-0.217,0.471-0.689,0.257-1.071c-0.217-0.392-0.698-0.542-1.072-0.333l-0.438,0.244   c-0.376,0.208-0.504,0.695-0.286,1.088c0.215,0.384,0.676,0.533,1.048,0.345l0.301,0.549c-2.359,1.045-2.418,1.759-2.418,1.759   s0.123,0.896,0.17,1.433c0.047,0.538-0.23,1.046-0.23,1.046L42.731,51.506c-0.255,0.016-0.541,0.05-0.952-0.053   c-0.766-0.188-0.938-0.944-1.155-1.597l-0.253-0.819l-0.429-1.076l-0.467-0.961l-0.364-0.705c-1.264-2.424-4.259-4.34-7.019-3.432   l-1.075,0.404c-0.913,0.429-1.606,1.002-2.302,1.729c-1.472,1.542-2.319,3.527-3.103,5.478c-0.958,2.384-2.026,4.775-3.953,6.546   c-1.905,1.75-4.382,2.42-6.74,3.314c-2.871,1.09-5.655,2.411-8.323,3.933c-4.243,2.414-7.15,7.894-6.519,12.726   c0.857,6.55,12.735,16.632,12.735,16.632c0.936,1.046,2.166,2.038,3.372,2.894c0.268,0.19,0.53,0.379,0.78,0.57   c1.507,1.139,3.139,2.2,5.015,2.595c2.009,0.425,4.065,0.43,6.068-0.029c4.478-1.025,7.401-4.619,9.471-8.482   c1.294-2.416,2.148-5.028,3.015-7.622c0.807-2.519,1.682-5.177,3.692-7.013c1.879-1.722,4.421-2.412,6.638-3.56   c2.706-1.403,6.583-3.973,6.468-7.485c-0.046-1.437-1.977-3.067-3.435-2.365c-0.055,0.028-0.534,0.255-0.534,0.255l-0.824,0.38   l-0.703,0.385l-1.131,0.507c-1.63,0.73-4.242,1.132-5.761-0.015c-1.167-0.878-1.422-2.931-0.774-4.332l2.456-2.636l37.224-39.47   l0.303-0.342l0.329-0.288c1.435-1.489,3.19-2.633,5.066-3.491c1.292-0.593,2.659-1.095,3.729-2.077   c0.825-0.76,1.056-1.761,1.603-2.701c0.497-0.855,1.282-1.443,2.17-1.85c1.227-0.56,2.525-1.037,2.889-2.492   C100.229,3.813,99.448,2.407,98.542,2.178z M21.4,64.955c-0.241-1.522,1.228-2.961,2.131-3.929c0,0,10.312-11.123,17.092-7.595   l0.071,0.069l-3.548,3.527c0,0-0.6,0.571-0.143,0.986c0.098,0.088,0.377,0.353,0.756,0.718l-1.251,1.297l-1.029-0.991   c-0.327-0.312-0.847-0.304-1.161,0.023c-0.315,0.327-0.305,0.846,0.022,1.159l1.03,0.99l-7.578,7.874l-2.05-1.973   c-0.211-0.206-0.55-0.199-0.754,0.014l-0.609,0.633L21.4,64.955z M36.144,61.956l0.499,0.481l-7.578,7.872l-0.499-0.48   L36.144,61.956z M28.429,69.695l-0.5-0.479l7.579-7.873l0.498,0.48L28.429,69.695z M36.78,62.568l0.5,0.481l-7.578,7.871   l-0.499-0.479L36.78,62.568z M37.416,63.182l0.5,0.48l-7.578,7.872l-0.499-0.479L37.416,63.182z M38.052,63.794l0.499,0.48   l-7.576,7.873l-0.5-0.48L38.052,63.794z M39.191,62.612l1.248-1.3c0.179,0.173,0.346,0.337,0.499,0.48l-1.249,1.297L39.191,62.612z    M39.053,62.479l-0.498-0.481l1.25-1.299c0.169,0.166,0.338,0.328,0.497,0.483L39.053,62.479z M38.418,61.865l-0.5-0.478   l1.25-1.302c0.167,0.159,0.333,0.322,0.499,0.481L38.418,61.865z M37.782,61.254l-0.501-0.481l1.252-1.299   c0.161,0.158,0.329,0.318,0.498,0.479L37.782,61.254z M37.146,60.641l-0.499-0.48l1.25-1.297c0.155,0.149,0.323,0.31,0.5,0.478   L37.146,60.641z M18.352,76.295c-0.394-0.382-0.406-1.008-0.026-1.401l6.471-6.723l0.674-0.7l2.012,1.936l-0.771,0.801   l-0.388-0.731c-0.318-0.6-1.064-0.828-1.663-0.51c-0.601,0.319-0.829,1.064-0.511,1.664l0.766,1.446l-5.265,5.468L18.352,76.295z    M28.454,73.491l-0.342-0.644l1.417-1.471l0.5,0.479L28.454,73.491z M30.165,71.988l0.498,0.481l-1.775,1.842l-0.34-0.642   L30.165,71.988z M28.018,72.671l-0.341-0.644l1.215-1.264l0.5,0.48L28.018,72.671z M27.582,71.85l-0.34-0.646l1.014-1.053   l0.499,0.479L27.582,71.85z M27.147,71.027l-0.341-0.643l0.813-0.848l0.499,0.483L27.147,71.027z M19.789,77.674l5.221-5.423   l0.342,0.645l-5.064,5.261L19.789,77.674z M20.424,78.289l5.021-5.218l0.341,0.644l-4.864,5.054L20.424,78.289z M21.061,78.899   l4.82-5.008l0.342,0.646l-4.663,4.845L21.061,78.899z M21.696,79.514l4.619-4.801l0.341,0.646l-4.461,4.634L21.696,79.514z    M22.333,80.125l4.418-4.589l0.341,0.643l-4.261,4.429L22.333,80.125z M22.97,80.739l4.216-4.383l0.165,0.309   c0.318,0.601,1.062,0.828,1.664,0.511c0.599-0.32,0.828-1.062,0.51-1.663l-0.542-1.021l1.817-1.891l1.7,1.638l-0.7,0.729   l-6.444,6.696c-0.38,0.392-1.006,0.402-1.4,0.024L22.97,80.739z M26.354,93.856c-0.671,0.699-1.779,0.721-2.476,0.048l-0.429-0.409   c-0.696-0.672-0.718-1.78-0.046-2.478L35.395,78.56l0.089-0.094c0.671-0.696,1.779-0.717,2.477-0.048l0.428,0.412   c0.696,0.671,0.717,1.78,0.047,2.476l-0.091,0.094L26.354,93.856z M42.763,62.026l0.098,0.345c0,0-0.391,3.905,4.463,4.404   c0,0,3.126-0.131,5.481-1.705c1.125-0.752,2.543-1.281,3.189,0.029c0.721,1.466-0.732,3.386-1.733,4.447   c-1.255,1.33-2.816,2.101-4.512,2.771c-2.099,0.833-4.406,1.966-6.056,3.241c-1.056,0.815-1.807,1.979-2.482,3.108   c-0.672,1.125-0.793,2.223-1.359,3.369c0,0-0.256,0.521-0.744,0.086c-0.066-0.06-0.238-0.222-0.486-0.459l0.088-0.094   c0.815-0.846,0.789-2.197-0.058-3.014l-0.428-0.411c-0.847-0.815-2.198-0.789-3.013,0.059l-0.023,0.021l-3.028-2.914l0.641-0.665   c0.204-0.212,0.198-0.552-0.014-0.754l-1.676-1.614l7.578-7.871l0.736,0.71c0.328,0.313,0.848,0.304,1.162-0.022   s0.305-0.847-0.022-1.159l-0.738-0.711l1.248-1.295c0.4,0.388,0.663,0.641,0.663,0.641s0.352,0.252,0.687-0.189   C42.761,61.935,42.763,62.026,42.763,62.026z"></path><path d="M24.476,91.065c-0.481,0.5-0.466,1.297,0.034,1.776c0.5,0.481,1.294,0.468,1.776-0.035   c0.481-0.497,0.465-1.293-0.033-1.774C25.751,90.551,24.956,90.566,24.476,91.065z"></path><circle cx="31.583" cy="85.492" r="1.256"></circle><path d="M36.698,79.905l-1.29,1.341c-0.216-0.101-0.478-0.06-0.653,0.123c-0.173,0.181-0.205,0.442-0.098,0.655l-1.289,1.341   c-0.073,0.074-0.071,0.195,0.004,0.268c0.076,0.073,0.197,0.071,0.27-0.005l1.289-1.339c0.215,0.098,0.478,0.058,0.652-0.124   c0.174-0.181,0.205-0.445,0.099-0.656l1.289-1.34c0.073-0.076,0.071-0.195-0.005-0.268C36.892,79.828,36.77,79.83,36.698,79.905z"></path></g></svg>