<?xml version="1.0" encoding="UTF-8" standalone="no"?>
<svg
   xmlns:dc="http://purl.org/dc/elements/1.1/"
   xmlns:cc="http://creativecommons.org/ns#"
   xmlns:rdf="http://www.w3.org/1999/02/22-rdf-syntax-ns#"
   xmlns:svg="http://www.w3.org/2000/svg"
   xmlns="http://www.w3.org/2000/svg"
   xmlns:sodipodi="http://sodipodi.sourceforge.net/DTD/sodipodi-0.dtd"
   xmlns:inkscape="http://www.inkscape.org/namespaces/inkscape"
   stroke-miterlimit="10"
   font-weight="normal"
   font-style="normal"
   font-size="12"
   id="svg4696"
   version="1.1"
   inkscape:version="0.91 r13725"
   sodipodi:docname="hiking_boot.svg"
   width="92.21769"
   height="68.840134"
   style="font-style:normal;font-weight:normal;font-size:12px;font-family:Dialog;color-interpolation:auto;fill:#000000;fill-opacity:1;stroke:#000000;stroke-width:1;stroke-linecap:square;stroke-linejoin:miter;stroke-miterlimit:10;stroke-dasharray:none;stroke-dashoffset:0;stroke-opacity:1;color-rendering:auto;image-rendering:auto;shape-rendering:auto;text-rendering:auto">
  <metadata
     id="metadata4707">
    <rdf:RDF>
      <cc:Work
         rdf:about="">
        <dc:format>image/svg+xml</dc:format>
        <dc:type
           rdf:resource="http://purl.org/dc/dcmitype/StillImage" />
        <dc:title></dc:title>
      </cc:Work>
    </rdf:RDF>
  </metadata>
  <sodipodi:namedview
     pagecolor="#ffffff"
     bordercolor="#666666"
     borderopacity="1"
     objecttolerance="10"
     gridtolerance="10"
     guidetolerance="10"
     inkscape:pageopacity="0"
     inkscape:pageshadow="2"
     inkscape:window-width="1440"
     inkscape:window-height="837"
     id="namedview4705"
     showgrid="false"
     fit-margin-top="0"
     fit-margin-left="0"
     fit-margin-right="0"
     fit-margin-bottom="0"
     inkscape:zoom="2.36"
     inkscape:cx="44.682203"
     inkscape:cy="-49.948509"
     inkscape:window-x="-8"
     inkscape:window-y="-8"
     inkscape:window-maximized="1"
     inkscape:current-layer="svg4696" />
  <!--Unicode Character 'HIKING BOOT' (U+1F97E)-->
  <defs
     id="genericDefs" />
  <g
     id="g4699"
     transform="matrix(0.39961627,0,0,0.39961627,-4.495683,-77.494346)">
    <g
       id="g4701">
      <path
         d="m 242.0156,351.9844 q 0,3.9375 -0.9844,12.7968 -0.9843,0.2813 -7.4531,0.9844 -0.5625,-5.4844 -4.0781,-5.4844 -3.2344,0 -4.5,5.4844 l -1.4062,-0.1406 q 0.2812,0 -6.8907,0.5625 -0.7031,-5.4844 -4.2187,-5.4844 -3.2344,0 -4.2188,5.4844 l -8.2968,0 q -1.4063,-5.4844 -4.5,-5.4844 -3.2344,0 -4.0782,5.4844 l -3.9375,0 q 0.2813,0 -4.3593,-0.5625 -2.9532,-5.3438 -4.5,-5.3438 -1.6876,0 -4.5,5.4844 -2.8126,-0.2812 -8.2969,-0.9844 -0.7031,-5.3437 -4.0781,-5.3437 -1.9688,0 -4.5,5.0625 l -9.9844,0 0,-1.5469 q 0,-4.3593 -0.1406,-9.1406 -1.9688,-1.125 -27.7032,-2.25 -21.375,-0.9844 -30.5156,-0.9844 l 0,15.4688 -8.1562,0 q -0.9844,-5.3438 -4.2188,-5.3438 -3.5156,0 -4.3594,5.4844 l -8.1562,0 q -1.9688,-5.4844 -4.5,-5.4844 -1.6875,0 -4.5,5.4844 l -7.875,0 q -2.5313,-5.4844 -4.5,-5.4844 -2.1094,0 -4.2188,4.9219 -0.8437,0.5625 -2.3906,0.5625 -1.125,0 -3.1641,-0.2813 -2.039,-0.2812 -3.0234,-0.2812 -0.7031,-5.3438 -4.0781,-5.3438 -3.2344,0 -4.5,5.4844 l -3.7969,0 q 1.6875,0 -3.9375,-0.5625 -2.25,-4.2187 -2.25,-13.0781 0,-2.6719 1.2656,-7.8047 1.2656,-5.1328 1.2656,-7.8047 0,-2.6718 -1.0546,-8.0859 -1.0547,-5.4141 -1.0547,-8.0859 0,-9.9844 4.3593,-21.375 0.7032,-1.6876 9.2813,-18.8438 7.0313,-13.7812 7.0313,-17.7188 0,-0.4218 -1.1954,-2.6718 -1.1953,-2.25 -1.3359,-2.8125 -0.8437,-2.6719 -0.8437,-10.9688 0,-13.6406 2.6718,-17.7187 5.625,-8.7188 23.625,-13.6406 14.2032,-3.7969 28.125,-3.7969 11.5313,0 15.1875,5.2031 2.8125,4.0781 2.8125,15.4688 0,14.4843 -6.1875,21.375 -5.4843,6.0468 -20.1093,9.7031 -15.6094,3.9375 -28.5469,3.7969 -3.7969,12.9374 -9.7031,22.9218 29.6718,16.0313 41.4843,32.7656 0.5625,0.8438 3.5157,8.4376 2.1093,5.4843 5.4843,6.6093 10.5469,3.7969 29.5313,4.5 15.3281,0.4219 30.5156,0.9844 0,0 2.9531,-8.2969 2.25,-6.3281 11.6719,-10.5468 8.1562,-3.7969 15.75,-3.7969 l 7.5938,0 q 19.5468,0 22.5,-2.8125 -0.2813,-0.5625 -1.125,-0.8438 -13.6407,-4.0781 -39.9376,-15.3281 -2.9531,2.5313 -5.7656,5.9063 -6.75,8.0156 -9.1406,8.0156 -4.6406,0 -4.6406,-4.6406 0,-2.3907 4.3594,-7.3126 3.0937,-3.5156 6.1874,-6.8906 -2.3906,-1.8281 -7.0312,-5.625 -4.3594,3.7969 -8.5781,7.4532 -6.6094,5.625 -8.5781,5.625 -4.9219,0 -4.9219,-4.9219 0,-2.5313 6.1875,-8.0157 4.3594,-3.5156 8.5781,-7.1718 -0.9844,-1.5469 -6.1875,-7.7344 -4.9219,2.9531 -9.7031,5.7656 -7.3125,4.3594 -9.4219,4.3594 -4.6406,0 -4.6406,-4.3594 0,-2.25 1.125,-3.6562 0.4218,-0.5625 17.8594,-10.2656 -1.5469,-3.7969 -4.2188,-9.1407 l -19.2656,6.75 q -4.3594,-0.9843 -4.3594,-6.0469 0,-1.8281 2.25,-2.9531 6.1875,-2.25 18.4219,-6.75 -2.3907,-5.2031 -4.2188,-21.7969 -1.6875,-14.3437 -1.6875,-23.0624 0,-10.5469 7.4532,-10.5469 2.3906,0 4.8515,1.8984 2.4609,1.8985 2.4609,4.1485 l 0,13.6406 q 0,15.75 5.2032,32.0625 5.7656,17.5781 15.4687,28.4062 11.25,12.5157 27.5625,18.5625 1.8282,0.7032 5.4844,2.1094 17.1562,5.9062 34.3125,11.6719 19.4063,9 19.4063,26.8593 0,8.1563 -2.9532,12.7969 3.375,2.1094 3.375,5.9063 z"
         id="path4703"
         inkscape:connector-curvature="0"
         style="stroke:none" />
    </g>
  </g>
</svg>
