<?xml version="1.0" encoding="UTF-8" standalone="no"?>
<svg
   xmlns:dc="http://purl.org/dc/elements/1.1/"
   xmlns:cc="http://creativecommons.org/ns#"
   xmlns:rdf="http://www.w3.org/1999/02/22-rdf-syntax-ns#"
   xmlns:svg="http://www.w3.org/2000/svg"
   xmlns="http://www.w3.org/2000/svg"
   xmlns:sodipodi="http://sodipodi.sourceforge.net/DTD/sodipodi-0.dtd"
   xmlns:inkscape="http://www.inkscape.org/namespaces/inkscape"
   stroke-miterlimit="10"
   font-weight="normal"
   font-style="normal"
   font-size="12"
   id="svg5249"
   version="1.1"
   inkscape:version="0.91 r13725"
   sodipodi:docname="keyboard_and_mouse.svg"
   width="85.736534"
   height="57.355354"
   style="font-style:normal;font-weight:normal;font-size:12px;font-family:Dialog;color-interpolation:auto;fill:#000000;fill-opacity:1;stroke:#000000;stroke-width:1;stroke-linecap:square;stroke-linejoin:miter;stroke-miterlimit:10;stroke-dasharray:none;stroke-dashoffset:0;stroke-opacity:1;color-rendering:auto;image-rendering:auto;shape-rendering:auto;text-rendering:auto">
  <metadata
     id="metadata5260">
    <rdf:RDF>
      <cc:Work
         rdf:about="">
        <dc:format>image/svg+xml</dc:format>
        <dc:type
           rdf:resource="http://purl.org/dc/dcmitype/StillImage" />
        <dc:title></dc:title>
      </cc:Work>
    </rdf:RDF>
  </metadata>
  <sodipodi:namedview
     pagecolor="#ffffff"
     bordercolor="#666666"
     borderopacity="1"
     objecttolerance="10"
     gridtolerance="10"
     guidetolerance="10"
     inkscape:pageopacity="0"
     inkscape:pageshadow="2"
     inkscape:window-width="1440"
     inkscape:window-height="837"
     id="namedview5258"
     showgrid="false"
     fit-margin-top="0"
     fit-margin-left="0"
     fit-margin-right="0"
     fit-margin-bottom="0"
     inkscape:zoom="2.36"
     inkscape:cx="44.49894"
     inkscape:cy="-32.737902"
     inkscape:window-x="-8"
     inkscape:window-y="-8"
     inkscape:window-maximized="1"
     inkscape:current-layer="svg5249" />
  <!--Unicode Character 'KEYBOARD AND MOUSE' (U+1F5A6)-->
  <defs
     id="genericDefs" />
  <g
     id="g5252"
     transform="matrix(0.30122629,0,0,0.30122629,-0.50831936,-64.725999)">
    <g
       id="g5254">
      <path
         d="m 286.3125,329.3438 q 0,56.6718 -37.125,56.6718 -5.2031,0 -14.2031,-2.5312 -10.9688,-2.9532 -10.9688,-6.4688 0,-3.7968 5.9063,-9.4218 -9.1407,-7.3126 -9.1407,-18 0,-8.0157 6.6094,-16.0313 5.9063,-6.75 11.8125,-13.3594 4.2188,-7.1719 8.4375,-14.3437 5.3438,-8.4375 12.5156,-9.8438 3.0938,-0.5625 7.0313,-0.4218 0.9844,-2.8126 8.1563,-16.4532 5.0624,-9.7031 5.0624,-17.2968 0,-13.5 -9.4218,-21.5157 -9,-7.4531 -22.7813,-7.3125 l 20.9531,10.5469 q 7.7344,3.9375 7.7344,13.9219 0,9.7031 -18,19.4062 -17.4375,9.4219 -24.75,17.086 -7.3125,7.664 -18.1406,26.9296 -10.4062,18.7032 -18.4219,26.5782 Q 141.1875,403.4531 22.5,405.2812 3.9375,388.125 3.9375,363.5156 l -2.25,-70.4531 q 0,-2.5313 16.875,-8.7187 l 26.2969,-9.5626 Q 87.1875,258.8906 129.5156,243 q 75.375,-28.125 78.8906,-28.125 4.0782,0 34.0313,15.3281 3.5156,-0.7031 7.0313,-0.7031 14.4843,0 24.1874,8.1562 10.2657,8.7188 10.2657,22.9219 0,11.6719 -13.2188,35.0157 L 279,296.0156 q 4.0781,2.1094 5.2031,7.7344 2.1094,10.125 2.1094,25.5938 z m -25.875,-85.0782 -14.3437,-7.5937 -5.2032,2.3906 14.3438,7.5937 5.2031,-2.3906 z m -17.0156,-8.7187 -12.7969,-6.75 -4.9219,2.1093 12.6563,6.75 5.0625,-2.1093 z m 9,12.2343 -5.7657,-2.9531 -5.3437,2.3907 5.4844,2.9531 5.625,-2.3907 z m -24.0469,-20.25 -4.6406,-2.25 -5.0625,1.9688 4.6406,2.3906 5.0625,-2.1094 z m 15.75,15.6094 -5.7656,-3.0937 -5.4844,2.3906 5.7656,2.9531 5.4844,-2.25 z m -8.2969,-4.2187 -5.3437,-2.9531 -5.3438,2.1093 5.2032,3.0938 5.4843,-2.25 z m -17.1562,-16.3125 -4.3594,-2.25 -4.7813,1.8281 4.2188,2.3906 4.9219,-1.9687 z m 9.1406,11.8125 -4.7813,-2.3907 -4.9218,1.8282 4.5,2.8125 5.2031,-2.25 z m -7.1719,-3.9375 -4.3594,-2.3906 -5.0624,1.9687 4.3593,2.3906 5.0625,-1.9687 z m 15.0469,16.3125 -5.3437,-3.2344 -5.7657,2.25 5.625,3.375 5.4844,-2.3906 z m -24.4687,-21.375 -4.2188,-2.3907 -4.9219,2.1094 4.3594,2.25 4.7813,-1.9687 z m 33.0468,26.1562 -5.7656,-3.2343 -14.0625,6.0468 5.4844,3.6563 14.3437,-6.4688 z m -16.4531,-9.5625 -5.2031,-2.8125 -5.2032,2.1094 4.9219,3.2344 5.4844,-2.5313 z m -7.7344,-4.2187 -4.6406,-2.8125 -5.2031,2.1094 4.5,2.8124 5.3437,-2.1093 z m -7.0312,-4.0781 -4.5,-2.5313 -5.0625,1.6875 4.5,2.8125 5.0625,-1.9687 z m 14.2031,16.5937 -5.3438,-3.2344 -5.4843,2.3907 5.4843,3.2343 5.3438,-2.3906 z m -23.3438,-22.0781 -3.9374,-2.25 -5.2032,1.6875 4.0782,2.5312 5.0624,-1.9687 z m 78.4688,80.8594 q -0.5625,-6.75 -1.5469,-8.5782 -1.8281,-3.0937 -7.5937,-3.0937 -0.7032,0 -2.25,0 -1.4063,0.1406 -2.1094,0.1406 l -2.5312,7.3125 q 4.2187,0.5625 16.0312,4.2188 z m -63,-63.4219 -4.7812,-3.2344 -5.3438,2.25 4.7812,3.0937 5.3438,-2.1093 z m -7.1719,-4.9219 -4.6406,-2.6719 -5.4844,2.25 4.6407,2.6719 5.4843,-2.25 z m -7.0312,-3.9375 -3.9375,-2.6719 -5.625,1.9688 4.2187,2.6718 5.3438,-1.9687 z m -8.7188,-5.625 -3.9375,-2.3906 -5.3437,1.9687 3.9375,2.3906 5.3437,-1.9687 z m 70.7344,66.5156 -2.6719,-0.1406 q -8.0156,-0.4219 -13.3594,8.5781 7.5938,-1.8281 13.5,-1.5468 l 2.5313,-6.8907 z m -46.2656,-35.7187 -5.2031,-3.7969 -6.1876,2.8125 5.2032,3.6562 6.1875,-2.6718 z m -15.4688,-10.4063 -4.7812,-3.5156 -5.625,2.5313 4.5,3.375 5.9062,-2.3907 z m -7.1719,-4.9219 -4.2187,-3.0937 -5.4844,2.5313 4.0781,2.9531 5.625,-2.3907 z m -6.4687,-4.7812 -4.0781,-2.6719 -5.4844,2.25 3.9375,2.6719 5.625,-2.25 z m -8.5781,-5.625 -3.7969,-2.6719 -5.0625,1.9688 3.5156,2.6719 5.3438,-1.9688 z m 28.4062,30.0938 -5.0625,-3.9376 -6.0469,2.5313 5.0626,3.9375 6.0468,-2.5312 z m -7.4531,-5.9063 -5.0625,-3.6563 -6.1875,2.5313 4.9219,3.9375 6.3281,-2.8125 z m -7.3125,-5.3437 -11.25,-8.1563 -5.9062,2.3906 10.8281,8.2969 6.3281,-2.5312 z m -13.5,-9.5626 -4.0781,-2.9531 -5.4844,2.25 4.0781,2.8125 5.4844,-2.1094 z m -13.5,-11.6718 q -0.5625,-1.2656 -2.25,-1.2656 -2.9531,0 -2.9531,1.5468 0.4219,1.125 2.3906,1.125 2.6719,0 2.8125,-1.4062 z m 5.3438,5.4844 -3.7969,-2.6719 -5.3438,1.9687 3.6563,2.9532 5.4844,-2.25 z m 27.2812,30.9374 -5.0625,-3.7968 -6.6094,2.8125 5.0625,3.7969 6.6094,-2.8126 z m 82.125,64.4063 q 0,-8.2969 -1.6875,-22.6406 -10.2656,-5.3438 -20.6719,-5.3438 -5.0625,0 -12.0937,1.6875 -1.5469,2.3906 -4.5,7.1719 -6.8907,8.0156 -13.7813,15.8906 -8.5781,9.9844 -8.5781,18.4219 0,11.25 10.9687,17.8594 9.1407,5.4844 21.2344,5.4844 29.1094,0 29.1094,-38.5313 z M 154.8281,239.3438 q -0.4219,-1.125 -2.25,-1.125 -2.9531,0 -2.9531,1.4062 0.4219,1.2656 2.1094,1.2656 3.0937,0 3.0937,-1.5468 z m 6.4688,5.2031 -3.6563,-2.6719 -5.4844,2.25 3.0938,2.8125 6.0469,-2.3906 z m 13.7812,11.6719 -4.2187,-3.2344 -10.125,4.0781 3.5156,3.5156 10.8281,-4.3593 z m 6.6094,5.3437 -4.5,-3.6563 -17.4375,7.0313 4.0781,4.0781 17.8594,-7.4531 z m -12.7969,-10.4063 -3.6562,-3.0937 -14.625,5.625 3.6562,3.375 14.625,-5.9063 z m 19.8282,16.3126 -4.9219,-4.2188 -22.6407,9.7031 4.5,4.2188 23.0626,-9.7031 z m -35.8594,-19.5469 -3.2344,-2.8125 -6.0469,2.1094 3.0938,3.0937 6.1875,-2.3906 z m 33.0468,29.6719 -4.6406,-4.2188 -9.9844,4.5 4.7813,5.2031 q 3.2344,-1.8281 9.8437,-5.4843 z m -24.6093,-15.8907 -3.7969,-3.5156 -6.0469,2.5313 3.6563,3.6562 6.1875,-2.6719 z m -9.9844,-3.375 -3.5156,-3.2343 -6.3281,2.3906 3.375,3.375 6.4687,-2.5313 z m -7.4531,-6.8906 -3.2344,-2.9531 -5.7656,2.25 2.9531,2.9531 6.0469,-2.25 z m -8.7188,-4.7813 q -0.4218,-1.125 -1.6875,-1.125 -3.2343,0 -3.2343,1.5469 0.4218,1.125 1.6874,1.125 3.2344,0 3.2344,-1.5469 z m 25.5938,23.7657 -4.0782,-4.0781 -6.6093,2.8124 4.0781,4.0782 6.6094,-2.8125 z m -8.8594,-4.7813 -3.6562,-3.5156 -6.6094,2.3906 3.6562,3.7969 6.6094,-2.6719 z m 21.0938,18.9844 -5.0626,-5.3438 -10.4062,4.5 5.625,6.3282 9.8438,-5.4844 z m -10.5469,-5.9062 -4.5,-4.3594 -6.4688,2.8125 4.0781,4.5 6.8907,-2.9531 z m -34.5938,-29.3907 q -0.4219,-1.125 -2.25,-1.125 -2.8125,0 -2.8125,1.6875 0,1.4063 2.25,1.4063 2.6719,0 2.8125,-1.9688 z m 13.7813,12.7969 -3.0938,-3.5156 -6.3281,2.3906 3.0937,3.375 6.3282,-2.25 z m 9.1406,12.6562 -4.0781,-4.2187 -6.4688,2.6719 3.9375,4.0781 6.6094,-2.5313 z m -19.9688,-18.1406 -3.0937,-3.2344 -6.0469,2.3907 2.8125,2.9531 6.3281,-2.1094 z m 11.1094,12.9375 -3.0937,-3.6562 -6.4688,2.6719 2.9531,3.7968 6.6094,-2.8125 z m -21.6562,-17.4375 q -0.2813,-0.9844 -1.9688,-0.9844 -3.5156,0 -3.5156,2.1094 0,0.8438 1.4062,0.8438 4.0782,0 4.0782,-1.9688 z m 31.6406,31.2188 -3.9375,-4.7813 -7.0313,2.9531 3.9376,4.9219 7.0312,-3.0937 z m -19.8281,-17.7188 -2.9531,-3.2344 -6.4688,2.5313 2.6719,3.5156 6.75,-2.8125 z m 27.7031,26.4375 -5.7656,-6.6093 -10.9688,4.9218 6.0469,7.875 10.6875,-6.1875 z m -19.125,-13.2187 -3.6562,-4.3594 -6.8907,2.8125 3.7969,4.6406 6.75,-3.0937 z m -19.2656,-18.7032 -2.8125,-3.2343 -6.3281,2.3906 2.3906,3.375 6.75,-2.5313 z m 10.5468,13.5 -3.2343,-3.7968 -6.6094,2.8125 3.0937,4.0781 6.75,-3.0938 z m 9.2813,14.0626 -3.7969,-4.7813 -7.3125,3.2344 3.6563,4.9219 7.4531,-3.375 z m -19.125,-17.8594 -2.5313,-3.6563 -6.75,2.6719 2.5313,3.6562 6.75,-2.6718 z m -16.4531,-12.375 q 0,-0.9844 -1.9688,-0.9844 -3.7968,0 -3.7968,1.9688 0,1.2656 2.1093,1.2656 3.6563,0 3.6563,-2.25 z m 6.1875,6.4687 -2.5313,-3.6562 -6.3281,2.25 2.25,3.7969 6.6094,-2.3907 z m 18.2812,19.4063 -3.5156,-4.5 -7.0313,2.8125 3.0938,4.9219 7.4531,-3.2344 z m -8.2969,-5.3438 -3.2343,-4.0781 -6.8907,2.8125 2.8126,4.2188 7.3124,-2.9532 z m -9.9843,-3.9375 -2.5313,-3.7969 -6.6094,2.3907 2.3907,4.0781 6.75,-2.6719 z m -14.625,-13.2187 q 0,-1.4063 -2.5313,-1.4063 -2.9531,0 -2.9531,2.25 0,1.125 2.1094,1.125 3.375,0 3.375,-1.9687 z m 33.0469,31.7812 -3.7969,-5.0625 -7.1719,3.2344 3.375,5.0625 7.5938,-3.2344 z m -11.1094,-4.7812 -3.0938,-4.5 -7.3125,2.9531 2.9531,4.7813 7.4532,-3.2344 z m -21.5156,-18.4219 -2.5313,-3.7969 -6.4687,2.3906 2.1093,3.7969 6.8907,-2.3906 z m 13.3593,12.9375 -2.5312,-4.2188 -7.1719,2.8126 2.6719,4.3593 7.0312,-2.9531 z m 161.7188,-26.1562 q 0,-5.4844 -5.2031,-8.1563 l -50.2032,23.9063 q -20.8125,9.8437 -64.125,38.6718 -44.4375,29.5313 -67.2187,40.9219 -38.3907,18.9844 -69.75,19.125 0.9843,13.7813 9.5625,24.3281 6.4687,0.2813 11.8125,0.2813 24.0469,0 46.8281,-4.0781 35.7188,-6.3282 68.9062,-22.7813 38.6719,-19.125 56.25,-44.2969 1.125,-1.6875 10.8282,-18 6.4687,-10.9687 12.6562,-16.7344 0.1406,-0.1406 23.3438,-14.4843 16.3125,-10.125 16.3125,-18.7031 z m -184.0781,7.4531 q 0,-0.9844 -1.4063,-0.9844 -4.2187,0 -4.2187,2.3906 0,1.125 1.6874,1.125 3.9376,0 3.9376,-2.5312 z m 13.0781,14.625 -2.3907,-4.0781 -7.0312,2.6718 2.3906,4.2188 7.0313,-2.8125 z m 17.0156,19.2656 -3.0937,-5.0625 -7.875,3.0938 3.2343,5.2031 7.7344,-3.2344 z m -10.5469,-5.0625 -3.2344,-4.6406 -7.4531,3.2344 2.9531,4.9218 7.7344,-3.5156 z m -20.9531,-19.125 -2.3906,-3.7969 -6.6094,2.6719 2.1094,3.7969 6.8906,-2.6719 z m -7.1719,-6.3281 q 0,-1.2657 -2.1094,-1.2657 -3.6562,0 -3.6562,2.25 0,1.4063 2.25,1.4063 3.5156,0 3.5156,-2.3906 z m 20.25,19.6875 -2.6718,-4.3594 -7.3126,2.9531 2.25,4.5 7.7344,-3.0937 z m -9.1406,-4.3594 -2.5312,-4.2188 -7.0313,2.9532 2.25,4.2187 7.3125,-2.9531 z m 15.8906,20.25 -2.8125,-5.3438 -8.0156,3.2344 3.0937,5.4844 7.7344,-3.375 z M 71.2969,270.4219 q 0,-1.2657 -1.8281,-1.2657 -3.7969,0 -3.7969,2.3907 0,1.2656 1.8281,1.2656 3.7969,0 3.7969,-2.3906 z m 5.4843,6.8906 -1.9687,-3.9375 -6.8906,2.5312 1.6875,4.0782 7.1718,-2.6719 z m 19.6876,20.25 -2.8126,-5.0625 -7.5937,3.0938 2.6719,5.3437 7.7344,-3.375 z m 49.7812,2.25 -6.8906,-8.0156 -69.0469,30.0937 5.3437,14.7656 q 27.7032,-12.0937 70.5938,-36.8437 z m -57.0938,-8.2969 -2.5312,-4.6406 -7.4531,2.9531 2.25,4.6407 7.7343,-2.9532 z m -9,-4.7812 -2.1093,-4.3594 -7.4531,2.9531 1.8281,4.5 7.7343,-3.0937 z m -18,-13.2188 q 0,-1.125 -1.4062,-1.125 -4.0781,0 -4.0781,2.6719 0,0.9844 1.4062,0.9844 4.0781,0 4.0781,-2.5313 z m 32.7657,34.5938 -2.6719,-5.9063 -8.0156,3.375 2.5312,5.9063 8.1563,-3.375 z m -10.2657,-5.7656 -2.5312,-5.0626 -7.7344,3.375 2.1094,5.4844 8.1562,-3.7968 z m -7.1718,-6.3282 -2.1094,-4.6406 -7.3125,2.9531 1.6875,4.9219 7.7344,-3.2344 z m -16.4532,-12.6562 -1.8281,-4.0782 -7.1719,2.8126 1.4063,4.3593 7.5937,-3.0937 z m 7.7344,7.875 -1.8281,-4.5 -7.7344,3.0937 1.8281,4.6407 7.7344,-3.2344 z M 53.1562,276.75 q 0,-0.8438 -1.4062,-0.8438 -4.3594,0 -4.3594,2.3907 0,1.2656 1.9688,1.2656 3.7968,0 3.7968,-2.8125 z m 29.3907,36.7031 -2.3907,-5.9062 -8.2968,3.5156 2.25,5.7656 8.4375,-3.375 z m -16.875,-12.375 -1.8281,-4.9219 -7.7344,3.0938 1.4062,4.9219 8.1563,-3.0938 z m 6.8906,6.3281 -2.25,-5.0624 -8.1563,3.0937 1.8282,5.7656 8.5781,-3.7969 z M 49.7812,287.7188 48.5156,283.5 l -7.5937,2.8125 1.2656,4.3594 7.5937,-2.9531 z m 7.1719,8.4374 -1.4062,-4.7812 -7.7344,2.9531 1.125,4.9219 8.0156,-3.0938 z M 69.4688,319.0781 67.5,312.75 l -8.5781,3.7969 1.6875,6.1875 8.8594,-3.6563 z M 53.2969,306 51.75,300.7969 l -7.875,3.5156 1.4062,5.2031 L 53.2969,306 Z m 6.6093,6.75 -1.8281,-5.4844 -8.5781,3.375 1.8281,5.9063 8.5781,-3.7969 z M 38.25,292.0781 l -0.8438,-4.5 -7.5937,3.0938 0.8437,4.6406 7.5938,-3.2344 z m 6.6094,8.8594 -1.125,-5.0625 -7.7344,3.0938 0.7031,5.0624 8.1563,-3.0937 z M 25.5938,287.1562 q 0,-1.125 -1.5469,-1.125 -4.9219,0 -4.9219,2.9532 0,0.9844 1.5469,0.9844 4.9219,0 4.9219,-2.8126 z m 30.7968,37.5469 -1.9687,-6.3281 -8.8594,3.6562 1.5469,6.6094 9.2812,-3.9375 z m 14.625,14.2031 -4.7812,-15.0468 -13.7813,6.0468 3.2344,15.0469 q 4.2187,-1.4062 15.3281,-6.0469 z m -30.2344,-27.7031 -1.125,-5.3437 -8.4374,3.375 0.8437,5.4844 8.7187,-3.5157 z m 6.0469,7.3125 -1.6875,-6.0468 -8.5781,3.6562 1.125,6.1875 9.1406,-3.7969 z m -14.2031,-12.9375 -0.8438,-4.7812 -8.0156,3.0937 0.4219,5.3438 8.4375,-3.6563 z M 18.5625,299.9531 18,295.0312 l -7.875,3.0938 0.2812,4.9219 8.1563,-3.0938 z m 1.2656,10.8281 -0.4219,-5.3437 -8.8593,3.5156 0.7031,5.3438 8.5781,-3.5157 z m 7.7344,5.7657 -0.7031,-5.4844 -15.3282,6.0469 0.2813,5.9062 15.75,-6.4687 z m 23.4844,29.6719 -3.0938,-14.3438 -14.0625,6.0469 1.4063,12.9375 q 5.625,-1.4063 15.75,-4.6406 z m -17.7188,-22.0782 -1.2656,-6.1875 -19.5469,8.2969 0.5625,6.6094 20.25,-8.7188 z m 9.1407,6.4688 -1.125,-6.75 -28.4063,12.0937 0.7031,7.3125 28.8282,-12.6562 z m -11.9532,21.375 -1.4062,-11.6719 -15.0469,6.3281 0.7031,7.875 q 5.2032,-0.7031 15.75,-2.5312 z m 250.3125,-12.5156 q -0.1406,11.25 -6.6093,20.25 -7.1719,9.9843 -17.8594,9.9843 -5.7656,0 -10.9688,-2.25 6.8906,-15.3281 7.1719,-28.4062 L 271.2656,355.5 q 4.3594,-5.7656 9.5625,-16.0312 z"
         id="path5256"
         inkscape:connector-curvature="0"
         style="stroke:none" />
    </g>
  </g>
</svg>
