<?xml version="1.0" encoding="UTF-8" standalone="no"?>
<!-- Created with Inkscape (http://www.inkscape.org/) -->

<svg
   xmlns:osb="http://www.openswatchbook.org/uri/2009/osb"
   xmlns:dc="http://purl.org/dc/elements/1.1/"
   xmlns:cc="http://creativecommons.org/ns#"
   xmlns:rdf="http://www.w3.org/1999/02/22-rdf-syntax-ns#"
   xmlns:svg="http://www.w3.org/2000/svg"
   xmlns="http://www.w3.org/2000/svg"
   xmlns:sodipodi="http://sodipodi.sourceforge.net/DTD/sodipodi-0.dtd"
   xmlns:inkscape="http://www.inkscape.org/namespaces/inkscape"
   width="28.048401mm"
   height="28.048401mm"
   viewBox="0 0 99.384098 99.384097"
   id="svg2"
   version="1.1"
   inkscape:version="0.91 r13725"
   sodipodi:docname="logo_small.svg">
  <defs
     id="defs4">
    <linearGradient
       id="linearGradient4363"
       osb:paint="solid">
      <stop
         style="stop-color:#000000;stop-opacity:1;"
         offset="0"
         id="stop4365" />
    </linearGradient>
  </defs>
  <sodipodi:namedview
     id="base"
     pagecolor="#ffffff"
     bordercolor="#666666"
     borderopacity="1.0"
     inkscape:pageopacity="0.0"
     inkscape:pageshadow="2"
     inkscape:zoom="1.14"
     inkscape:cx="10.779598"
     inkscape:cy="25.12559"
     inkscape:document-units="px"
     inkscape:current-layer="layer1"
     showgrid="false"
     fit-margin-top="0"
     fit-margin-left="0"
     fit-margin-right="0"
     fit-margin-bottom="0"
     inkscape:window-width="1440"
     inkscape:window-height="837"
     inkscape:window-x="-8"
     inkscape:window-y="-8"
     inkscape:window-maximized="1"
     showguides="true"
     inkscape:guide-bbox="true" />
  <metadata
     id="metadata7">
    <rdf:RDF>
      <cc:Work
         rdf:about="">
        <dc:format>image/svg+xml</dc:format>
        <dc:type
           rdf:resource="http://purl.org/dc/dcmitype/StillImage" />
        <dc:title></dc:title>
      </cc:Work>
    </rdf:RDF>
  </metadata>
  <g
     inkscape:label="Layer 1"
     inkscape:groupmode="layer"
     id="layer1"
     transform="translate(-229.76903,-360.87439)">
    <g
       id="g4375">
      <path
         style="fill:none;fill-opacity:1;stroke:#ffffff;stroke-width:1;stroke-linejoin:round;stroke-miterlimit:4;stroke-dasharray:none;stroke-opacity:1"
         d="m 230.26903,361.37439 98.3841,0 0,98.3841 -98.3841,0 z"
         id="rect4361"
         inkscape:connector-curvature="0" />
      <g
         transform="scale(1.0019045,0.99809916)"
         style="font-style:normal;font-weight:normal;font-size:15.02856731px;line-height:125%;font-family:sans-serif;letter-spacing:0px;word-spacing:0px;fill:#000000;fill-opacity:1;stroke:none;stroke-width:1px;stroke-linecap:butt;stroke-linejoin:miter;stroke-opacity:1"
         id="text4273">
        <path
           d="m 234.06442,409.87567 0,-19.19848 9.74693,0 q 3.038,0 4.43041,1.53307 1.39242,1.53306 1.39242,3.50214 0,1.43461 -0.81576,2.60199 -0.80169,1.15331 -2.40508,1.58932 3.72718,0.90015 3.72718,4.47262 0,2.13785 -1.3221,3.82563 -1.30803,1.67371 -5.61186,1.67371 l -9.14214,0 z m 5.42903,-11.84258 2.72857,0 q 1.02673,0 1.44868,-0.5204 0.42194,-0.5204 0.42194,-1.11112 0,-1.60339 -1.96907,-1.60339 l -2.63012,0 0,3.23491 z m 0,7.56688 2.86922,0 q 1.06893,0 1.56119,-0.5204 0.50634,-0.53447 0.50634,-1.19551 0,-0.66105 -0.49227,-1.20958 -0.4782,-0.56259 -1.77217,-0.56259 l -2.67231,0 0,3.48808 z"
           style="font-style:normal;font-variant:normal;font-weight:normal;font-stretch:normal;font-size:28.80475426px;font-family:'Franklin Gothic Heavy';-inkscape-font-specification:'Franklin Gothic Heavy, ';fill:#ffffff"
           id="path4390"
           inkscape:connector-curvature="0" />
        <path
           d="m 266.79326,409.87567 -5.34463,0 q -0.19691,-0.91421 -0.19691,-1.9972 -1.519,2.29256 -4.59919,2.29256 -2.53167,0 -3.7975,-1.29396 -1.25177,-1.29396 -1.25177,-2.96768 0,-2.26443 2.05346,-3.65685 2.06753,-1.40648 7.31371,-1.68778 l 0,-0.32349 q 0,-0.94234 -0.43601,-1.25177 -0.42195,-0.30943 -1.25177,-0.30943 -1.94095,0 -2.16598,1.5612 l -5.1196,-0.47821 q 1.09706,-4.48667 7.46842,-4.48667 1.72997,0 3.17865,0.35162 1.44868,0.33755 2.29257,1.06892 0.84389,0.73137 1.12518,1.54713 0.29536,0.81576 0.29536,3.13646 l 0,5.71032 q 0,1.63152 0.43601,2.78483 z m -5.82283,-6.69485 q -3.58653,0.37975 -3.58653,2.29256 0,1.29397 1.42054,1.29397 0.90015,0 1.53307,-0.53447 0.63292,-0.53446 0.63292,-2.36289 l 0,-0.68917 z"
           style="font-style:normal;font-variant:normal;font-weight:normal;font-stretch:normal;font-size:28.80475426px;font-family:'Franklin Gothic Heavy';-inkscape-font-specification:'Franklin Gothic Heavy, ';fill:#ffffff"
           id="path4392"
           inkscape:connector-curvature="0" />
        <path
           d="m 274.62737,409.87567 -5.37276,0 0,-14.30392 4.66952,0 0,2.95361 q 0.80169,-3.22084 3.72718,-3.22084 0.29536,0 0.81576,0.0563 l 0,4.99301 q -0.59073,-0.14065 -1.05487,-0.14065 -2.78483,0 -2.78483,3.10832 l 0,6.55421 z"
           style="font-style:normal;font-variant:normal;font-weight:normal;font-stretch:normal;font-size:28.80475426px;font-family:'Franklin Gothic Heavy';-inkscape-font-specification:'Franklin Gothic Heavy, ';fill:#ffffff"
           id="path4394"
           inkscape:connector-curvature="0" />
        <path
           d="m 289.62047,395.57175 0,3.64279 -2.85516,0 0,5.2743 q 0,1.083 0.40788,1.29397 0.40788,0.19691 0.84389,0.19691 0.67511,0 1.60339,-0.23911 l 0,3.99441 q -1.65965,0.32349 -3.26304,0.32349 -2.58793,0 -3.81157,-1.11112 -1.20957,-1.11112 -1.20957,-3.54433 l 0.0141,-1.67372 0,-4.5148 -2.13785,0 0,-3.64279 2.13785,0 0.0844,-4.65546 5.33057,-0.0844 0,4.73985 2.85516,0 z"
           style="font-style:normal;font-variant:normal;font-weight:normal;font-stretch:normal;font-size:28.80475426px;font-family:'Franklin Gothic Heavy';-inkscape-font-specification:'Franklin Gothic Heavy, ';fill:#ffffff"
           id="path4396"
           inkscape:connector-curvature="0" />
        <path
           d="m 298.46724,410.17103 q -3.5584,0 -5.65406,-2.20817 -2.09566,-2.22225 -2.09566,-5.20399 0,-3.20678 2.18005,-5.34463 2.19411,-2.13785 5.69625,-2.13785 3.53027,0 5.66813,2.10972 2.15191,2.10972 2.15191,5.28837 0,3.20678 -2.18004,5.3587 -2.16599,2.13785 -5.76658,2.13785 z m 0.0844,-3.40368 q 1.30803,0 1.58932,-1.35023 0.29536,-1.36428 0.29536,-2.84109 0,-2.01127 -0.40787,-2.89735 -0.40788,-0.88609 -1.46275,-0.88609 -0.97047,0 -1.42054,0.91422 -0.45008,0.91421 -0.45008,3.00987 0,2.46134 0.46414,3.26304 0.46414,0.78763 1.39242,0.78763 z"
           style="font-style:normal;font-variant:normal;font-weight:normal;font-stretch:normal;font-size:28.80475426px;font-family:'Franklin Gothic Heavy';-inkscape-font-specification:'Franklin Gothic Heavy, ';fill:#ffffff"
           id="path4398"
           inkscape:connector-curvature="0" />
        <path
           d="m 322.54622,409.87567 -5.61187,0 0,-9.00148 q 0,-1.11113 -0.35162,-1.42055 -0.33755,-0.30943 -0.85795,-0.30943 -1.53307,0 -1.53307,2.13786 l 0,8.5936 -5.61186,0 0,-14.30392 5.20398,0 0,2.02533 q 1.15332,-2.32069 4.121,-2.32069 1.56119,0 2.63012,0.60478 1.08299,0.59073 1.54713,1.54713 0.46414,0.94235 0.46414,3.29117 l 0,9.1562 z"
           style="font-style:normal;font-variant:normal;font-weight:normal;font-stretch:normal;font-size:28.80475426px;font-family:'Franklin Gothic Heavy';-inkscape-font-specification:'Franklin Gothic Heavy, ';fill:#ffffff"
           id="path4400"
           inkscape:connector-curvature="0" />
      </g>
      <g
         style="font-style:normal;font-weight:normal;font-size:15px;line-height:125%;font-family:sans-serif;letter-spacing:0px;word-spacing:0px;fill:#000000;fill-opacity:1;stroke:none;stroke-width:1px;stroke-linecap:butt;stroke-linejoin:miter;stroke-opacity:1"
         id="text4269">
        <path
           d="m 247.44449,387.08698 0,-19.99512 7.73437,0 q 5.03907,0 7.54395,2.98828 2.50488,2.98828 2.50488,6.91406 0,4.48242 -2.69531,7.29492 -2.68066,2.79786 -6.97266,2.79786 l -8.11523,0 z m 6.13769,-4.59961 1.59668,0 q 1.52344,0 2.56348,-1.4795 1.05469,-1.47949 1.05469,-4.02832 0,-2.18261 -0.9375,-3.76465 -0.92285,-1.58203 -2.68067,-1.58203 l -1.59668,0 0,10.8545 z"
           style="font-style:normal;font-variant:normal;font-weight:normal;font-stretch:normal;font-size:30px;font-family:'Franklin Gothic Heavy';-inkscape-font-specification:'Franklin Gothic Heavy, ';fill:#ffffff"
           id="path4403"
           inkscape:connector-curvature="0" />
        <path
           d="m 282.64468,387.08698 -5.5664,0 q -0.20508,-0.95215 -0.20508,-2.08008 -1.58203,2.38769 -4.79004,2.38769 -2.63672,0 -3.95508,-1.34765 -1.30371,-1.34766 -1.30371,-3.09082 0,-2.3584 2.13867,-3.8086 2.15332,-1.46484 7.61719,-1.75781 l 0,-0.33691 q 0,-0.98145 -0.4541,-1.30372 -0.43945,-0.32226 -1.30371,-0.32226 -2.02149,0 -2.25586,1.62598 l -5.33203,-0.49805 q 1.14258,-4.67285 7.77832,-4.67285 1.80176,0 3.31054,0.36621 1.50879,0.35156 2.3877,1.11328 0.87891,0.76172 1.17188,1.61133 0.30761,0.84961 0.30761,3.2666 l 0,5.94726 q 0,1.69922 0.4541,2.9004 z m -6.06445,-6.97266 q -3.73535,0.39551 -3.73535,2.38769 0,1.34766 1.47949,1.34766 0.9375,0 1.59668,-0.55664 0.65918,-0.55664 0.65918,-2.46094 l 0,-0.71777 z"
           style="font-style:normal;font-variant:normal;font-weight:normal;font-stretch:normal;font-size:30px;font-family:'Franklin Gothic Heavy';-inkscape-font-specification:'Franklin Gothic Heavy, ';fill:#ffffff"
           id="path4405"
           inkscape:connector-curvature="0" />
        <path
           d="m 298.61148,372.18951 -5.46387,14.89747 -4.36523,0 -5.56641,-14.89747 6.00586,0 2.12403,6.32813 q 0.26367,0.77637 0.46875,1.53809 0.0732,-0.26368 0.21972,-0.67383 0.0293,-0.0586 0.19043,-0.55664 l 2.19727,-6.63575 4.18945,0 z"
           style="font-style:normal;font-variant:normal;font-weight:normal;font-stretch:normal;font-size:30px;font-family:'Franklin Gothic Heavy';-inkscape-font-specification:'Franklin Gothic Heavy, ';fill:#ffffff"
           id="path4407"
           inkscape:connector-curvature="0" />
        <path
           d="m 305.87711,366.46198 0,4.6289 -5.84473,0 0,-4.6289 5.84473,0 z m 0,5.72753 0,14.89747 -5.84473,0 0,-14.89747 5.84473,0 z"
           style="font-style:normal;font-variant:normal;font-weight:normal;font-stretch:normal;font-size:30px;font-family:'Franklin Gothic Heavy';-inkscape-font-specification:'Franklin Gothic Heavy, ';fill:#ffffff"
           id="path4409"
           inkscape:connector-curvature="0" />
        <path
           d="m 323.48453,387.08698 -5.47852,0 0,-1.97754 q -1.21582,2.28515 -4.01367,2.28515 -2.57812,0 -4.18945,-2.00683 -1.59668,-2.02149 -1.59668,-5.85938 0,-3.58887 1.61133,-5.69824 1.61132,-2.10938 4.26269,-2.10938 2.21191,0 3.64746,1.68457 l 0,-6.31347 5.75684,0 0,19.99512 z m -5.75684,-9.58008 q 0,-2.00684 -1.65527,-2.00684 -1.15723,0 -1.52344,1.27442 -0.35156,1.27441 -0.35156,3.12011 0,3.61817 1.8457,3.61817 0.70313,0 1.18652,-0.57129 0.49805,-0.57129 0.49805,-1.74317 l 0,-3.6914 z"
           style="font-style:normal;font-variant:normal;font-weight:normal;font-stretch:normal;font-size:30px;font-family:'Franklin Gothic Heavy';-inkscape-font-specification:'Franklin Gothic Heavy, ';fill:#ffffff"
           id="path4411"
           inkscape:connector-curvature="0" />
      </g>
      <g
         transform="matrix(0,-1,1,0,0,0)"
         style="font-style:normal;font-weight:normal;font-size:15px;line-height:125%;font-family:sans-serif;letter-spacing:0px;word-spacing:0px;fill:#000000;fill-opacity:1;stroke:none;stroke-width:1px;stroke-linecap:butt;stroke-linejoin:miter;stroke-opacity:1"
         id="text4265">
        <path
           d="m -382.56888,236.81993 0,1.73889 -1.36291,0 0,2.5177 q 0,0.51697 0.1947,0.61768 0.1947,0.094 0.40283,0.094 0.32227,0 0.76538,-0.11413 l 0,1.90674 q -0.79223,0.15441 -1.55762,0.15441 -1.23535,0 -1.81945,-0.53039 -0.5774,-0.5304 -0.5774,-1.6919 l 0.007,-0.79895 0,-2.15515 -1.02051,0 0,-1.73889 1.02051,0 0.0403,-2.22229 2.54456,-0.0403 0,2.26257 1.36291,0 z"
           style="font-style:normal;font-variant:normal;font-weight:normal;font-stretch:normal;font-size:13.75px;font-family:'Franklin Gothic Heavy';-inkscape-font-specification:'Franklin Gothic Heavy, ';fill:#ffffff"
           id="path4414"
           inkscape:connector-curvature="0" />
        <path
           d="m -374.97549,243.64793 -2.67212,0 0,-4.10888 q 0,-0.56397 -0.12757,-0.7721 -0.12085,-0.21484 -0.47668,-0.21484 -0.27527,0 -0.4834,0.16785 -0.20142,0.16113 -0.23499,0.33569 -0.0336,0.17456 -0.0336,0.73181 l 0,3.86047 -2.67884,0 0,-9.16442 2.67884,0 0,3.14209 q 0.72509,-0.94666 1.89331,-0.94666 0.59082,0 1.03393,0.20813 0.44983,0.20142 0.69153,0.52368 0.2417,0.32227 0.32227,0.62439 0.0873,0.30213 0.0873,1.16821 l 0,4.44458 z"
           style="font-style:normal;font-variant:normal;font-weight:normal;font-stretch:normal;font-size:13.75px;font-family:'Franklin Gothic Heavy';-inkscape-font-specification:'Franklin Gothic Heavy, ';fill:#ffffff"
           id="path4416"
           inkscape:connector-curvature="0" />
        <path
           d="m -369.03372,241.19737 2.49756,0.16785 q -0.22156,1.00708 -1.13465,1.71875 -0.90637,0.70496 -2.45727,0.70496 -1.72547,0 -2.75269,-0.99366 -1.02722,-1.00036 -1.02722,-2.47741 0,-1.53077 1.01379,-2.58484 1.0138,-1.05408 2.70569,-1.05408 1.63819,0 2.64527,0.99365 1.01379,0.99365 1.01379,2.70569 0,0.14099 -0.007,0.3894 l -4.57215,0 q 0.0134,0.64454 0.22827,0.96009 0.21485,0.30884 0.8191,0.30884 0.8728,0 1.02722,-0.83924 z m -0.17456,-1.77246 q -0.007,-0.69153 -0.28198,-0.92651 -0.26856,-0.2417 -0.67139,-0.2417 -0.95337,0 -0.95337,1.16821 l 1.90674,0 z"
           style="font-style:normal;font-variant:normal;font-weight:normal;font-stretch:normal;font-size:13.75px;font-family:'Franklin Gothic Heavy';-inkscape-font-specification:'Franklin Gothic Heavy, ';fill:#ffffff"
           id="path4418"
           inkscape:connector-curvature="0" />
      </g>
      <g
         transform="scale(0.98697546,1.0131964)"
         style="font-style:normal;font-weight:normal;font-size:14.80463219px;line-height:125%;font-family:sans-serif;letter-spacing:0px;word-spacing:0px;fill:#000000;fill-opacity:1;stroke:none;stroke-width:1px;stroke-linecap:butt;stroke-linejoin:miter;stroke-opacity:1"
         id="text4281">
        <path
           d="m 255.77117,409.3889 -0.15663,4.27585 -0.29758,-0.0157 q -0.84578,-0.047 -1.20601,-0.047 -1.45661,0 -1.7542,0.57951 1.78552,1.47227 1.78552,3.55538 0,2.44334 -1.94214,3.68067 -1.92648,1.22167 -5.24692,1.22167 -0.0783,0 -0.81445,-0.0313 -0.68915,-0.0313 -0.72047,-0.0313 -1.51926,0 -1.51926,0.78313 0,0.68914 1.34697,0.73613 l 5.12162,0.21928 q 2.80358,0.12529 4.10356,1.56624 1.31565,1.44095 1.31565,3.36743 0,2.28672 -1.95781,3.72766 -1.94214,1.45661 -7.58062,1.45661 -8.69267,0 -8.69267,-3.99393 0,-2.17708 2.30238,-3.03851 -1.48793,-1.04939 -1.48793,-2.49033 0,-2.34937 3.05418,-3.53972 -2.55298,-1.11203 -2.55298,-3.69633 0,-2.36503 2.06744,-3.68068 2.06745,-1.31565 5.66981,-1.31565 1.64456,0 2.99153,0.32891 0.54819,-3.74332 3.9626,-3.74332 0.78312,0 2.20841,0.1253 z m -9.14688,10.29023 q 1.81685,0 1.81685,-1.92648 0,-1.97347 -1.86383,-1.97347 -1.84817,0 -1.84817,2.00479 0,1.89516 1.89515,1.89516 z m -1.59757,9.0529 q -0.34457,-0.0157 -0.68914,-0.0157 -1.61324,0 -1.61324,1.0024 0,0.92409 1.22167,1.19035 1.23734,0.26626 3.28912,0.26626 1.94214,0 2.49033,-0.32891 0.56385,-0.32891 0.56385,-0.90842 0,-0.40723 -0.2506,-0.68915 -0.2506,-0.26626 -1.19035,-0.31325 l -3.82164,-0.20361 z"
           style="font-style:normal;font-variant:normal;font-weight:normal;font-stretch:normal;font-size:32.07670212px;font-family:'Franklin Gothic Heavy';-inkscape-font-specification:'Franklin Gothic Heavy, ';letter-spacing:-1.1152823px;fill:#ffffff"
           id="path4421"
           inkscape:connector-curvature="0" />
        <path
           d="m 262.59675,406.88291 0,4.94933 -6.24932,0 0,-4.94933 6.24932,0 z m 0,6.12401 0,15.92872 -6.24932,0 0,-15.92872 6.24932,0 z"
           style="font-style:normal;font-variant:normal;font-weight:normal;font-stretch:normal;font-size:32.07670212px;font-family:'Franklin Gothic Heavy';-inkscape-font-specification:'Franklin Gothic Heavy, ';letter-spacing:-1.1152823px;fill:#ffffff"
           id="path4423"
           inkscape:connector-curvature="0" />
        <path
           d="m 274.59094,413.00692 0,4.05658 -3.17948,0 0,5.87342 q 0,1.20601 0.45421,1.44094 0.45421,0.21928 0.93975,0.21928 0.7518,0 1.78552,-0.26626 l 0,4.44813 q -1.84817,0.36024 -3.63369,0.36024 -2.88189,0 -4.24452,-1.23733 -1.34698,-1.23734 -1.34698,-3.94694 l 0.0157,-1.86383 0,-5.02765 -2.3807,0 0,-4.05658 2.3807,0 0.094,-5.18427 5.93607,-0.094 0,5.27824 3.17948,0 z"
           style="font-style:normal;font-variant:normal;font-weight:normal;font-stretch:normal;font-size:32.07670212px;font-family:'Franklin Gothic Heavy';-inkscape-font-specification:'Franklin Gothic Heavy, ';letter-spacing:-1.1152823px;fill:#ffffff"
           id="path4425"
           inkscape:connector-curvature="0" />
        <path
           d="m 291.18989,428.93564 -6.23366,0 0,-9.58542 q 0,-1.31565 -0.29758,-1.80118 -0.28193,-0.5012 -1.11204,-0.5012 -0.64216,0 -1.1277,0.39156 -0.46987,0.3759 -0.54818,0.78312 -0.0783,0.40722 -0.0783,1.70721 l 0,9.00591 -6.24932,0 0,-21.37925 6.24932,0 0,7.33003 q 1.69154,-2.20841 4.41681,-2.20841 1.37829,0 2.41202,0.48554 1.04938,0.46987 1.61323,1.22167 0.56385,0.7518 0.7518,1.45661 0.20361,0.70481 0.20361,2.72527 l 0,10.36854 z"
           style="font-style:normal;font-variant:normal;font-weight:normal;font-stretch:normal;font-size:32.07670212px;font-family:'Franklin Gothic Heavy';-inkscape-font-specification:'Franklin Gothic Heavy, ';letter-spacing:-1.1152823px;fill:#ffffff"
           id="path4427"
           inkscape:connector-curvature="0" />
        <path
           d="m 308.90087,413.00692 0,15.92872 -5.77944,0 0,-2.61563 q -1.26866,2.94454 -4.94934,2.94454 -2.27105,0 -3.52405,-1.253 -1.23733,-1.26865 -1.23733,-3.61802 l 0,-11.38661 6.24932,0 0,10.02397 q 0,0.93975 0.2506,1.33131 0.26626,0.3759 1.01806,0.3759 0.79878,0 1.29998,-0.56385 0.5012,-0.57951 0.5012,-1.61323 l 0,-9.5541 6.171,0 z"
           style="font-style:normal;font-variant:normal;font-weight:normal;font-stretch:normal;font-size:32.07670212px;font-family:'Franklin Gothic Heavy';-inkscape-font-specification:'Franklin Gothic Heavy, ';letter-spacing:-1.1152823px;fill:#ffffff"
           id="path4429"
           inkscape:connector-curvature="0" />
        <path
           d="m 314.64575,428.93564 -3.52405,0 0,-21.37925 6.15534,0 0,7.34569 q 1.28432,-2.22407 4.0879,-2.22407 1.97347,0 3.35177,1.03372 1.37829,1.03373 2.05178,2.96021 0.67348,1.91082 0.67348,4.02525 0,3.85296 -1.72287,6.21799 -1.72287,2.34937 -5.13728,2.34937 -3.36743,0 -5.12162,-2.52165 -0.5012,0.93974 -0.81445,2.19274 z m 2.63129,-5.93607 q 0,2.34937 1.81685,2.34937 0.98673,0 1.50359,-0.84578 0.53253,-0.86143 0.53253,-3.52405 0,-2.89755 -0.59518,-3.63369 -0.59517,-0.75179 -1.47227,-0.75179 -0.68915,0 -1.23733,0.53252 -0.54819,0.53252 -0.54819,1.55058 l 0,4.32284 z"
           style="font-style:normal;font-variant:normal;font-weight:normal;font-stretch:normal;font-size:32.07670212px;font-family:'Franklin Gothic Heavy';-inkscape-font-specification:'Franklin Gothic Heavy, ';letter-spacing:-1.1152823px;fill:#ffffff"
           id="path4431"
           inkscape:connector-curvature="0" />
      </g>
      <g
         transform="matrix(0,1,-1,0,0,0)"
         style="font-style:normal;font-weight:normal;font-size:15px;line-height:125%;font-family:sans-serif;letter-spacing:0px;word-spacing:0px;fill:#000000;fill-opacity:1;stroke:none;stroke-width:1px;stroke-linecap:butt;stroke-linejoin:miter;stroke-opacity:1"
         id="text4307">
        <path
           d="m 441.06406,-315.27698 0,2.67334 -2.78321,0 0,-2.67334 2.78321,0 z"
           style="font-style:normal;font-variant:normal;font-weight:normal;font-stretch:normal;font-family:'Franklin Gothic Heavy';-inkscape-font-specification:'Franklin Gothic Heavy, ';fill:#ffffff"
           id="path4434"
           inkscape:connector-curvature="0" />
        <path
           d="m 445.42929,-322.91614 0,2.31446 -2.92236,0 0,-2.31446 2.92236,0 z m 0,2.86377 0,7.44873 -2.92236,0 0,-7.44873 2.92236,0 z"
           style="font-style:normal;font-variant:normal;font-weight:normal;font-stretch:normal;font-family:'Franklin Gothic Heavy';-inkscape-font-specification:'Franklin Gothic Heavy, ';fill:#ffffff"
           id="path4436"
           inkscape:connector-curvature="0" />
        <path
           d="m 450.60019,-312.44983 q -1.85303,0 -2.94434,-1.1499 -1.09131,-1.15723 -1.09131,-2.70996 0,-1.66992 1.13526,-2.78321 1.14258,-1.11328 2.96631,-1.11328 1.83838,0 2.95166,1.09864 1.1206,1.09863 1.1206,2.7539 0,1.66992 -1.13525,2.79053 -1.12793,1.11328 -3.00293,1.11328 z m 0.0439,-1.77246 q 0.68116,0 0.82764,-0.70313 0.15381,-0.71044 0.15381,-1.47949 0,-1.04736 -0.2124,-1.50879 -0.2124,-0.46142 -0.76172,-0.46142 -0.50537,0 -0.73975,0.47607 -0.23437,0.47608 -0.23437,1.56738 0,1.28174 0.2417,1.69922 0.2417,0.41016 0.72509,0.41016 z"
           style="font-style:normal;font-variant:normal;font-weight:normal;font-stretch:normal;font-family:'Franklin Gothic Heavy';-inkscape-font-specification:'Franklin Gothic Heavy, ';fill:#ffffff"
           id="path4438"
           inkscape:connector-curvature="0" />
      </g>
    </g>
  </g>
</svg>
