<?xml version="1.0" encoding="UTF-8" standalone="no"?>
<!-- Created with Inkscape (http://www.inkscape.org/) -->

<svg
   xmlns:dc="http://purl.org/dc/elements/1.1/"
   xmlns:cc="http://creativecommons.org/ns#"
   xmlns:rdf="http://www.w3.org/1999/02/22-rdf-syntax-ns#"
   xmlns:svg="http://www.w3.org/2000/svg"
   xmlns="http://www.w3.org/2000/svg"
   xmlns:sodipodi="http://sodipodi.sourceforge.net/DTD/sodipodi-0.dtd"
   xmlns:inkscape="http://www.inkscape.org/namespaces/inkscape"
   width="83.705482mm"
   height="26.565584mm"
   viewBox="0 0 296.59423 94.130022"
   id="svg2"
   version="1.1"
   inkscape:version="0.91 r13725"
   sodipodi:docname="logo.svg">
  <defs
     id="defs4" />
  <sodipodi:namedview
     id="base"
     pagecolor="#ffffff"
     bordercolor="#666666"
     borderopacity="1.0"
     inkscape:pageopacity="0.0"
     inkscape:pageshadow="2"
     inkscape:zoom="1.76"
     inkscape:cx="148.73605"
     inkscape:cy="35.34176"
     inkscape:document-units="px"
     inkscape:current-layer="layer1"
     showgrid="false"
     fit-margin-top="0"
     fit-margin-left="0"
     fit-margin-right="0"
     fit-margin-bottom="0"
     inkscape:window-width="1440"
     inkscape:window-height="837"
     inkscape:window-x="-8"
     inkscape:window-y="-8"
     inkscape:window-maximized="1" />
  <metadata
     id="metadata7">
    <rdf:RDF>
      <cc:Work
         rdf:about="">
        <dc:format>image/svg+xml</dc:format>
        <dc:type
           rdf:resource="http://purl.org/dc/dcmitype/StillImage" />
        <dc:title></dc:title>
      </cc:Work>
    </rdf:RDF>
  </metadata>
  <g
     inkscape:label="Layer 1"
     inkscape:groupmode="layer"
     id="layer1"
     transform="translate(-63.673473,-357.60082)">
    <g
       style="font-style:normal;font-weight:normal;font-size:40px;line-height:85.00000238%;font-family:sans-serif;letter-spacing:0px;word-spacing:0px;fill:#ffffff;fill-opacity:1;stroke:none;stroke-width:1px;stroke-linecap:butt;stroke-linejoin:miter;stroke-opacity:1"
       id="text4136">
      <path
         d="m 76.319958,367.72045 0,4.42627 -3.469239,0 0,6.40869 q 0,1.31592 0.495606,1.57226 0.495605,0.23926 1.025391,0.23926 0.820312,0 1.948242,-0.29052 l 0,4.85351 q -2.016602,0.39307 -3.964844,0.39307 -3.144531,0 -4.631348,-1.3501 -1.469726,-1.3501 -1.469726,-4.30664 l 0.01709,-2.03369 0,-5.48584 -2.597657,0 0,-4.42627 2.597657,0 0.102539,-5.65674 6.47705,-0.10254 0,5.75928 3.469239,0 z"
         style="font-size:35px;fill:#ffffff;fill-opacity:1"
         id="path4151"
         inkscape:connector-curvature="0" />
      <path
         d="m 95.648571,385.10082 -6.801758,0 0,-10.45899 q 0,-1.43554 -0.324707,-1.96533 -0.307617,-0.54687 -1.213379,-0.54687 -0.700683,0 -1.230468,0.42724 -0.512696,0.41016 -0.598145,0.8545 -0.08545,0.44433 -0.08545,1.86279 l 0,9.82666 -6.818848,0 0,-23.32764 6.818848,0 0,7.99805 q 1.845703,-2.40967 4.819336,-2.40967 1.503906,0 2.631836,0.52979 1.145019,0.51269 1.760254,1.333 0.615234,0.82032 0.820312,1.58936 0.222168,0.76904 0.222168,2.97363 l 0,11.31348 z"
         style="font-size:35px;fill:#ffffff;fill-opacity:1"
         id="path4153"
         inkscape:connector-curvature="0" />
      <path
         d="m 110.77308,378.86303 6.35742,0.42724 q -0.56396,2.56348 -2.88818,4.375 -2.30713,1.79444 -6.25488,1.79444 -4.39209,0 -7.00684,-2.5293 -2.614744,-2.54639 -2.614744,-6.30615 0,-3.89649 2.580564,-6.57959 2.58057,-2.68311 6.88721,-2.68311 4.16992,0 6.7334,2.5293 2.58056,2.5293 2.58056,6.88721 0,0.35888 -0.0171,0.99121 l -11.63818,0 q 0.0342,1.64062 0.58106,2.44384 0.54687,0.78614 2.08496,0.78614 2.22168,0 2.61474,-2.13623 z m -0.44433,-4.51172 q -0.0171,-1.76026 -0.71778,-2.3584 -0.68359,-0.61524 -1.70898,-0.61524 -2.42676,0 -2.42676,2.97364 l 4.85352,0 z"
         style="font-size:35px;fill:#ffffff;fill-opacity:1"
         id="path4155"
         inkscape:connector-curvature="0" />
      <path
         d="m 120.32631,385.10082 0,-26.66016 10.3125,0 q 6.71875,0 10.05859,3.98438 3.33984,3.98437 3.33984,9.21875 0,5.97656 -3.59375,9.72656 -3.57422,3.73047 -9.29687,3.73047 l -10.82031,0 z m 8.18359,-6.13281 2.12891,0 q 2.03125,0 3.41796,-1.97266 1.40625,-1.97266 1.40625,-5.37109 0,-2.91016 -1.25,-5.01953 -1.23046,-2.10938 -3.57421,-2.10938 l -2.12891,0 0,14.47266 z"
         style="font-style:normal;font-variant:normal;font-weight:normal;font-stretch:normal;line-height:85.00000238%;font-family:'Franklin Gothic Heavy';-inkscape-font-specification:'Franklin Gothic Heavy, ';fill:#ffffff;fill-opacity:1"
         id="path4157"
         inkscape:connector-curvature="0" />
      <path
         d="m 167.2599,385.10082 -7.42188,0 q -0.27343,-1.26953 -0.27343,-2.77344 -2.10938,3.1836 -6.38672,3.1836 -3.51563,0 -5.27344,-1.79688 -1.73828,-1.79687 -1.73828,-4.12109 0,-3.14453 2.85156,-5.07813 2.8711,-1.95312 10.15625,-2.34375 l 0,-0.44922 q 0,-1.30859 -0.60547,-1.73828 -0.58593,-0.42969 -1.73828,-0.42969 -2.69531,0 -3.00781,2.16797 l -7.10938,-0.66406 q 1.52344,-6.23047 10.3711,-6.23047 2.40234,0 4.41406,0.48828 2.01172,0.46875 3.18359,1.48438 1.17188,1.01562 1.5625,2.14844 0.41016,1.13281 0.41016,4.35546 l 0,7.92969 q 0,2.26563 0.60547,3.86719 z m -8.08594,-9.29688 q -4.98047,0.52735 -4.98047,3.1836 0,1.79687 1.97266,1.79687 1.25,0 2.12891,-0.74218 0.8789,-0.74219 0.8789,-3.28125 l 0,-0.95704 z"
         style="font-style:normal;font-variant:normal;font-weight:normal;font-stretch:normal;line-height:85.00000238%;font-family:'Franklin Gothic Heavy';-inkscape-font-specification:'Franklin Gothic Heavy, ';fill:#ffffff;fill-opacity:1"
         id="path4159"
         inkscape:connector-curvature="0" />
      <path
         d="m 188.54896,365.23754 -7.28515,19.86328 -5.82032,0 -7.42187,-19.86328 8.00781,0 2.83203,8.4375 q 0.35156,1.03515 0.625,2.05078 0.0977,-0.35156 0.29297,-0.89844 0.0391,-0.0781 0.25391,-0.74219 l 2.92968,-8.84765 5.58594,0 z"
         style="font-style:normal;font-variant:normal;font-weight:normal;font-stretch:normal;line-height:85.00000238%;font-family:'Franklin Gothic Heavy';-inkscape-font-specification:'Franklin Gothic Heavy, ';fill:#ffffff;fill-opacity:1"
         id="path4161"
         inkscape:connector-curvature="0" />
      <path
         d="m 198.23646,357.60082 0,6.17187 -7.79297,0 0,-6.17187 7.79297,0 z m 0,7.63672 0,19.86328 -7.79297,0 0,-19.86328 7.79297,0 z"
         style="font-style:normal;font-variant:normal;font-weight:normal;font-stretch:normal;line-height:85.00000238%;font-family:'Franklin Gothic Heavy';-inkscape-font-specification:'Franklin Gothic Heavy, ';fill:#ffffff;fill-opacity:1"
         id="path4163"
         inkscape:connector-curvature="0" />
      <path
         d="m 221.71302,385.10082 -7.30468,0 0,-2.63672 q -1.6211,3.04688 -5.35157,3.04688 -3.4375,0 -5.58593,-2.67579 -2.12891,-2.69531 -2.12891,-7.8125 0,-4.78515 2.14844,-7.59765 2.14844,-2.8125 5.68359,-2.8125 2.94922,0 4.86328,2.24609 l 0,-8.41797 7.67578,0 0,26.66016 z m -7.67578,-12.77344 q 0,-2.67578 -2.20703,-2.67578 -1.54297,0 -2.03125,1.69922 -0.46875,1.69922 -0.46875,4.16016 0,4.82421 2.46094,4.82421 0.9375,0 1.58203,-0.76171 0.66406,-0.76172 0.66406,-2.32422 l 0,-4.92188 z"
         style="font-style:normal;font-variant:normal;font-weight:normal;font-stretch:normal;line-height:85.00000238%;font-family:'Franklin Gothic Heavy';-inkscape-font-specification:'Franklin Gothic Heavy, ';fill:#ffffff;fill-opacity:1"
         id="path4165"
         inkscape:connector-curvature="0" />
      <path
         d="m 226.10756,385.10082 0,-26.66016 13.53515,0 q 4.21875,0 6.15235,2.12891 1.93359,2.12891 1.93359,4.86328 0,1.99219 -1.13281,3.61328 -1.11328,1.60156 -3.33985,2.20703 5.17578,1.25 5.17578,6.21094 0,2.96875 -1.83593,5.3125 -1.81641,2.32422 -7.79297,2.32422 l -12.69531,0 z m 7.53906,-16.44531 3.78906,0 q 1.42578,0 2.01172,-0.72266 0.58594,-0.72266 0.58594,-1.54297 0,-2.22656 -2.73438,-2.22656 l -3.65234,0 0,4.49219 z m 0,10.50781 3.98437,0 q 1.48438,0 2.16797,-0.72266 0.70313,-0.74218 0.70313,-1.66015 0,-0.91797 -0.6836,-1.67969 -0.66406,-0.78125 -2.46093,-0.78125 l -3.71094,0 0,4.84375 z"
         style="font-style:normal;font-variant:normal;font-weight:normal;font-stretch:normal;line-height:85.00000238%;font-family:'Franklin Gothic Heavy';-inkscape-font-specification:'Franklin Gothic Heavy, ';fill:#ffffff;fill-opacity:1"
         id="path4167"
         inkscape:connector-curvature="0" />
      <path
         d="m 271.55677,385.10082 -7.42187,0 q -0.27344,-1.26953 -0.27344,-2.77344 -2.10937,3.1836 -6.38672,3.1836 -3.51562,0 -5.27343,-1.79688 -1.73829,-1.79687 -1.73829,-4.12109 0,-3.14453 2.85157,-5.07813 2.87109,-1.95312 10.15625,-2.34375 l 0,-0.44922 q 0,-1.30859 -0.60547,-1.73828 -0.58594,-0.42969 -1.73828,-0.42969 -2.69532,0 -3.00782,2.16797 l -7.10937,-0.66406 q 1.52344,-6.23047 10.37109,-6.23047 2.40235,0 4.41407,0.48828 2.01171,0.46875 3.18359,1.48438 1.17187,1.01562 1.5625,2.14844 0.41016,1.13281 0.41016,4.35546 l 0,7.92969 q 0,2.26563 0.60546,3.86719 z m -8.08593,-9.29688 q -4.98047,0.52735 -4.98047,3.1836 0,1.79687 1.97265,1.79687 1.25,0 2.12891,-0.74218 0.87891,-0.74219 0.87891,-3.28125 l 0,-0.95704 z"
         style="font-style:normal;font-variant:normal;font-weight:normal;font-stretch:normal;line-height:85.00000238%;font-family:'Franklin Gothic Heavy';-inkscape-font-specification:'Franklin Gothic Heavy, ';fill:#ffffff;fill-opacity:1"
         id="path4169"
         inkscape:connector-curvature="0" />
      <path
         d="m 282.43568,385.10082 -7.46094,0 0,-19.86328 6.48438,0 0,4.10156 q 1.11328,-4.47266 5.17578,-4.47266 0.41016,0 1.13281,0.0781 l 0,6.93359 q -0.82031,-0.19531 -1.46484,-0.19531 -3.86719,0 -3.86719,4.31641 l 0,9.10156 z"
         style="font-style:normal;font-variant:normal;font-weight:normal;font-stretch:normal;line-height:85.00000238%;font-family:'Franklin Gothic Heavy';-inkscape-font-specification:'Franklin Gothic Heavy, ';fill:#ffffff;fill-opacity:1"
         id="path4171"
         inkscape:connector-curvature="0" />
      <path
         d="m 303.25599,365.23754 0,5.05859 -3.96484,0 0,7.32422 q 0,1.50391 0.56641,1.79688 0.5664,0.27343 1.17187,0.27343 0.9375,0 2.22656,-0.33203 l 0,5.54688 q -2.30468,0.44922 -4.53125,0.44922 -3.59375,0 -5.29297,-1.54297 -1.67968,-1.54297 -1.67968,-4.92188 l 0.0195,-2.32422 0,-6.26953 -2.96875,0 0,-5.05859 2.96875,0 0.11719,-6.46485 7.40234,-0.11718 0,6.58203 3.96484,0 z"
         style="font-style:normal;font-variant:normal;font-weight:normal;font-stretch:normal;line-height:85.00000238%;font-family:'Franklin Gothic Heavy';-inkscape-font-specification:'Franklin Gothic Heavy, ';fill:#ffffff;fill-opacity:1"
         id="path4173"
         inkscape:connector-curvature="0" />
      <path
         d="m 315.54115,385.51098 q -4.94141,0 -7.85156,-3.06641 -2.91016,-3.08594 -2.91016,-7.22656 0,-4.45313 3.02734,-7.42188 3.04688,-2.96875 7.91016,-2.96875 4.90234,0 7.87109,2.92969 2.98829,2.92969 2.98829,7.34375 0,4.45312 -3.02735,7.44141 -3.00781,2.96875 -8.00781,2.96875 z m 0.11719,-4.72657 q 1.8164,0 2.20703,-1.875 0.41015,-1.89453 0.41015,-3.94531 0,-2.79297 -0.5664,-4.02344 -0.56641,-1.23047 -2.03125,-1.23047 -1.34766,0 -1.97266,1.26954 -0.625,1.26953 -0.625,4.17968 0,3.41797 0.64453,4.53125 0.64453,1.09375 1.9336,1.09375 z"
         style="font-style:normal;font-variant:normal;font-weight:normal;font-stretch:normal;line-height:85.00000238%;font-family:'Franklin Gothic Heavy';-inkscape-font-specification:'Franklin Gothic Heavy, ';fill:#ffffff;fill-opacity:1"
         id="path4175"
         inkscape:connector-curvature="0" />
      <path
         d="m 348.97865,385.10082 -7.79297,0 0,-12.5 q 0,-1.54297 -0.48828,-1.97266 -0.46875,-0.42968 -1.19141,-0.42968 -2.1289,0 -2.1289,2.96875 l 0,11.93359 -7.79297,0 0,-19.86328 7.22656,0 0,2.8125 q 1.60156,-3.22266 5.72266,-3.22266 2.16797,0 3.65234,0.83985 1.50391,0.82031 2.14844,2.14843 0.64453,1.3086 0.64453,4.57032 l 0,12.71484 z"
         style="font-style:normal;font-variant:normal;font-weight:normal;font-stretch:normal;line-height:85.00000238%;font-family:'Franklin Gothic Heavy';-inkscape-font-specification:'Franklin Gothic Heavy, ';fill:#ffffff;fill-opacity:1"
         id="path4177"
         inkscape:connector-curvature="0" />
      <path
         d="m 360.26771,377.97191 0,7.12891 -7.42187,0 0,-7.12891 7.42187,0 z"
         style="font-style:normal;font-variant:normal;font-weight:normal;font-stretch:normal;line-height:85.00000238%;font-family:'Franklin Gothic Heavy';-inkscape-font-specification:'Franklin Gothic Heavy, ';fill:#ffffff;fill-opacity:1"
         id="path4179"
         inkscape:connector-curvature="0" />
      <path
         d="m 103.61244,397.07762 -0.3418,9.33105 -0.64941,-0.0342 q -1.84571,-0.10253 -2.631839,-0.10253 -3.178711,0 -3.828125,1.26464 3.896484,3.21289 3.896484,7.75879 0,5.33203 -4.238281,8.03223 -4.204101,2.66602 -11.450195,2.66602 -0.170898,0 -1.777344,-0.0684 -1.503906,-0.0684 -1.572265,-0.0684 -3.31543,0 -3.31543,1.70898 0,1.50391 2.939453,1.60645 l 11.176758,0.47851 q 6.118164,0.27344 8.955074,3.41797 2.8711,3.14453 2.8711,7.34863 0,4.99024 -4.272463,8.13477 -4.238281,3.17871 -16.542969,3.17871 -18.969726,0 -18.969726,-8.71582 0,-4.75098 5.024414,-6.63086 -3.247071,-2.29004 -3.247071,-5.43457 0,-5.12695 6.665039,-7.72461 -5.571289,-2.42676 -5.571289,-8.06641 0,-5.16113 4.511719,-8.03222 4.511719,-2.8711 12.373047,-2.8711 3.588867,0 6.52832,0.71778 1.196289,-8.16895 8.647461,-8.16895 1.708988,0 4.819338,0.27344 z m -19.960939,22.45605 q 3.964843,0 3.964843,-4.2041 0,-4.30664 -4.067382,-4.30664 -4.033203,0 -4.033203,4.375 0,4.13574 4.135742,4.13574 z m -3.486328,19.75586 q -0.751954,-0.0342 -1.503907,-0.0342 -3.520507,0 -3.520507,2.1875 0,2.01661 2.666015,2.59766 2.700195,0.58106 7.177735,0.58106 4.238281,0 5.43457,-0.71778 1.230469,-0.71777 1.230469,-1.98242 0,-0.88867 -0.546875,-1.50391 -0.546875,-0.58105 -2.597657,-0.68359 l -8.339843,-0.44434 z"
         style="font-style:normal;font-variant:normal;font-weight:normal;font-stretch:normal;font-size:70px;line-height:85.00000238%;font-family:'Franklin Gothic Heavy';-inkscape-font-specification:'Franklin Gothic Heavy, ';fill:#ffffff;fill-opacity:1"
         id="path4181"
         inkscape:connector-curvature="0" />
      <path
         d="m 120.94154,391.60887 0,10.80078 -13.6377,0 0,-10.80078 13.6377,0 z m 0,13.36426 0,34.76074 -13.6377,0 0,-34.76074 13.6377,0 z"
         style="font-style:normal;font-variant:normal;font-weight:normal;font-stretch:normal;font-size:70px;line-height:85.00000238%;font-family:'Franklin Gothic Heavy';-inkscape-font-specification:'Franklin Gothic Heavy, ';fill:#ffffff;fill-opacity:1"
         id="path4183"
         inkscape:connector-curvature="0" />
      <path
         d="m 149.54994,404.97313 0,8.85254 -6.93848,0 0,12.81738 q 0,2.63184 0.99121,3.14453 0.99121,0.47852 2.05078,0.47852 1.64063,0 3.89649,-0.58106 l 0,9.70703 q -4.0332,0.78614 -7.92969,0.78614 -6.28906,0 -9.26269,-2.7002 -2.93946,-2.70019 -2.93946,-8.61328 l 0.0342,-4.06738 0,-10.97168 -5.19531,0 0,-8.85254 5.19531,0 0.20508,-11.31348 12.9541,-0.20508 0,11.51856 6.93848,0 z"
         style="font-style:normal;font-variant:normal;font-weight:normal;font-stretch:normal;font-size:70px;line-height:85.00000238%;font-family:'Franklin Gothic Heavy';-inkscape-font-specification:'Franklin Gothic Heavy, ';fill:#ffffff;fill-opacity:1"
         id="path4185"
         inkscape:connector-curvature="0" />
      <path
         d="m 188.20716,439.73387 -13.60351,0 0,-20.91797 q 0,-2.87109 -0.64941,-3.93066 -0.61524,-1.09375 -2.42676,-1.09375 -1.40137,0 -2.46094,0.85449 -1.02539,0.82031 -1.19629,1.70898 -0.1709,0.88868 -0.1709,3.72559 l 0,19.65332 -13.63769,0 0,-46.65527 13.63769,0 0,15.99609 q 3.69141,-4.81934 9.63867,-4.81934 3.00782,0 5.26368,1.05957 2.29004,1.0254 3.5205,2.66602 1.23047,1.64063 1.64063,3.17871 0.44433,1.53809 0.44433,5.94727 l 0,22.62695 z"
         style="font-style:normal;font-variant:normal;font-weight:normal;font-stretch:normal;font-size:70px;line-height:85.00000238%;font-family:'Franklin Gothic Heavy';-inkscape-font-specification:'Franklin Gothic Heavy, ';fill:#ffffff;fill-opacity:1"
         id="path4187"
         inkscape:connector-curvature="0" />
      <path
         d="m 229.29115,404.97313 0,34.76074 -12.61231,0 0,-5.70801 q -2.76855,6.42578 -10.80078,6.42578 -4.95605,0 -7.69043,-2.73437 -2.70019,-2.76856 -2.70019,-7.89551 l 0,-24.84863 13.63769,0 0,21.875 q 0,2.05078 0.54688,2.90527 0.58105,0.82031 2.22168,0.82031 1.74316,0 2.83691,-1.23047 1.09375,-1.26464 1.09375,-3.5205 l 0,-20.84961 13.4668,0 z"
         style="font-style:normal;font-variant:normal;font-weight:normal;font-stretch:normal;font-size:70px;line-height:85.00000238%;font-family:'Franklin Gothic Heavy';-inkscape-font-specification:'Franklin Gothic Heavy, ';fill:#ffffff;fill-opacity:1"
         id="path4189"
         inkscape:connector-curvature="0" />
      <path
         d="m 244.26185,439.73387 -7.69043,0 0,-46.65527 13.43262,0 0,16.03027 q 2.80273,-4.85352 8.9209,-4.85352 4.30664,0 7.31445,2.25586 3.00781,2.25586 4.47754,6.45996 1.46973,4.16993 1.46973,8.78418 0,8.40821 -3.75977,13.56934 -3.75976,5.12695 -11.21094,5.12695 -7.34863,0 -11.17675,-5.50293 -1.09375,2.05078 -1.77735,4.78516 z m 5.74219,-12.9541 q 0,5.12695 3.96484,5.12695 2.15332,0 3.28125,-1.8457 1.16211,-1.87988 1.16211,-7.69043 0,-6.32324 -1.29883,-7.92969 -1.29882,-1.64062 -3.21289,-1.64062 -1.5039,0 -2.70019,1.16211 -1.19629,1.1621 -1.19629,3.38378 l 0,9.4336 z"
         style="font-style:normal;font-variant:normal;font-weight:normal;font-stretch:normal;font-size:70px;line-height:85.00000238%;font-family:'Franklin Gothic Heavy';-inkscape-font-specification:'Franklin Gothic Heavy, ';fill:#ffffff;fill-opacity:1"
         id="path4191"
         inkscape:connector-curvature="0" />
      <path
         d="m 290.19935,427.25828 0,12.47559 -12.98828,0 0,-12.47559 12.98828,0 z"
         style="font-style:normal;font-variant:normal;font-weight:normal;font-stretch:normal;font-size:70px;line-height:85.00000238%;font-family:'Franklin Gothic Heavy';-inkscape-font-specification:'Franklin Gothic Heavy, ';fill:#ffffff;fill-opacity:1"
         id="path4193"
         inkscape:connector-curvature="0" />
      <path
         d="m 310.57045,391.60887 0,10.80078 -13.6377,0 0,-10.80078 13.6377,0 z m 0,13.36426 0,34.76074 -13.6377,0 0,-34.76074 13.6377,0 z"
         style="font-style:normal;font-variant:normal;font-weight:normal;font-stretch:normal;font-size:70px;line-height:85.00000238%;font-family:'Franklin Gothic Heavy';-inkscape-font-specification:'Franklin Gothic Heavy, ';fill:#ffffff;fill-opacity:1"
         id="path4195"
         inkscape:connector-curvature="0" />
      <path
         d="m 334.70131,440.45164 q -8.64747,0 -13.74024,-5.36621 -5.09277,-5.40039 -5.09277,-12.64648 0,-7.79297 5.29785,-12.98828 5.33203,-5.19532 13.84277,-5.19532 8.5791,0 13.77442,5.12696 5.22949,5.12695 5.22949,12.85156 0,7.79297 -5.29785,13.02246 -5.26367,5.19531 -14.01367,5.19531 z m 0.20507,-8.27148 q 3.17871,0 3.86231,-3.28125 0.71777,-3.31543 0.71777,-6.9043 0,-4.88769 -0.99121,-7.04101 -0.99121,-2.15332 -3.55469,-2.15332 -2.3584,0 -3.45215,2.22168 -1.09375,2.22168 -1.09375,7.31445 0,5.98144 1.12793,7.92969 1.12793,1.91406 3.38379,1.91406 z"
         style="font-style:normal;font-variant:normal;font-weight:normal;font-stretch:normal;font-size:70px;line-height:85.00000238%;font-family:'Franklin Gothic Heavy';-inkscape-font-specification:'Franklin Gothic Heavy, ';fill:#ffffff;fill-opacity:1"
         id="path4197"
         inkscape:connector-curvature="0" />
    </g>
  </g>
</svg>
