<!DOCTYPE svg PUBLIC "-//W3C//DTD SVG 20010904//EN" "http://www.w3.org/TR/2001/REC-SVG-20010904/DTD/svg10.dtd">
<svg version="1.0" xmlns="http://www.w3.org/2000/svg" width="537px" height="638px" viewBox="0 0 5370 6380" preserveAspectRatio="xMidYMid meet">
<g id="layer101" fill="#010101" stroke="none">
 <path d="M2496 5893 c-7 -21 -59 -53 -87 -53 -10 0 -19 -4 -19 -10 0 -5 -9 -10 -20 -10 -31 0 -81 -31 -156 -96 -78 -67 -87 -77 -150 -159 -25 -33 -60 -76 -77 -95 -18 -19 -41 -48 -51 -65 -19 -28 -54 -69 -121 -140 -53 -56 -84 -99 -102 -142 -11 -26 -25 -43 -35 -43 -19 0 -73 24 -168 75 -36 20 -78 40 -95 45 -66 20 -173 63 -225 90 -30 16 -77 36 -105 45 -27 9 -61 21 -75 27 -14 6 -41 18 -60 26 -37 16 -62 28 -152 77 -76 40 -188 96 -213 106 -61 25 -152 53 -240 74 -71 18 -114 35 -151 60 -64 45 -120 49 -130 10 -8 -31 10 -55 41 -55 12 0 33 -8 46 -18 29 -22 92 -52 110 -52 18 0 249 -69 289 -87 90 -40 299 -148 313 -162 6 -6 17 -11 24 -11 7 0 36 -11 65 -24 29 -14 81 -34 115 -46 34 -11 79 -29 99 -40 35 -20 184 -81 234 -95 14 -5 54 -24 90 -43 122 -66 134 -72 149 -72 8 0 29 -14 47 -31 20 -20 45 -32 71 -36 l39 -5 12 -67 c7 -45 9 -182 5 -431 -5 -325 -7 -368 -23 -395 -10 -16 -45 -82 -78 -146 -33 -64 -67 -127 -75 -140 -38 -57 -51 -139 -55 -326 l-3 -183 -23 0 c-13 0 -29 -7 -36 -15 -7 -8 -18 -15 -24 -15 -18 0 -150 -205 -225 -350 -13 -25 -41 -63 -61 -85 -21 -22 -51 -65 -66 -95 -28 -54 -29 -59 -28 -203 1 -97 5 -152 13 -160 18 -18 91 -37 146 -37 41 0 63 8 119 40 37 22 70 40 71 40 2 0 5 -52 7 -115 2 -93 6 -118 21 -132 13 -13 22 -15 34 -7 14 9 16 40 18 249 1 229 3 244 28 325 15 47 27 103 27 125 0 22 5 56 11 75 25 79 31 148 38 415 8 313 14 348 77 460 65 117 162 317 175 365 18 65 112 204 165 244 43 33 146 122 206 179 16 15 32 27 35 27 3 0 16 9 30 20 14 11 37 20 50 20 13 0 34 5 46 11 35 18 6 -7 -33 -28 -38 -21 -49 -46 -30 -68 18 -21 42 -18 81 10 68 49 208 99 226 81 4 -3 -2 -6 -13 -7 -10 0 4 -7 32 -14 49 -13 70 -24 145 -72 19 -13 41 -23 50 -23 22 0 42 25 37 46 -3 18 -53 51 -98 65 -18 5 -9 8 36 8 47 1 67 -4 87 -19 14 -11 27 -20 30 -20 3 0 19 -12 35 -27 60 -57 163 -146 206 -179 53 -40 147 -179 165 -244 13 -48 110 -248 175 -365 63 -112 69 -147 77 -460 7 -267 13 -336 38 -415 6 -19 11 -53 11 -75 0 -22 12 -78 27 -125 25 -81 27 -96 28 -325 2 -209 4 -240 18 -249 12 -8 21 -6 34 7 15 14 19 39 21 132 2 63 6 115 8 115 2 0 24 -13 49 -28 l46 -28 -22 -25 c-25 -29 -22 -48 20 -148 17 -40 31 -75 31 -77 0 -2 -18 -4 -40 -4 -34 0 -41 -4 -46 -25 -5 -21 5 -64 31 -127 6 -14 2 -18 -18 -18 -34 0 -42 -28 -27 -91 14 -56 8 -69 -20 -51 -11 7 -35 12 -54 12 -43 0 -52 -22 -33 -76 8 -22 24 -73 37 -114 24 -82 43 -132 65 -170 7 -14 28 -51 45 -82 18 -31 59 -88 91 -127 32 -38 59 -73 59 -76 0 -8 -68 4 -110 19 -19 8 -53 19 -75 26 -22 7 -60 21 -85 32 -24 11 -61 23 -81 25 -32 5 -38 2 -44 -17 -11 -35 35 -154 80 -210 6 -8 29 -51 50 -95 22 -44 49 -94 62 -111 13 -17 30 -57 38 -89 18 -68 74 -197 110 -254 31 -50 31 -51 -1 -51 -31 0 -89 33 -98 55 -3 8 -11 15 -18 15 -6 0 -22 10 -35 22 -13 12 -38 31 -57 42 -55 34 -196 141 -274 208 -80 69 -95 76 -118 57 -18 -15 -10 -104 12 -129 7 -9 27 -43 45 -75 17 -33 43 -76 58 -95 46 -59 74 -110 61 -110 -7 0 -38 17 -69 38 -37 25 -113 57 -217 92 -87 29 -177 63 -199 75 -22 13 -56 28 -75 34 -19 6 -60 31 -90 56 -30 25 -62 48 -72 50 -9 3 -23 17 -32 30 -19 28 -61 34 -70 9 -9 -24 -7 -212 2 -218 14 -8 48 -181 34 -174 -4 2 -25 12 -47 22 -22 10 -54 29 -72 42 -17 13 -36 24 -41 24 -5 0 -36 19 -68 43 -33 24 -75 49 -94 57 -50 20 -147 87 -165 114 -15 22 -112 104 -164 138 -60 39 -91 15 -91 -70 0 -27 -3 -70 -6 -95 -6 -41 -9 -45 -25 -37 -21 12 -149 135 -149 145 0 10 -198 243 -248 291 -26 24 -52 44 -58 44 -7 0 -11 14 -10 33 1 27 -3 33 -23 35 -13 2 -35 -5 -50 -15 -44 -31 -178 -89 -187 -81 -6 7 25 53 110 162 62 79 67 89 64 129 l-3 42 -60 1 c-33 0 -64 1 -69 2 -5 1 19 31 53 67 50 52 62 70 59 92 -3 27 -5 28 -78 33 l-74 5 71 79 c80 89 98 118 90 140 -8 21 -86 22 -113 1 -22 -17 -34 -19 -34 -6 0 5 16 19 35 32 50 34 97 103 93 137 -3 25 -7 27 -61 32 l-58 5 35 34 c38 37 46 68 21 77 -22 9 -19 20 21 64 37 41 42 72 11 78 -35 7 -62 -8 -87 -45 -13 -21 -39 -55 -57 -76 -37 -41 -40 -58 -17 -77 13 -12 12 -16 -10 -37 -14 -13 -26 -32 -26 -42 0 -25 33 -52 71 -60 l33 -7 -32 -32 c-18 -18 -32 -36 -32 -41 0 -4 -9 -18 -20 -31 -22 -26 -26 -72 -7 -88 6 -6 27 -12 46 -14 l34 -3 -61 -63 c-34 -35 -62 -72 -62 -81 0 -33 33 -51 93 -51 31 0 57 -3 57 -6 0 -7 -63 -64 -71 -64 -13 0 -42 -68 -36 -84 8 -20 43 -34 109 -44 l49 -7 -34 -40 c-18 -22 -51 -65 -72 -95 -115 -164 -119 -171 -108 -188 22 -37 128 -20 271 42 45 19 82 31 82 25 0 -6 38 -52 85 -103 47 -51 93 -103 102 -117 9 -13 36 -45 60 -71 24 -26 43 -51 43 -56 0 -12 150 -162 163 -162 5 0 25 -12 44 -26 36 -27 71 -29 84 -4 4 8 11 59 14 113 4 53 10 97 14 97 4 0 45 -35 91 -78 89 -82 183 -152 205 -152 7 0 37 -16 66 -36 30 -20 95 -61 144 -90 88 -51 132 -81 188 -126 22 -18 31 -20 45 -12 20 13 20 51 -1 174 -25 141 -29 160 -38 166 -11 6 -12 84 -1 84 4 0 32 -20 62 -45 30 -25 75 -53 100 -62 25 -9 54 -23 66 -30 12 -7 79 -33 150 -57 174 -59 233 -83 270 -111 16 -13 51 -33 77 -45 26 -12 78 -51 116 -86 68 -63 96 -75 119 -52 19 19 14 35 -33 99 -25 34 -45 67 -45 74 0 6 -12 25 -27 41 -16 16 -41 50 -58 75 -16 25 -45 68 -62 94 -18 27 -33 53 -33 58 0 13 69 -29 142 -88 36 -29 80 -60 96 -69 16 -8 37 -26 46 -40 9 -15 21 -26 26 -26 6 0 32 -16 59 -35 46 -33 55 -36 131 -38 68 -2 84 1 93 15 14 21 -5 80 -38 120 -34 40 -92 168 -117 256 -12 42 -35 93 -50 113 -15 20 -28 43 -29 50 0 8 -9 28 -19 44 -11 17 -28 48 -40 70 -11 22 -32 60 -45 85 -13 24 -23 46 -21 47 2 2 23 -3 47 -12 24 -9 58 -20 74 -24 17 -4 39 -12 50 -18 11 -6 50 -16 88 -23 37 -7 70 -16 73 -21 8 -13 68 -11 82 3 7 7 12 20 12 31 0 20 -94 151 -146 203 -16 17 -38 46 -48 65 -30 57 -42 78 -58 96 -13 15 -89 223 -84 230 1 1 19 -2 40 -8 51 -14 66 0 66 62 0 49 0 49 33 49 67 0 73 38 22 134 l-34 65 41 -2 c58 -3 70 20 40 76 -12 23 -22 49 -22 58 0 9 -7 34 -16 55 -9 21 -16 57 -16 78 1 22 -4 48 -9 58 -9 16 -5 18 38 18 53 0 126 19 144 37 8 8 12 63 13 160 1 144 0 149 -28 203 -15 30 -45 73 -66 95 -20 22 -48 60 -61 85 -75 145 -207 350 -225 350 -6 0 -17 7 -24 15 -7 8 -23 15 -36 15 l-23 0 -3 183 c-4 187 -17 269 -55 326 -8 13 -42 76 -75 140 -33 64 -72 135 -85 159 -25 42 -25 45 -15 150 5 59 15 125 22 147 6 22 14 56 17 75 3 19 9 40 12 45 4 6 18 44 30 85 13 41 30 89 37 107 8 17 14 38 14 46 0 9 4 18 9 21 5 3 19 50 31 103 40 176 31 158 82 155 37 -2 60 5 134 44 95 50 154 87 190 119 23 21 48 39 124 93 25 18 68 38 95 46 28 8 77 24 109 35 33 12 69 21 82 21 23 0 154 70 189 101 11 10 61 36 110 59 50 23 108 51 130 63 97 51 151 75 217 96 44 15 61 33 56 63 -4 28 -37 35 -70 15 -13 -8 -35 -18 -51 -21 -35 -8 -131 -52 -177 -81 -19 -12 -57 -29 -83 -38 -27 -9 -71 -30 -98 -47 -27 -16 -53 -30 -58 -30 -4 0 -16 -9 -26 -20 -10 -11 -46 -34 -79 -51 -56 -29 -80 -37 -161 -55 -16 -3 -48 -15 -71 -25 -22 -10 -48 -19 -58 -19 -9 0 -27 -5 -39 -11 -35 -19 -191 -131 -204 -147 -14 -17 -25 -24 -122 -75 -57 -30 -71 -34 -71 -21 0 9 -33 49 -72 89 -40 39 -89 92 -108 116 -36 45 -249 259 -258 259 -5 0 -78 33 -114 51 -10 5 -22 9 -28 9 -6 0 -27 11 -48 24 -20 12 -48 26 -62 30 -14 4 -35 11 -47 17 -13 5 -33 13 -45 18 -26 11 -174 47 -230 57 -21 3 -42 12 -49 20 -6 8 -17 14 -24 14 -7 0 -23 11 -36 24 -14 13 -41 27 -61 31 -20 4 -39 13 -42 21 -8 21 -73 18 -80 -3z m164 -127 c30 -20 71 -41 90 -46 60 -16 164 -42 190 -47 14 -3 43 -13 65 -23 22 -9 51 -21 65 -25 14 -4 63 -25 110 -47 47 -22 102 -49 124 -58 48 -23 180 -150 264 -255 35 -44 82 -96 105 -116 36 -32 40 -39 28 -53 -7 -9 -23 -16 -36 -16 -28 0 -47 -42 -75 -165 -21 -93 -56 -203 -70 -220 -4 -5 -10 -23 -13 -40 -2 -16 -16 -61 -30 -100 -14 -38 -28 -83 -31 -100 -3 -16 -14 -61 -24 -99 l-19 -68 -21 28 c-57 77 -80 102 -125 139 -27 22 -70 59 -96 82 -82 74 -151 133 -174 147 -27 17 -375 24 -555 11 -106 -8 -116 -10 -152 -39 -75 -60 -135 -111 -166 -141 -16 -16 -53 -48 -80 -70 -28 -22 -63 -57 -80 -78 -16 -21 -39 -50 -52 -65 l-23 -27 6 276 c7 282 1 364 -32 437 -12 27 -20 33 -41 32 -50 -4 -52 -2 -45 33 6 29 28 74 43 87 4 3 13 15 22 28 9 13 42 51 75 85 32 34 74 83 93 108 141 188 277 330 355 372 67 36 191 77 220 73 17 -2 55 -20 85 -40z m67 -1143 c-4 -3 -10 -3 -14 0 -3 4 0 7 7 7 7 0 10 -3 7 -7z m1037 -1469 c14 -15 26 -31 26 -36 0 -5 13 -26 30 -46 16 -20 47 -71 69 -112 22 -41 50 -92 61 -112 11 -21 41 -61 66 -90 79 -88 102 -162 89 -292 l-7 -74 -44 -12 c-37 -11 -49 -10 -78 4 -19 9 -38 21 -41 26 -3 6 -13 10 -22 10 -39 0 -103 116 -103 189 0 14 -10 60 -21 101 -12 41 -25 107 -29 147 -5 39 -13 87 -18 105 -18 55 -32 137 -32 179 0 47 16 51 54 13z m-2184 -23 c0 -42 -14 -124 -32 -179 -5 -18 -13 -66 -18 -105 -4 -40 -17 -106 -29 -147 -11 -41 -21 -87 -21 -101 0 -73 -64 -189 -103 -189 -9 0 -19 -4 -22 -10 -3 -5 -22 -17 -41 -26 -29 -14 -41 -15 -78 -4 l-44 12 -7 74 c-13 130 10 204 89 292 25 29 55 69 66 90 11 20 39 71 61 112 22 41 53 92 69 112 17 20 30 41 30 46 0 14 51 62 66 62 10 0 14 -13 14 -39z"/>
 <path d="M2442 3860 c-29 -22 -57 -40 -62 -40 -5 0 -11 -8 -14 -18 -4 -10 -20 -28 -36 -41 -29 -21 -110 -165 -110 -195 0 -26 28 -40 54 -27 19 11 29 9 63 -9 36 -18 54 -20 159 -18 89 2 118 6 117 16 -4 15 53 17 62 2 4 -6 56 -10 123 -10 100 0 123 3 156 21 33 17 43 19 62 8 19 -10 26 -9 39 1 22 18 19 32 -25 119 -41 82 -117 160 -170 176 -14 4 -34 13 -46 20 -24 15 -171 35 -259 35 -55 0 -65 -4 -113 -40z m297 -51 c35 -6 75 -17 90 -26 39 -24 131 -121 131 -138 0 -33 -60 -55 -151 -55 -47 0 -90 5 -96 11 -12 12 -161 7 -258 -9 -50 -8 -65 -7 -90 7 -40 23 -41 39 -5 82 47 58 131 108 201 121 40 7 57 13 48 19 -14 9 13 6 130 -12z"/>
 <path d="M2627 3173 c-4 -3 -8 -56 -9 -117 l-2 -111 -5 105 -6 105 -8 -145 c-4 -80 -10 -228 -14 -330 -5 -164 -4 -187 10 -199 18 -14 52 -7 42 9 -4 6 4 5 19 -1 61 -28 66 14 45 426 -13 266 -13 265 -43 265 -12 0 -26 -3 -29 -7z"/>
 <path d="M3043 2560 c-3 -13 -14 -20 -28 -20 -28 0 -94 -27 -117 -48 -10 -8 -18 -29 -18 -47 0 -33 34 -93 60 -105 8 -4 30 -15 48 -25 27 -14 47 -16 97 -10 38 4 69 13 77 22 7 9 14 54 16 113 4 89 2 100 -17 119 -29 29 -110 30 -118 1z m65 -94 c7 -87 -24 -110 -100 -72 -57 29 -58 43 -3 67 25 11 49 27 52 35 3 8 15 14 27 12 17 -2 22 -11 24 -42z"/>
 <path d="M2129 2549 c-19 -19 -21 -30 -17 -119 2 -59 9 -104 16 -113 8 -9 39 -18 77 -22 50 -6 70 -4 97 10 18 10 40 21 48 25 26 12 60 72 60 105 0 18 -8 39 -17 47 -24 21 -90 48 -118 48 -14 0 -25 7 -28 20 -8 29 -89 28 -118 -1z m104 -63 c3 -8 27 -24 52 -35 53 -23 54 -36 4 -64 -39 -22 -88 -25 -100 -5 -10 16 -12 102 -2 111 12 12 41 7 46 -7z"/>
 <path d="M3254 2089 c-26 -12 -76 -21 -140 -25 -54 -4 -103 -10 -109 -14 -9 -6 -36 -14 -124 -39 -34 -10 -49 -36 -35 -59 16 -24 97 -15 174 20 19 9 74 19 121 22 118 8 143 14 180 45 25 21 30 32 25 49 -9 27 -36 27 -92 1z"/>
 <path d="M1944 2078 c-5 -17 0 -28 25 -49 37 -31 62 -37 180 -45 47 -3 102 -13 121 -22 77 -35 158 -44 174 -20 14 23 -1 49 -35 59 -88 25 -115 33 -124 39 -5 4 -55 10 -109 14 -65 4 -115 14 -144 26 -58 26 -79 25 -88 -2z"/>
 </g>

</svg>