<?xml version="1.0" encoding="UTF-8" standalone="no"?>
<svg
   xmlns:dc="http://purl.org/dc/elements/1.1/"
   xmlns:cc="http://creativecommons.org/ns#"
   xmlns:rdf="http://www.w3.org/1999/02/22-rdf-syntax-ns#"
   xmlns:svg="http://www.w3.org/2000/svg"
   xmlns="http://www.w3.org/2000/svg"
   xmlns:sodipodi="http://sodipodi.sourceforge.net/DTD/sodipodi-0.dtd"
   xmlns:inkscape="http://www.inkscape.org/namespaces/inkscape"
   stroke-miterlimit="10"
   font-weight="normal"
   font-style="normal"
   font-size="12"
   id="svg2"
   version="1.1"
   inkscape:version="0.91 r13725"
   sodipodi:docname="old_personal_computer.svg"
   width="97.825623"
   height="91.685089"
   style="font-style:normal;font-weight:normal;font-size:12px;font-family:Dialog;color-interpolation:auto;fill:#000000;fill-opacity:1;stroke:#000000;stroke-width:1;stroke-linecap:square;stroke-linejoin:miter;stroke-miterlimit:10;stroke-dasharray:none;stroke-dashoffset:0;stroke-opacity:1;color-rendering:auto;image-rendering:auto;shape-rendering:auto;text-rendering:auto">
  <metadata
     id="metadata13">
    <rdf:RDF>
      <cc:Work
         rdf:about="">
        <dc:format>image/svg+xml</dc:format>
        <dc:type
           rdf:resource="http://purl.org/dc/dcmitype/StillImage" />
        <dc:title></dc:title>
      </cc:Work>
    </rdf:RDF>
  </metadata>
  <sodipodi:namedview
     pagecolor="#ffffff"
     bordercolor="#666666"
     borderopacity="1"
     objecttolerance="10"
     gridtolerance="10"
     guidetolerance="10"
     inkscape:pageopacity="0"
     inkscape:pageshadow="2"
     inkscape:window-width="1440"
     inkscape:window-height="837"
     id="namedview11"
     showgrid="false"
     fit-margin-top="0"
     fit-margin-left="0"
     fit-margin-right="0"
     fit-margin-bottom="0"
     inkscape:zoom="2.36"
     inkscape:cx="48.08891"
     inkscape:cy="49.386167"
     inkscape:window-x="-8"
     inkscape:window-y="-8"
     inkscape:window-maximized="1"
     inkscape:current-layer="svg2" />
  <!--Unicode Character 'OLD PERSONAL COMPUTER' (U+1F5B3)-->
  <defs
     id="genericDefs" />
  <g
     id="g5"
     transform="matrix(0.37643337,0,0,0.37643337,-9.422579,-57.700159)">
    <g
       id="g7">
      <path
         d="m 264.6562,311.625 -219.375,0 0,-158.3438 219.375,0 0,158.3438 z m 20.25,85.2188 -259.875,0 0,-18.8438 q 0,-16.1719 8.5782,-34.0312 l 11.6718,-24.3282 219.375,0 11.6719,24.3282 q 8.5781,17.8593 8.5781,34.0312 l 0,18.8438 z m -28.5468,-93.5157 0,-142.0312 -202.7813,0 0,142.0312 202.7813,0 z m 20.3906,85.3594 0,-6.0469 q 0,-16.7344 -7.4531,-32.9062 l -10.125,-21.9375 -209.1094,0 -10.4063,22.2187 q -6.6093,14.0625 -6.6093,22.9219 l 0,15.75 243.7031,0 z M 248.3438,270.4219 q 0,16.4531 -4.3594,20.6719 -4.3594,4.2187 -20.9532,4.2187 l -136.125,0 q -16.5937,0 -20.9531,-4.2187 -4.3593,-4.2188 -4.3593,-20.6719 l 0,-75.9375 q 0,-16.7344 4.289,-20.8828 4.2891,-4.1485 21.0234,-4.1485 l 136.125,0 q 16.875,0 21.0938,4.1485 4.2188,4.1484 4.2188,20.8828 l 0,75.9375 z m -2.9532,99.5625 -20.1094,0 0,-8.0156 -20.1093,0 0,8.0156 -20.5313,0 0,-8.0156 -19.9687,0 0,8.0156 -20.6719,0 0,-8.0156 -19.9688,0 0,8.0156 -20.6718,0 0,-8.0156 -19.9688,0 0,8.0156 -20.8125,0 0,-8.0156 20.8125,0 0,-8.4376 -20.8125,0 0,-7.875 20.8125,0 0,-7.7343 19.9688,0 0,7.7343 20.6718,0 0,-7.7343 19.9688,0 0,7.7343 20.6719,0 0,-7.7343 19.9687,0 0,7.7343 20.5313,0 0,-7.7343 20.1093,0 0,7.7343 20.1094,0 0,7.875 -20.1094,0 0,8.4376 20.1094,0 0,8.0156 z m -5.0625,-99.2813 0,-76.5 q 0,-10.9687 -3.2343,-13.7812 -3.2344,-2.8125 -14.625,-2.8125 l -135.5626,0 q -11.3906,0 -14.3437,2.8125 -2.9531,2.8125 -2.9531,14.2031 l 0,75.6562 q 0,11.25 2.9531,14.0626 2.9531,2.8124 14.3437,2.8124 l 135.5626,0 q 11.5312,0 14.6953,-2.6718 3.164,-2.6719 3.164,-13.7813 z m -15.0469,82.8281 0,-7.875 -20.1093,0 0,7.875 20.1093,0 z m -20.1093,8.0157 0,-7.7344 -20.5313,0 0,7.7344 20.5313,0 z m -20.5313,-8.0157 0,-7.875 -19.9687,0 0,7.875 19.9687,0 z m -19.9687,8.0157 0,-7.7344 -20.6719,0 0,7.7344 20.6719,0 z M 144,353.5312 l 0,-7.875 -19.9688,0 0,7.875 19.9688,0 z m -19.9688,8.0157 0,-7.7344 -20.6718,0 0,7.7344 20.6718,0 z m -20.6718,-8.0157 0,-7.875 -19.9688,0 0,7.875 19.9688,0 z"
         id="path9"
         inkscape:connector-curvature="0"
         style="stroke:none" />
    </g>
  </g>
</svg>
